<?xml version="1.0" encoding="utf-8"?>
<!-- Generator: Adobe Illustrator 26.2.1, SVG Export Plug-In . SVG Version: 6.00 Build 0)  -->
<svg version="1.1" id="Слой_1" xmlns="http://www.w3.org/2000/svg" xmlns:xlink="http://www.w3.org/1999/xlink" x="0px" y="0px"
	 viewBox="0 0 392 170" style="enable-background:new 0 0 392 170;" xml:space="preserve">
<style type="text/css">
	.st0{opacity:9.000000e-02;}
	.st1{fill:#FFFFFF;}
</style>
<g>
	<rect x="0.5" y="0.5" width="391" height="169"/>
	<path d="M391,1v168H1V1H391 M392,0H0v170h392V0L392,0z"/>
</g>
<g class="st0">
	<polygon class="st1" points="38.5,69.2 46.3,70.3 47.8,58.3 38.7,67.4 	"/>
	<polygon class="st1" points="40,46.7 38.6,56.9 49.5,45.9 41.7,44.9 	"/>
	
		<rect x="40.5" y="54.8" transform="matrix(0.1293 -0.9916 0.9916 0.1293 -12.2425 103.5275)" class="st1" width="24.6" height="7.8"/>
	<rect x="5.6" y="47" transform="matrix(0.1293 -0.9916 0.9916 0.1293 -31.5105 65.9279)" class="st1" width="32.3" height="7.8"/>
	
		<rect x="22.3" y="55.1" transform="matrix(0.1293 -0.9916 0.9916 0.1293 -31.0419 82.6813)" class="st1" width="18.6" height="7.8"/>
	<path class="st1" d="M40.6,37.1l-7.3,7.7c2.2,1.1,4.8,0.7,6.5-1.1C41.7,41.9,41.8,39.2,40.6,37.1z"/>
	<polygon class="st1" points="13.5,25.6 7.9,24.9 0.8,79.1 6.5,79.8 60.7,86.9 61.4,81.3 7.2,74.2 	"/>
	<polygon class="st1" points="68.5,27 14.3,20 13.5,25.6 67.7,32.7 61.4,81.3 67.1,82 74.2,27.8 	"/>
</g>
<g class="st0">
	<polygon class="st1" points="135.5,69.2 143.3,70.3 144.8,58.3 135.7,67.4 	"/>
	<polygon class="st1" points="137,46.7 135.6,56.9 146.5,45.9 138.7,44.9 	"/>
	
		<rect x="137.5" y="54.8" transform="matrix(0.1293 -0.9916 0.9916 0.1293 72.2175 199.7135)" class="st1" width="24.6" height="7.8"/>
	<rect x="102.6" y="47" transform="matrix(0.1293 -0.9916 0.9916 0.1293 52.9495 162.114)" class="st1" width="32.3" height="7.8"/>
	
		<rect x="119.3" y="55.1" transform="matrix(0.1293 -0.9916 0.9916 0.1293 53.4182 178.8673)" class="st1" width="18.6" height="7.8"/>
	<path class="st1" d="M137.6,37.1l-7.3,7.7c2.2,1.1,4.8,0.7,6.5-1.1C138.7,41.9,138.8,39.2,137.6,37.1z"/>
	<polygon class="st1" points="110.5,25.6 104.9,24.9 97.8,79.1 103.5,79.8 157.7,86.9 158.4,81.3 104.2,74.2 	"/>
	<polygon class="st1" points="165.5,27 111.3,20 110.5,25.6 164.7,32.7 158.4,81.3 164.1,82 171.2,27.8 	"/>
</g>
<g class="st0">
	<polygon class="st1" points="232.5,69.2 240.3,70.3 241.8,58.3 232.7,67.4 	"/>
	<polygon class="st1" points="234,46.7 232.6,56.9 243.5,45.9 235.7,44.9 	"/>
	
		<rect x="234.5" y="54.8" transform="matrix(0.1293 -0.9916 0.9916 0.1293 156.6776 295.8995)" class="st1" width="24.6" height="7.8"/>
	<rect x="199.6" y="47" transform="matrix(0.1293 -0.9916 0.9916 0.1293 137.4096 258.3)" class="st1" width="32.3" height="7.8"/>
	
		<rect x="216.3" y="55.1" transform="matrix(0.1293 -0.9916 0.9916 0.1293 137.8782 275.0533)" class="st1" width="18.6" height="7.8"/>
	<path class="st1" d="M234.6,37.1l-7.3,7.7c2.2,1.1,4.8,0.7,6.5-1.1C235.7,41.9,235.8,39.2,234.6,37.1z"/>
	<polygon class="st1" points="207.5,25.6 201.9,24.9 194.8,79.1 200.5,79.8 254.7,86.9 255.4,81.3 201.2,74.2 	"/>
	<polygon class="st1" points="262.5,27 208.3,20 207.5,25.6 261.7,32.7 255.4,81.3 261.1,82 268.2,27.8 	"/>
</g>
<g class="st0">
	<polygon class="st1" points="329.5,69.2 337.3,70.3 338.8,58.3 329.7,67.4 	"/>
	<polygon class="st1" points="331,46.7 329.6,56.9 340.5,45.9 332.7,44.9 	"/>
	
		<rect x="331.5" y="54.8" transform="matrix(0.1293 -0.9916 0.9916 0.1293 241.1376 392.0855)" class="st1" width="24.6" height="7.8"/>
	
		<rect x="296.6" y="47" transform="matrix(0.1293 -0.9916 0.9916 0.1293 221.8696 354.486)" class="st1" width="32.3" height="7.8"/>
	
		<rect x="313.3" y="55.1" transform="matrix(0.1293 -0.9916 0.9916 0.1293 222.3382 371.2393)" class="st1" width="18.6" height="7.8"/>
	<path class="st1" d="M331.6,37.1l-7.3,7.7c2.2,1.1,4.8,0.7,6.5-1.1C332.7,41.9,332.8,39.2,331.6,37.1z"/>
	<polygon class="st1" points="304.5,25.6 298.9,24.9 291.8,79.1 297.5,79.8 351.7,86.9 352.4,81.3 298.2,74.2 	"/>
	<polygon class="st1" points="359.5,27 305.3,20 304.5,25.6 358.7,32.7 352.4,81.3 358.1,82 365.2,27.8 	"/>
</g>
<g class="st0">
	<polygon class="st1" points="65.5,152.2 73.3,153.3 74.8,141.3 65.7,150.4 	"/>
	<polygon class="st1" points="67,129.7 65.6,139.9 76.5,128.9 68.7,127.9 	"/>
	
		<rect x="67.5" y="137.8" transform="matrix(0.1293 -0.9916 0.9916 0.1293 -71.0365 202.5709)" class="st1" width="24.6" height="7.8"/>
	
		<rect x="32.6" y="130" transform="matrix(0.1293 -0.9916 0.9916 0.1293 -90.3045 164.9713)" class="st1" width="32.3" height="7.8"/>
	
		<rect x="49.3" y="138.1" transform="matrix(0.1293 -0.9916 0.9916 0.1293 -89.8359 181.7246)" class="st1" width="18.6" height="7.8"/>
	<path class="st1" d="M67.6,120.1l-7.3,7.7c2.2,1.1,4.8,0.7,6.5-1.1C68.7,124.9,68.8,122.2,67.6,120.1z"/>
	<polygon class="st1" points="40.5,108.6 34.9,107.9 27.8,162.1 33.5,162.8 87.7,169.9 88.4,164.3 34.2,157.2 	"/>
	<polygon class="st1" points="95.5,110 41.3,103 40.5,108.6 94.7,115.7 88.4,164.3 94.1,165 101.2,110.8 	"/>
</g>
<g class="st0">
	<polygon class="st1" points="162.5,152.2 170.3,153.3 171.8,141.3 162.7,150.4 	"/>
	<polygon class="st1" points="164,129.7 162.6,139.9 173.5,128.9 165.7,127.9 	"/>
	
		<rect x="164.5" y="137.8" transform="matrix(0.1293 -0.9916 0.9916 0.1293 13.4235 298.7569)" class="st1" width="24.6" height="7.8"/>
	
		<rect x="129.6" y="130" transform="matrix(0.1293 -0.9916 0.9916 0.1293 -5.8445 261.1573)" class="st1" width="32.3" height="7.8"/>
	
		<rect x="146.3" y="138.1" transform="matrix(0.1293 -0.9916 0.9916 0.1293 -5.3758 277.9106)" class="st1" width="18.6" height="7.8"/>
	<path class="st1" d="M164.6,120.1l-7.3,7.7c2.2,1.1,4.8,0.7,6.5-1.1C165.7,124.9,165.8,122.2,164.6,120.1z"/>
	<polygon class="st1" points="137.5,108.6 131.9,107.9 124.8,162.1 130.5,162.8 184.7,169.9 185.4,164.3 131.2,157.2 	"/>
	<polygon class="st1" points="192.5,110 138.3,103 137.5,108.6 191.7,115.7 185.4,164.3 191.1,165 198.2,110.8 	"/>
</g>
<g class="st0">
	<polygon class="st1" points="259.5,152.2 267.3,153.3 268.8,141.3 259.7,150.4 	"/>
	<polygon class="st1" points="261,129.7 259.6,139.9 270.5,128.9 262.7,127.9 	"/>
	
		<rect x="261.5" y="137.8" transform="matrix(0.1293 -0.9916 0.9916 0.1293 97.8836 394.9429)" class="st1" width="24.6" height="7.8"/>
	
		<rect x="226.6" y="130" transform="matrix(0.1293 -0.9916 0.9916 0.1293 78.6156 357.3433)" class="st1" width="32.3" height="7.8"/>
	
		<rect x="243.3" y="138.1" transform="matrix(0.1293 -0.9916 0.9916 0.1293 79.0842 374.0966)" class="st1" width="18.6" height="7.8"/>
	<path class="st1" d="M261.6,120.1l-7.3,7.7c2.2,1.1,4.8,0.7,6.5-1.1C262.7,124.9,262.8,122.2,261.6,120.1z"/>
	<polygon class="st1" points="234.5,108.6 228.9,107.9 221.8,162.1 227.5,162.8 281.7,169.9 282.4,164.3 228.2,157.2 	"/>
	<polygon class="st1" points="289.5,110 235.3,103 234.5,108.6 288.7,115.7 282.4,164.3 288.1,165 295.2,110.8 	"/>
</g>
<g class="st0">
	<polygon class="st1" points="356.5,152.2 364.3,153.3 365.8,141.3 356.7,150.4 	"/>
	<polygon class="st1" points="358,129.7 356.6,139.9 367.5,128.9 359.7,127.9 	"/>
	
		<rect x="358.5" y="137.8" transform="matrix(0.1293 -0.9916 0.9916 0.1293 182.3436 491.1289)" class="st1" width="24.6" height="7.8"/>
	
		<rect x="323.6" y="130" transform="matrix(0.1293 -0.9916 0.9916 0.1293 163.0756 453.5293)" class="st1" width="32.3" height="7.8"/>
	
		<rect x="340.3" y="138.1" transform="matrix(0.1293 -0.9916 0.9916 0.1293 163.5443 470.2827)" class="st1" width="18.6" height="7.8"/>
	<path class="st1" d="M358.6,120.1l-7.3,7.7c2.2,1.1,4.8,0.7,6.5-1.1C359.7,124.9,359.8,122.2,358.6,120.1z"/>
	<polygon class="st1" points="331.5,108.6 325.9,107.9 318.8,162.1 324.5,162.8 378.7,169.9 379.4,164.3 325.2,157.2 	"/>
	<polygon class="st1" points="386.5,110 332.3,103 331.5,108.6 385.7,115.7 379.4,164.3 385.1,165 392.2,110.8 	"/>
</g>
</svg>
