<?xml version="1.0" encoding="utf-8"?>
<!-- Generator: Adobe Illustrator 26.2.1, SVG Export Plug-In . SVG Version: 6.00 Build 0)  -->
<svg version="1.1" id="Слой_1" xmlns="http://www.w3.org/2000/svg" xmlns:xlink="http://www.w3.org/1999/xlink" x="0px" y="0px"
	 viewBox="0 0 411.2 125.2" style="enable-background:new 0 0 411.2 125.2;" xml:space="preserve">
<style type="text/css">
	.st0{fill:#FFFFFF;}
</style>
<path class="st0" d="M85.2,36.6c0,2.9-0.5,5.4-1.4,7.3c-1,1.9-2.3,3.4-3.9,4.3c-1.7,0.9-3.6,1.4-5.8,1.4c-3.1,0-5.5-0.9-7.2-2.8
	c-1.7-1.9-2.6-4.8-2.6-8.8V12.7h-14V40c0,5,0.9,9.1,2.6,12.3c1.7,3.2,4.2,5.6,7.3,7.1c3.1,1.6,6.7,2.3,10.7,2.3
	c3.7,0,7.1-0.8,10.3-2.6c1.9-1,3.4-2.4,4.7-4V61h13.3V12.7h-14V36.6z"/>
<path class="st0" d="M47.6,40V21c-1.9-2.4-4.1-4.4-6.8-5.9c-3.6-2.1-7.7-3.1-12.3-3.1c-4.2,0-7.9,0.9-11,2.7c-1.6,1-3,2.2-4.2,3.7
	v-5.7H0v55.2h14V55.8c1.1,1.3,2.4,2.4,3.9,3.2c3.1,1.8,6.6,2.7,10.7,2.7c4.6,0,8.6-1,12.3-3c3.5-2,6.3-4.8,8.5-8.4
	C48.2,47.4,47.6,43.9,47.6,40z M36.8,44c-1.1,2-2.6,3.6-4.4,4.6c-1.8,1.1-3.9,1.6-6.2,1.6c-2.3,0-4.4-0.5-6.3-1.6
	C18,47.5,16.5,46,15.4,44c-1.1-2-1.6-4.4-1.6-7.1c0-2.8,0.5-5.2,1.6-7.2c1.1-2,2.5-3.5,4.4-4.6c1.9-1.1,4-1.6,6.3-1.6
	c2.3,0,4.4,0.5,6.2,1.6c1.8,1.1,3.3,2.6,4.4,4.6c1.1,2,1.7,4.4,1.7,7.2C38.4,39.6,37.9,42,36.8,44z"/>
<polygon class="st0" points="196.1,12.7 179.4,12.7 158.9,32.1 158.9,11.9 144.9,11.9 144.9,61 158.9,61 158.9,48.7 165.7,42.1 
	180.9,61 197.9,61 176,33.1 "/>
<path class="st0" d="M229.1,15.1c-4-2.1-8.6-3.2-13.6-3.2c-5.1,0-9.7,1.1-13.7,3.2c-4,2.1-7.1,5.1-9.4,8.8c-2.3,3.7-3.5,8-3.5,12.9
	c0,4.8,1.2,9.1,3.5,12.8c2.3,3.7,5.5,6.7,9.4,8.8c4,2.2,8.5,3.2,13.7,3.2c5.1,0,9.6-1.1,13.6-3.2c4-2.2,7.2-5.1,9.4-8.8
	c2.3-3.7,3.4-8,3.4-12.8c0-4.9-1.1-9.2-3.4-12.9C236.2,20.2,233.1,17.3,229.1,15.1z M226.1,44c-1.1,2-2.6,3.6-4.4,4.6
	c-1.9,1.1-4,1.6-6.3,1.6c-2.3,0-4.4-0.5-6.3-1.6c-1.9-1.1-3.3-2.6-4.4-4.6c-1.1-2-1.7-4.4-1.7-7.1c0-2.8,0.5-5.2,1.7-7.2
	c1.1-2,2.6-3.5,4.4-4.6c1.9-1.1,4-1.6,6.3-1.6c2.3,0,4.4,0.5,6.3,1.6c1.8,1.1,3.3,2.6,4.4,4.6c1.1,2,1.6,4.4,1.6,7.2
	C227.7,39.6,227.2,42,226.1,44z"/>
<rect x="145.1" y="67.3" class="st0" width="14" height="48.3"/>
<path class="st0" d="M141.7,39.6c-1.1-1.7-2.5-3.1-4.2-4c-1.7-1-3.6-1.8-5.7-2.3c-2.1-0.5-4.2-0.9-6.2-1.2c-2.1-0.3-4-0.6-5.7-0.9
	c-1.7-0.4-3.1-0.8-4.2-1.4c-1-0.6-1.6-1.5-1.6-2.7c0-1.3,0.7-2.4,2.2-3.2c1.4-0.8,3.7-1.3,6.8-1.3c2.2,0,4.5,0.3,6.9,0.8
	c2.4,0.5,4.7,1.5,7.1,2.8l4.7-10c-2.3-1.4-5.1-2.4-8.5-3.1c-3.4-0.7-6.8-1.1-10.1-1.1c-4.7,0-8.7,0.7-12,2c-3.4,1.4-5.9,3.2-7.7,5.5
	c-0.6,0.8-1,1.6-1.4,2.4v11.8c0.1,0.2,0.2,0.4,0.4,0.6c1,1.7,2.4,3.1,4.2,4.1c1.7,1,3.7,1.8,5.7,2.3c2.1,0.5,4.2,0.9,6.2,1.2
	c2.1,0.3,4,0.6,5.7,0.9c1.7,0.3,3.1,0.7,4.2,1.3c1,0.6,1.6,1.4,1.6,2.6c0,1.4-0.7,2.5-2,3.2c-1.4,0.8-3.6,1.2-6.9,1.2
	c-2.9,0-5.9-0.4-8.9-1.3c-3-0.9-5.6-2-7.9-3.4l-2.3,4.9v6.5c1.8,0.9,4.1,1.7,6.6,2.4c3.8,1,7.8,1.5,11.9,1.5c4.8,0,9-0.7,12.3-2
	c3.4-1.3,6-3.1,7.8-5.4c0.5-0.7,1-1.4,1.3-2.1V40.1C141.9,39.9,141.8,39.8,141.7,39.6z"/>
<path class="st0" d="M141.9,93.6c-0.9-1.4-2-2.5-3.2-3.4c-0.3-0.2-0.5-0.4-0.8-0.5c-0.1,0-0.1-0.1-0.2-0.1c-1.7-1-3.6-1.8-5.7-2.3
	c-2.1-0.5-4.2-0.9-6.2-1.2c-2.1-0.3-4-0.6-5.7-0.9c-1.7-0.4-3.1-0.8-4.2-1.4c-1-0.6-1.6-1.5-1.6-2.7c0-1.3,0.7-2.4,2.2-3.2
	c1.4-0.8,3.7-1.3,6.8-1.3c2.2,0,4.5,0.3,6.9,0.8c2.4,0.5,4.7,1.5,7.1,2.8l0,0c0,0,0,0,0,0l4.7-10c-1.5-0.9-3.3-1.7-5.3-2.3
	c0,0-0.1,0-0.1,0c-0.4-0.1-0.9-0.3-1.3-0.4c-0.1,0-0.2-0.1-0.3-0.1c-0.5-0.1-1-0.2-1.5-0.4c-3.4-0.7-6.8-1.1-10.1-1.1c0,0,0,0,0,0
	c0,0,0,0,0,0c-4.7,0-8.7,0.7-12,2c-3.4,1.4-5.9,3.2-7.7,5.5c-0.3,0.4-0.5,0.8-0.8,1.1c0,0,0,0,0,0.1c-1.2,2-1.8,4.3-1.8,6.9
	c0,2.8,0.5,5,1.6,6.7c1,1.7,2.4,3.1,4.2,4.1c1.7,1,3.7,1.8,5.7,2.3c2.1,0.5,4.2,0.9,6.2,1.2c2.1,0.3,4,0.6,5.7,0.9
	c1.7,0.3,3.1,0.7,4.2,1.3c1,0.6,1.6,1.4,1.6,2.6c0,1.4-0.7,2.5-2,3.2c-1.4,0.8-3.6,1.2-6.9,1.2c-2.9,0-5.9-0.4-8.9-1.3
	c-3-0.9-5.6-2-7.9-3.4l0,0c0,0,0,0,0,0l-4.7,10.1c1.5,1,3.3,1.8,5.4,2.6c0,0,0.1,0,0.1,0c0.5,0.2,1,0.3,1.5,0.5
	c0.1,0,0.2,0.1,0.3,0.1c0.6,0.2,1.1,0.3,1.7,0.5c3.8,1,7.8,1.5,11.9,1.5c0,0,0,0,0,0c0,0,0,0,0,0c4.8,0,9-0.7,12.3-2
	c0.6-0.2,1.1-0.5,1.7-0.7c0.1,0,0.2-0.1,0.3-0.1c1.1-0.5,2.1-1.2,3-1.8c0,0,0.1-0.1,0.1-0.1c1-0.8,1.9-1.7,2.7-2.6
	c0.5-0.7,1-1.4,1.3-2.1V94C142.1,93.8,142,93.7,141.9,93.6z"/>
<path class="st0" d="M225.6,98.9c-1,1.5-2.2,2.7-3.7,3.6c-1.9,1.1-4,1.6-6.3,1.6c-2.3,0-4.4-0.5-6.3-1.6c-1.9-1.1-3.3-2.6-4.4-4.6
	c-0.5-1-0.9-2-1.2-3.2h21.7h2.1h14.3c0.2-1.3,0.3-2.6,0.3-4c0-4.9-1.1-9.2-3.4-12.9c-2.3-3.7-5.4-6.6-9.4-8.8
	c-4-2.1-8.6-3.2-13.6-3.2c-5.1,0-9.7,1.1-13.7,3.2c-4,2.1-7.1,5.1-9.4,8.8c-2.3,3.7-3.5,8-3.5,12.9c0,4.8,1.2,9.1,3.5,12.8
	c2.3,3.7,5.5,6.7,9.4,8.8c4,2.2,8.5,3.2,13.7,3.2c5.1,0,9.6-1.1,13.6-3.2c4-2.2,7.2-5.1,9.4-8.8c0.9-1.4,1.6-2.9,2.1-4.5L225.6,98.9
	z M204.9,83.5c1.1-2,2.6-3.5,4.4-4.6c1.9-1.1,4-1.6,6.3-1.6c2.3,0,4.4,0.5,6.3,1.6c1.8,1.1,3.3,2.6,4.4,4.6c0.5,1,0.9,2,1.2,3.2
	h-23.8C203.9,85.6,204.3,84.5,204.9,83.5z"/>
<g>
	<path class="st0" d="M191.3,104.9c-0.8,0.2-1.7,0.3-2.6,0.3c-1.9,0-3.3-0.6-4.4-1.7c-1.1-1.1-1.6-2.7-1.6-4.7l0-20.7h6.8
		c0.1-0.1,0.1-0.2,0.2-0.4V67.3h-7l0-10.7h-14l-0.1,10.7h-6.5v10.8h6.5l0.1,20.9c0,5.7,1.6,10.1,4.8,13c3.2,2.9,7.6,4.4,13.3,4.4
		c2.2,0,4.2-0.3,6.2-0.8c2-0.5,3.7-1.3,5.2-2.3l-0.7-1.7C195,109.7,192.9,107.4,191.3,104.9z"/>
</g>
<polygon class="st0" points="343,115.9 368.1,115.9 368.1,77.2 343,110 "/>
<polygon class="st0" points="338.3,43.5 338.3,76.4 368.4,37.2 343.1,37.2 "/>
<rect x="374.9" y="37.2" class="st0" width="25.1" height="78.8"/>
<rect x="269.6" y="12.7" class="st0" width="25.1" height="103.6"/>
<rect x="304.1" y="56.5" class="st0" width="25.1" height="59.6"/>
<path class="st0" d="M336.3,12.9l-19.8,27.6c7.3,2.8,15.7,0.3,20.3-6.2C341.7,27.6,341.1,18.9,336.3,12.9z"/>
<g>
	<path class="st0" d="M405.5,116.1c-2.1,0-3.9-1.7-3.9-3.9c0-2.2,1.7-3.9,3.9-3.9c2.2,0,3.9,1.7,3.9,3.9
		C409.4,114.3,407.7,116.1,405.5,116.1z M405.5,108.9c-1.8,0-3.2,1.4-3.2,3.2c0,1.8,1.4,3.2,3.2,3.2s3.3-1.5,3.3-3.2
		C408.8,110.4,407.3,108.9,405.5,108.9z M406.1,114.4l-0.8-1.8h-0.7l-0.4,1.8h-0.7l1-4.4h1.7c0.9,0,1.3,0.6,1.3,1.2
		c0,0.8-0.7,1.5-1.5,1.5l0.8,1.8H406.1z M406,110.5h-1l-0.3,1.5h1.1c0.6,0,1-0.4,1-0.9C406.8,110.8,406.6,110.5,406,110.5z"/>
</g>
</svg>
