<?xml version="1.0" encoding="utf-8"?>
<!-- Generator: Adobe Illustrator 28.0.0, SVG Export Plug-In . SVG Version: 6.00 Build 0)  -->
<svg version="1.1" id="Слой_1" xmlns="http://www.w3.org/2000/svg" xmlns:xlink="http://www.w3.org/1999/xlink" x="0px" y="0px"
	 viewBox="0 0 221.2 221" style="enable-background:new 0 0 221.2 221;" xml:space="preserve">
<style type="text/css">
	.st0{fill:#FFFFFF;}
	.st1{fill:#020202;}
</style>
<path class="st0" d="M179.9,221H41.3c-22.7,0-41.2-18.4-41.2-41.2V41.2C0.1,18.4,18.5,0,41.3,0h138.7c22.7,0,41.2,18.4,41.2,41.2
	v138.7C221.1,202.6,202.7,221,179.9,221z"/>
<g>
	<polygon class="st1" points="120.8,165.7 147.7,165.7 147.7,124.2 120.8,159.3 	"/>
	<polygon class="st1" points="115.7,88.1 115.7,123.3 148,81.3 120.9,81.3 	"/>
	<rect x="155" y="81.3" class="st1" width="26.9" height="84.5"/>
	<rect x="42.1" y="55" class="st1" width="26.9" height="111.1"/>
	<rect x="79.1" y="102" class="st1" width="26.9" height="63.9"/>
	<path class="st1" d="M113.6,55.3L92.4,84.9c7.8,3,16.8,0.3,21.8-6.6C119.4,71,118.8,61.6,113.6,55.3z"/>
</g>
</svg>
