<?xml version="1.0" encoding="utf-8"?>
<!-- Generator: Adobe Illustrator 26.2.1, SVG Export Plug-In . SVG Version: 6.00 Build 0)  -->
<svg version="1.1" id="Слой_1" xmlns="http://www.w3.org/2000/svg" xmlns:xlink="http://www.w3.org/1999/xlink" x="0px" y="0px"
	 viewBox="0 0 300 150" style="enable-background:new 0 0 300 150;" xml:space="preserve">
<style type="text/css">
	.st0{fill:#4254F4;}
	.st1{fill:#FFFFFF;}
</style>
<rect class="st0" width="300" height="150"/>
<path class="st1" d="M85.4,70.5h-5v17.7c0,2.3-0.8,3.1-1.9,3.1c-0.9,0-1.7-0.2-2.4-0.4l-0.5,3.4c1,0.3,2.2,0.5,3.8,0.5
	c4.2,0,6-2.5,6-6.5L85.4,70.5L85.4,70.5z M80.4,67.7h5v-4.3h-5C80.4,63.4,80.4,67.7,80.4,67.7z"/>
<path class="st1" d="M92.1,76.4c0-0.3-0.1-0.6-0.1-0.8c0-1.5,1-2.1,3.1-2.1c2.1,0,3,1,3,2.6v1.4c-8.6,0.2-11.4,2.3-11.4,5.9
	c0,3.1,2.2,4.6,5.5,4.6c3.7,0,5.8-2,6.4-2.7h0.2c0.1,1.3,0.6,2.7,3.2,2.7c1,0,2.1-0.2,2.8-0.4l-0.2-3.3c-0.3,0.1-0.6,0.1-0.9,0.1
	c-0.5,0-0.8-0.3-0.8-1v-7c0-3.2-1.7-6.2-7.7-6.2c-5.4,0-7.9,2.1-7.9,5.4c0,0.4,0,0.9,0.1,1.3L92.1,76.4z M91.6,82.6
	c0-1.5,1.4-2.5,6.5-2.6v2.5c-1,1.1-2.6,1.9-4.2,1.9C92.5,84.4,91.6,83.9,91.6,82.6z"/>
<path class="st1" d="M104.9,79c0,5.6,3,8.8,9,8.8c7.2,0,7.9-4.2,7.9-6c0-0.3,0-0.5-0.1-0.9l-5-0.1c0.1,0.2,0.1,0.4,0.1,0.5
	c0,1-0.5,2.8-3,2.8S110,82.4,110,79c0-4,1.4-5.3,3.7-5.3c2.5,0,3,1.8,3,2.8c0,0.2,0,0.4-0.1,0.6l5-0.1c0.1-0.4,0.1-0.6,0.1-0.9
	c0-1.9-0.7-6-7.9-6C107.6,70.1,104.9,74.2,104.9,79z"/>
<path class="st1" d="M123.2,87.5h5v-5.3c0.6-0.4,2-1.3,2.7-1.9c0.8,0.8,4,6.5,4.7,7.1h5.4v-0.6c-0.9-0.8-5.4-8.2-6.4-9.2
	c1.7-1.4,4.2-4,6-6.7v-0.6h-5.5c-1.7,2.7-4.5,5.4-6.9,7v-15h-5L123.2,87.5L123.2,87.5z"/>
<path class="st1" d="M141.8,87.5h3.8l0.7-1.9h0.2c0.8,0.9,2.3,2.2,5.3,2.2c3.8,0,7.3-2.5,7.3-8.9c0-6.5-3.6-8.8-7.3-8.8
	c-2.4,0-4,1-4.8,1.9h-0.2v-9.6h-5V87.5L141.8,87.5z M146.8,75.2c0.8-0.9,2-1.5,3.2-1.5c2.2,0,4,1.2,4,5.3c0,4.1-1.7,5.3-4,5.3
	c-1.4,0-2.6-0.6-3.2-1.5V75.2z"/>
<path class="st1" d="M159.6,79c0,5.4,2.9,8.8,9,8.8c6,0,9-3.5,9-8.8c0-5.4-3-8.9-9-8.9C162.5,70.1,159.6,73.6,159.6,79z M168.6,84.3
	c-2.4,0-3.9-1.4-3.9-5.3c0-4,1.5-5.3,3.9-5.3c2.3,0,3.9,1.4,3.9,5.3C172.5,82.9,171,84.3,168.6,84.3z"/>
<path class="st1" d="M177,87.5h5.3l2.3-3.5c0.6-1,1-1.7,1.6-2.7h0.3c0.5,1,0.8,1.5,1.5,2.6l2.4,3.5h5.3V87l-6.1-8.3l6-7.8v-0.5h-5.3
	l-2.1,3.1c-0.6,1-1.1,1.7-1.7,2.7h-0.3c-0.5-1.1-1-1.9-1.7-2.8l-2.1-3.1h-5.3V71l6,7.9l-6,8.1L177,87.5L177,87.5z"/>
<rect x="196.5" y="82.2" class="st1" width="5.8" height="5.4"/>
<path class="st1" d="M208.4,87.5h-5V70.4h3.7l0.6,2.4h0.3c0.8-1.2,2.1-2.7,4.8-2.7c3.5,0,4.6,2.5,4.6,5.3c0,0.8-0.2,1.7-0.3,2.3
	l-4.3-0.3c0.1-0.5,0.1-1,0.1-1.4c0-1.5-0.7-2.3-1.8-2.3c-1.3,0-2.2,1.2-2.6,2.1L208.4,87.5L208.4,87.5z"/>
<path class="st1" d="M226.8,70.1c6,0,9,3.5,9,8.9c0,5.4-3,8.9-9,8.9c-6.1,0-9-3.5-9-8.9C217.8,73.6,220.7,70.1,226.8,70.1z
	 M230.7,79c0-4-1.5-5.3-3.9-5.3c-2.4,0-3.9,1.4-3.9,5.3c0,3.9,1.5,5.3,3.9,5.3C229.1,84.3,230.7,82.9,230.7,79z"/>
<path class="st1" d="M245.6,70.1c7.2,0,7.9,4.1,7.9,6c0,0.3,0,0.5-0.1,0.9l-5,0.1c0.1-0.2,0.1-0.4,0.1-0.6c0-1-0.5-2.8-3-2.8
	c-2.3,0-3.7,1.3-3.7,5.3c0,3.4,1.3,5.3,3.7,5.3s3-1.8,3-2.8c0-0.1,0-0.4-0.1-0.5l5,0.1c0.1,0.4,0.1,0.6,0.1,0.9c0,1.7-0.7,6-7.9,6
	c-6,0-9-3.2-9-8.9C236.6,74.1,239.3,70.1,245.6,70.1z"/>
<path class="st1" d="M254.6,62.4h5v15c2.4-1.6,5.2-4.3,6.9-7h5.5V71c-1.8,2.7-4.3,5.2-6,6.7c0.9,1.1,5.4,8.5,6.4,9.2v0.6H267
	c-0.7-0.6-3.9-6.3-4.7-7.1c-0.6,0.5-2.1,1.5-2.7,1.9v5.3h-5V62.4z"/>
<path class="st1" d="M276.6,81.8c0,0.3,0,0.4,0,0.5c0,0.9,0.5,2.1,3.5,2.1c1.9,0,2.9-0.6,2.9-1.7c0-1-1.1-1.4-2.5-1.7l-2.5-0.5
	c-4-0.9-5.7-2.3-5.7-5.2c0-3.1,2.7-5.1,7.7-5.1c6.4,0,7.4,3.1,7.5,5c0,0.3,0,0.5-0.1,0.9l-4.4,0.1c0-0.3,0-0.4,0-0.5
	c0-0.8-0.6-1.9-3.2-1.9c-1.9,0-2.8,0.6-2.8,1.6c0,1.3,1.3,1.5,2.7,1.8l2.7,0.5c4.1,0.8,5.4,2.4,5.4,5.1c0,2.8-2.5,5.2-7.8,5.2
	c-6.9,0-8.1-3.3-8.1-5.3c0-0.3,0-0.5,0.1-0.6L276.6,81.8z"/>
<path class="st1" d="M42.5,55c10.2,0,18.4,7.7,18.7,17.4l-1.8,0.8c0-0.2,0-0.4,0-0.6c0-8.9-7.7-16.1-17.1-16.1s-17.1,7.2-17.1,16.1
	c0,0.2,0,0.3,0,0.4l-1.5-0.7C24.1,62.7,32.3,55,42.5,55z"/>
<polygon class="st1" points="22.6,95.2 22.6,87 13.6,81.9 22.6,73.6 41.3,82.6 41.3,103.5 "/>
<path class="st1" d="M33.3,71.5c0,0.6,0.1,1.2,0.2,1.8c0,0,0,0,0,0c-0.9,0-1.7,1.3-1.7,2v0.6L27,73.8c0-0.3,0-0.6,0-0.8
	c0-8.3,6.9-15,15.3-15S57.6,64.7,57.6,73c0,0.3,0,0.7,0,1l-4.7,2v-0.6c0-0.7-0.7-1.9-1.5-2c0.1-0.6,0.2-1.2,0.2-1.8
	c0-5-3.9-9.9-8.9-9.9C37.5,61.6,33.3,66.5,33.3,71.5z"/>
<polygon class="st1" points="62.6,87 62.6,95.2 43.8,103.4 43.9,82.5 62.5,73.5 71.6,81.8 "/>
</svg>
