<?xml version="1.0" encoding="utf-8"?>
<!-- Generator: Adobe Illustrator 26.2.1, SVG Export Plug-In . SVG Version: 6.00 Build 0)  -->
<svg version="1.1" id="Слой_1" xmlns="http://www.w3.org/2000/svg" xmlns:xlink="http://www.w3.org/1999/xlink" x="0px" y="0px"
	 viewBox="0 0 385 150" style="enable-background:new 0 0 385 150;" xml:space="preserve">
<style type="text/css">
	.st0{fill:#FFFFFF;}
	.st1{fill:#ECEAEB;}
	.st2{fill:#151515;}
</style>
<g>
	<path class="st0" d="M357.3,149.9H27.7c-15.2,0-27.5-12.3-27.5-27.5V27.7c0-15.2,12.3-27.5,27.5-27.5h329.6
		c15.2,0,27.5,12.3,27.5,27.5v94.7C384.8,137.6,372.5,149.9,357.3,149.9z"/>
</g>
<path class="st1" d="M355.7,84.2l1.3-41.9l-23.5,32.6L305,49.9l-48.7,21.8l-11.9-9.4l-2.9-24.9l-12.1,13l-20.2-16l-59.3,49.9
	l-2.2-0.8c-12.1-16.6-27.5-37.4-29-38.5c-1.1-0.9-6.9,10.8-13,24L37.5,45.6c0,0-19.4,49.3-37.2,60.5v16.5
	c0,15.2,12.3,27.5,27.5,27.5h329.6c15.2,0,27.5-12.3,27.5-27.5V82.7L355.7,84.2z"/>
<path class="st2" d="M151.5,84.7V59.2h21.8v25.5h-7V65.3h-7.9v19.4C158.4,84.7,151.5,84.7,151.5,84.7z"/>
<path class="st2" d="M180.7,92.3c-0.6,0-1.2,0-1.9-0.1s-1.4-0.3-2.4-0.5l0.7-5.8c0.5,0.2,1.1,0.3,1.5,0.4c0.5,0.1,0.9,0.1,1.3,0.1
	c0.6,0,1.1-0.1,1.5-0.4s0.7-0.7,0.8-1.2l0.1-0.6L175.4,66h7l3.6,11.4l2.9-11.4h6.3L189,86.4c-0.4,1.2-0.9,2.2-1.7,3.1
	s-1.8,1.6-2.9,2.1C183.2,92.1,182,92.3,180.7,92.3z"/>
<path class="st2" d="M206,85c-1.7,0-3.2-0.3-4.4-0.8s-2.4-1.2-3.2-2.1s-1.6-1.9-2-3.1s-0.7-2.4-0.7-3.6c0-1.7,0.4-3.3,1.2-4.7
	s2-2.7,3.5-3.5c1.5-0.9,3.4-1.3,5.6-1.3c2.3,0,4.2,0.5,5.8,1.4s2.7,2.2,3.5,3.7l-6.6,2c-0.3-0.4-0.7-0.8-1.1-1.1
	c-0.4-0.3-0.9-0.4-1.5-0.4s-1.2,0.1-1.7,0.5c-0.5,0.3-0.9,0.8-1.2,1.3c-0.3,0.6-0.4,1.3-0.4,2.1c0,0.8,0.1,1.5,0.4,2.1
	c0.3,0.6,0.7,1,1.2,1.3s1.1,0.5,1.7,0.5c0.4,0,0.7,0,1.1-0.1s0.6-0.3,0.9-0.5c0.3-0.2,0.5-0.5,0.7-0.8l6.6,2c-0.5,1-1.2,1.9-2.1,2.7
	c-0.9,0.8-1.9,1.4-3.1,1.8C208.9,84.8,207.5,85,206,85z"/>
<path class="st2" d="M236.9,75.8c0-1.3,0.2-2.5,0.7-3.6c0.4-1.2,1.1-2.2,2-3.1s2-1.6,3.2-2.1s2.8-0.8,4.4-0.8c1.7,0,3.2,0.3,4.5,0.8
	s2.4,1.2,3.2,2.1c0.9,0.9,1.5,1.9,2,3.1c0.4,1.2,0.7,2.4,0.7,3.6 M250.6,75.8c0-0.8-0.1-1.5-0.4-2.1c-0.3-0.6-0.7-1-1.2-1.3
	s-1.1-0.5-1.7-0.5c-0.7,0-1.2,0.1-1.7,0.5c-0.5,0.3-0.9,0.8-1.2,1.3c-0.3,0.6-0.4,1.3-0.4,2.1"/>
<path class="st2" d="M259.8,75.5c0,1.3-0.2,2.5-0.7,3.6s-1.1,2.2-2,3.1s-2,1.6-3.2,2.1s-2.8,0.8-4.5,0.8s-3.2-0.3-4.4-0.8
	s-2.4-1.2-3.2-2.1c-0.9-0.9-1.5-1.9-2-3.1c-0.4-1.2-0.7-2.4-0.7-3.6 M246.1,75.5c0,0.8,0.1,1.5,0.4,2.1c0.3,0.6,0.7,1,1.2,1.3
	s1.1,0.5,1.7,0.5c0.7,0,1.2-0.1,1.7-0.5c0.5-0.3,0.9-0.8,1.2-1.3c0.3-0.6,0.4-1.3,0.4-2.1"/>
<path class="st2" d="M261.2,77.8v-6.1h11.2v6.1H261.2L261.2,77.8z"/>
<path class="st2" d="M282.2,65.6c1.2-0.5,2.3-0.7,3.5-0.7s2.3,0.2,3.3,0.6l-3.6,5.9c-0.3-0.1-0.7-0.1-1-0.1c-0.4,0-0.7,0.1-1,0.2
	s-0.6,0.3-0.9,0.6c-0.5,0.4-0.8,0.9-0.9,1.5c-0.2,0.6-0.2,1.2,0,1.8s0.5,1.2,1.1,1.9c0.5,0.6,1.1,1,1.7,1.3c0.6,0.2,1.2,0.3,1.8,0.2
	s1.1-0.4,1.6-0.8c0.4-0.4,0.7-0.8,0.9-1.3s0.2-1,0.1-1.5l6.3-2.9c0.4,1.6,0.4,3.3-0.1,5.1c-0.5,1.7-1.6,3.4-3.3,4.9
	c-1.6,1.5-3.4,2.4-5.1,2.8s-3.4,0.3-5-0.3c-1.6-0.5-2.9-1.5-4.1-2.7c-0.8-0.9-1.5-2-1.9-3.2s-0.6-2.4-0.6-3.6c0-1.3,0.4-2.5,1-3.8
	s1.5-2.4,2.8-3.5C279.8,66.8,281,66.1,282.2,65.6z"/>
<path class="st2" d="M295.6,79.1c0-1.2,0.4-2.3,1.1-3.3c0.7-0.9,1.6-1.7,2.9-2.2c1.2-0.5,2.6-0.8,4.2-0.8c0.7,0,1.5,0.1,2.1,0.2
	s1.2,0.3,1.7,0.5v-0.6c0-0.8-0.3-1.5-0.8-1.9s-1.3-0.6-2.5-0.6c-1.1,0-2,0.2-2.9,0.5c-0.9,0.4-1.9,0.8-2.9,1.5l-2-4.2
	c1.3-0.8,2.6-1.4,4-1.8s2.9-0.6,4.5-0.6c3,0,5.3,0.7,7,2c1.6,1.3,2.4,3.3,2.4,5.9v3.6c0,0.6,0.1,1.1,0.3,1.3c0.2,0.3,0.5,0.4,1,0.4
	v5.8c-0.5,0.1-1.1,0.2-1.6,0.3c-0.5,0.1-0.9,0.1-1.3,0.1c-1.2,0-2.1-0.2-2.8-0.7c-0.6-0.4-1.1-1.1-1.2-2l-0.1-0.7
	c-0.8,1.1-1.8,1.9-2.9,2.4s-2.3,0.8-3.5,0.8s-2.4-0.3-3.4-0.8s-1.8-1.2-2.4-2.1C295.9,81.2,295.6,80.2,295.6,79.1z M306.7,79.5
	c0.3-0.2,0.5-0.4,0.7-0.6s0.3-0.4,0.3-0.7v-1.3c-0.4-0.1-0.8-0.3-1.3-0.3c-0.5-0.1-0.9-0.1-1.3-0.1c-0.8,0-1.5,0.2-2.1,0.6
	c-0.5,0.4-0.8,0.9-0.8,1.5c0,0.3,0.1,0.6,0.3,0.9c0.2,0.3,0.4,0.5,0.8,0.6c0.3,0.1,0.7,0.2,1.2,0.2c0.4,0,0.8-0.1,1.3-0.2
	C306,79.8,306.3,79.7,306.7,79.5z"/>
<polygon class="st2" points="318.2,84.7 318.2,66.1 325,66.1 325,75.7 331,66.1 337.2,66.1 337.2,84.7 330.4,84.7 330.4,75.3 
	324.4,84.7 "/>
<path class="st2" d="M332.6,60.5c1.2,1.1,1.9,2.5,1.9,4.4h-3.9c-0.1-0.8-0.4-1.5-0.8-2c-0.5-0.5-1.2-0.7-2.1-0.7s-1.7,0.3-2.2,0.8
	s-0.7,1.2-0.7,2h-3.9c0-1.8,0.6-3.3,1.9-4.4c1.2-1.1,2.9-1.6,4.9-1.6C329.7,58.9,331.4,59.4,332.6,60.5z"/>
<path class="st2" d="M344.8,84.7V72h-5.4v-5.9H357V72h-5.4v12.7H344.8z"/>
<g>
	<path class="st2" d="M234.9,66.5v18.3h-6.7v-6.1h-1.1l-4,6.1H216l6.2-8.7l-6.8-9.6h7.6l4.3,6.5h0.9v-6.5
		C228.2,66.5,234.9,66.5,234.9,66.5z"/>
</g>
<polygon class="st2" points="52.7,83.3 52.7,84.8 59,84.8 59,75.1 "/>
<polygon class="st2" points="59,65 52.7,65 51.5,66.6 51.5,74.9 "/>
<rect x="59.9" y="65" class="st2" width="6.3" height="19.7"/>
<rect x="34.3" y="58.9" class="st2" width="6.3" height="26"/>
<rect x="43" y="69.9" class="st2" width="6.3" height="14.9"/>
<path class="st2" d="M51.2,64.3c1.2-1.7,1.1-3.9-0.1-5.4l-5,6.9C47.9,66.6,50,66,51.2,64.3z"/>
<g>
	<path class="st2" d="M78.1,59.9h6v9.5h0.2c0.4-0.5,1-1,1.8-1.4s1.7-0.6,2.9-0.6c1.2,0,2.4,0.2,3.5,0.8c1.1,0.6,2,1.5,2.7,2.7
		c0.7,1.3,1.1,3,1.1,5.2s-0.4,3.9-1.1,5.2c-0.7,1.3-1.6,2.2-2.7,2.7c-1.1,0.6-2.3,0.8-3.5,0.8c-1,0-1.9-0.2-2.6-0.4
		c-0.7-0.3-1.3-0.6-1.7-0.9c-0.4-0.4-0.8-0.7-1.1-1h-0.2l-0.8,2h-4.5C78.1,84.5,78.1,59.9,78.1,59.9z M84.1,79.4
		c0.3,0.4,0.6,0.6,1.1,0.9c0.4,0.2,1,0.4,1.5,0.4c0.6,0,1.2-0.1,1.7-0.4s0.9-0.8,1.2-1.4c0.3-0.7,0.5-1.6,0.5-2.8
		c0-1.2-0.2-2.1-0.5-2.7c-0.3-0.7-0.7-1.1-1.3-1.4c-0.5-0.3-1.1-0.4-1.7-0.4c-0.5,0-1,0.1-1.5,0.4c-0.5,0.2-0.9,0.5-1.2,0.9v6.5
		H84.1z"/>
	<path class="st2" d="M99.4,71.6c0.7-1.3,1.7-2.3,3.1-3s3.1-1.1,5.3-1.1c2.1,0,3.8,0.4,5.2,1.1c1.4,0.7,2.4,1.7,3.1,3s1,2.8,1,4.6
		c0,1.8-0.3,3.3-1,4.6c-0.7,1.3-1.7,2.3-3.1,3s-3.1,1.1-5.2,1.1s-3.9-0.4-5.3-1.1s-2.4-1.7-3.1-3s-1-2.8-1-4.6S98.7,72.9,99.4,71.6z
		 M110,79.7c0.6-0.7,0.9-1.9,0.9-3.5c0-1.7-0.3-2.9-0.9-3.6s-1.3-1-2.3-1s-1.8,0.3-2.4,1s-0.9,1.9-0.9,3.6s0.3,2.8,0.9,3.5
		s1.4,1,2.4,1C108.6,80.7,109.4,80.4,110,79.7z"/>
	<path class="st2" d="M118.5,84l5.9-7.9l-5.8-7.7v-0.6h6.4l1.8,2.7c0.3,0.4,0.5,0.8,0.8,1.2c0.2,0.4,0.4,0.9,0.7,1.4h0.3
		c0.2-0.5,0.5-1,0.7-1.3c0.2-0.4,0.5-0.8,0.8-1.3l1.8-2.7h6.3v0.6l-5.8,7.6l5.9,8v0.5H132l-2-3.1c-0.3-0.5-0.6-0.9-0.8-1.2
		c-0.2-0.4-0.4-0.8-0.6-1.3h-0.3c-0.2,0.5-0.5,1-0.7,1.3c-0.2,0.4-0.4,0.8-0.7,1.2l-2,3.1h-6.3L118.5,84L118.5,84z"/>
	<path class="st2" d="M140.9,78.5h6.6v6h-6.6V78.5z"/>
</g>
</svg>
