<?xml version="1.0" encoding="utf-8"?>
<!-- Generator: Adobe Illustrator 26.2.1, SVG Export Plug-In . SVG Version: 6.00 Build 0)  -->
<svg version="1.1" id="Слой_1" xmlns="http://www.w3.org/2000/svg" xmlns:xlink="http://www.w3.org/1999/xlink" x="0px" y="0px"
	 viewBox="0 0 385 150" style="enable-background:new 0 0 385 150;" xml:space="preserve">
<style type="text/css">
	.st0{fill:#4254F4;}
	.st1{fill:#FFFFFF;}
	.st2{fill-rule:evenodd;clip-rule:evenodd;fill:#3349E6;}
</style>
<g>
	<path class="st0" d="M357.8,150H28.2C13,150,0.7,137.7,0.7,122.5V27.8C0.7,12.6,13,0.3,28.2,0.3h329.6c15.2,0,27.5,12.3,27.5,27.5
		v94.7C385.3,137.7,373,150,357.8,150z"/>
</g>
<path class="st1" d="M81.3,64.1h-6.7v23.6c0,3-1,4.2-2.5,4.2c-1.2,0-2.3-0.2-3.2-0.5L68.2,96c1.3,0.4,3,0.6,5.1,0.6
	c5.5,0,8-3.3,8-8.7L81.3,64.1L81.3,64.1z M74.6,60.5h6.7v-5.8h-6.7V60.5z"/>
<path class="st1" d="M90.2,72.1c0-0.4-0.1-0.8-0.1-1.1c0-1.9,1.3-2.9,4.2-2.9c2.8,0,4.1,1.4,4.1,3.4v1.8c-11.4,0.2-15.2,3-15.2,7.8
	c0,4.2,2.9,6.1,7.4,6.1c4.9,0,7.7-2.7,8.5-3.6h0.3c0.1,1.7,0.8,3.6,4.2,3.6c1.3,0,2.8-0.3,3.8-0.6l-0.3-4.5
	c-0.4,0.1-0.8,0.2-1.2,0.2c-0.6,0-1-0.4-1-1.3v-9.3c0-4.3-2.2-8.3-10.3-8.3c-7.2,0-10.5,2.8-10.5,7.2c0,0.5,0,1.2,0.1,1.7L90.2,72.1
	z M89.6,80.4c0-1.9,1.9-3.3,8.7-3.5v3.3c-1.3,1.5-3.5,2.5-5.6,2.5C90.7,82.8,89.6,82.1,89.6,80.4z"/>
<path class="st1" d="M107.3,75.6c0,7.5,4,11.8,12,11.8c9.6,0,10.5-5.7,10.5-8c0-0.3,0-0.7-0.1-1.2l-6.7-0.1c0.1,0.3,0.1,0.6,0.1,0.7
	c0,1.4-0.7,3.7-4.1,3.7s-5-2.5-5-7.1c0-5.4,1.9-7.1,5-7.1c3.3,0,4.1,2.4,4.1,3.7c0,0.2,0,0.5-0.1,0.8l6.7-0.1
	c0.1-0.5,0.1-0.8,0.1-1.2c0-2.5-1-8-10.5-8C110.9,63.7,107.3,69.1,107.3,75.6z"/>
<path class="st1" d="M131.8,86.9h6.7v-7.1c0.8-0.5,2.7-1.8,3.6-2.5c1,1.1,5.3,8.7,6.2,9.5h7.2V86c-1.3-1-7.3-10.9-8.5-12.3
	c2.2-1.9,5.6-5.3,8-8.9V64h-7.3c-2.2,3.6-6.1,7.2-9.3,9.3V53.4h-6.7v33.5H131.8z"/>
<path class="st1" d="M156.5,86.9h5l1-2.5h0.3c1.1,1.2,3.1,3,7.1,3c5.1,0,9.7-3.3,9.7-11.9c0-8.7-4.8-11.8-9.7-11.8
	c-3.2,0-5.3,1.3-6.4,2.6h-0.3V53.4h-6.7L156.5,86.9L156.5,86.9z M163.2,70.4c1-1.2,2.6-2,4.2-2c3,0,5.4,1.6,5.4,7.1
	s-2.2,7.1-5.4,7.1c-1.9,0-3.4-0.9-4.2-1.9V70.4z"/>
<path class="st1" d="M180.3,75.6c0,7.2,3.9,11.8,12,11.8c8,0,12-4.7,12-11.8c0-7.2-4-11.9-12-11.9C184.2,63.7,180.3,68.3,180.3,75.6
	z M192.3,82.6c-3.2,0-5.2-1.8-5.2-7.1c0-5.3,2-7.1,5.2-7.1c3.1,0,5.1,1.8,5.1,7.1C197.5,80.8,195.5,82.6,192.3,82.6z"/>
<path class="st1" d="M203.6,86.9h7.1l3.1-4.6c0.8-1.3,1.4-2.2,2.1-3.6h0.3c0.7,1.3,1.1,2,2,3.5l3.2,4.7h7.1v-0.6l-8.2-11l8-10.4
	v-0.7h-7.1l-2.9,4.2c-0.9,1.3-1.5,2.2-2.2,3.7h-0.3c-0.7-1.4-1.4-2.6-2.2-3.7l-2.8-4.1h-7.1V65l8,10.6l-8,10.9v0.4H203.6z"/>
<rect x="229.7" y="79.7" class="st1" width="7.7" height="7.2"/>
<path class="st1" d="M240.8,64.2h5l1,2.5h0.3c1.1-1.2,3-2.9,7.1-2.9c5.1,0,9.6,3.3,9.6,11.8c0,8.6-4.7,11.7-9.6,11.7
	c-3.1,0-5.3-1.3-6.4-2.6h-0.2V96H241V64.2H240.8z M247.4,80.5c1,1.2,2.6,2,4.2,2c2.9,0,5.3-1.5,5.3-6.9s-2.2-7.1-5.3-7.1
	c-1.9,0-3.4,0.9-4.2,2V80.5z"/>
<path class="st1" d="M272.6,86.8h-6.7V64.2h4.9l0.8,3.1h0.3c1.1-1.6,2.8-3.6,6.3-3.6c4.6,0,6.1,3.3,6.1,7c0,1.1-0.2,2.3-0.4,3.1
	l-5.7-0.3c0.1-0.7,0.2-1.4,0.2-1.9c0-2-0.9-3-2.4-3c-1.8,0-2.9,1.5-3.4,2.8L272.6,86.8L272.6,86.8z"/>
<path class="st1" d="M296.3,63.7c7.9,0,11.9,4.7,11.9,11.8s-4,11.7-11.9,11.7c-8,0-11.9-4.6-11.9-11.7S288.2,63.7,296.3,63.7z
	 M301.4,75.5c0-5.3-2-7.1-5.1-7.1c-3.2,0-5.2,1.8-5.2,7.1c0,5.2,2,7,5.2,7C299.3,82.5,301.4,80.7,301.4,75.5z"/>
<path class="st2" d="M133,127.7l-5.3-2.8l-1.8-15c-0.8-1.4-2-2.9-3.8-4.5c-3.5-3.2-7.7-5.3-12.6-6.2c-2-0.4-4.4-0.3-7.1,0.3
	l-0.2,2.4c-3.1-1-6-1.1-8.8-0.3c-2.8,0.8-5.4,2.8-7.8,5.8l7.8,5l-5.8,5.6l-6.3,27.5l6.4,4.6h37.5L133,127.7z"/>
<polygon class="st2" points="311.1,144.5 305.8,115.4 265,117.2 232.9,133 234.8,150 310.7,150 "/>
<path class="st2" d="M375.6,110.4c-0.5-3.1-1.4-5-2.7-5.7c-1.2-0.6-2.7-0.9-4.3-0.8l-1.9,0.3l5.9-26.3c-2.1-0.8-3.9-0.9-5.3-0.2
	l-1.5,1.3l-1.4,3.8l-3.3,0.1l-3,2.7l1.5,4.5l3.8,0.6l-0.3,2.5c-0.8,0.9-1.9,1.7-3,2.5c-2.4,1.6-4.5,2.4-6.3,2.2
	c-1.8-0.1-3.7-1.7-5.8-4.6c-1-1.5-1.8-2.9-2.5-4.3l2.1,0.1l4-1.8l0.5-2.5c0.2-1.8,0-3-0.6-3.6c-0.6-0.5-1.5-0.8-2.7-0.7l-1.6,0.2
	l-0.5-4l-1.4-1c-1.4-0.6-3.3-0.8-5.7-0.6c-2.4,0.2-3.8,1.1-4.3,2.6l0,2.2l-3.4,0.9l-2.4,3.3c1.5,3.7,2.7,5.7,3.7,5.9l2.7-0.1
	l1.6-0.4l-1.1,3l-1.9,3.1c-0.4,0.6-0.9,1.2-1.3,1.6l-1.9-1.7c-2.1,0.4-4.2,0.8-6.3,1.1l-0.5,1.6l-4.1-3.9l2.5-0.6
	c0.4-0.3,0.8-0.8,1.1-1.4c0.6-1.3,0.7-2.8,0.2-4.5c-0.5-1.7-1.7-2.5-3.5-2.5l-2.6,0.6l-1-2.2l-5-1.9l-3.7,1.5l11.9,30.1L309.8,150
	h54c3.8-1.3,7.2-3.3,10.1-6l2-27.2C376.1,114.9,376,112.7,375.6,110.4z"/>
<path class="st2" d="M22.9,150h38.2l0-1.1l6.2-9.4l4.3-6.4c2.8-4.6,4.2-7.6,4.2-9.3c0-1.6-0.8-2.6-2.4-2.9l-2.3,0.1l-8,1.1l-6.1,1.1
	c-4.2,0.7-6.6,1-7.3,0.9c-0.7-0.1-1.8-0.9-3.3-2.5l-2.1-2.3l-10.8-10.9l-3.8-1.9c-2.8-0.6-5.3-0.2-7.5,1.1c-2.2,1.3-3.5,3.3-4.1,6
	l-0.2,3.7l-1,11.3c-0.2,1.9-0.4,3.9-0.8,5.9l-7.8,6.5C12.2,145.5,17.2,148.6,22.9,150z"/>
</svg>
