<?xml version="1.0" encoding="utf-8"?>
<!-- Generator: Adobe Illustrator 26.2.1, SVG Export Plug-In . SVG Version: 6.00 Build 0)  -->
<svg version="1.1" id="Слой_1" xmlns="http://www.w3.org/2000/svg" xmlns:xlink="http://www.w3.org/1999/xlink" x="0px" y="0px"
	 viewBox="0 0 385 150" style="enable-background:new 0 0 385 150;" xml:space="preserve">
<style type="text/css">
	.st0{fill:#C1FF94;}
</style>
<g>
	<path class="st0" d="M357.8,150H28.2C13,150,0.7,137.7,0.7,122.5V27.8C0.7,12.6,13,0.3,28.2,0.3h329.6c15.2,0,27.5,12.3,27.5,27.5
		v94.7C385.3,137.7,373,150,357.8,150z"/>
</g>
<g>
	<path d="M91.5,35.5c0.1-0.5,0.1-0.9,0.2-1.3c0.1-0.3,0.2-0.6,0.3-0.9c0.1-0.2,0.2-0.4,0.3-0.6l2.4-2.9H83.5c-0.4,0-0.7-0.3-1-1
		c-0.1-0.3-0.2-0.4-0.3-0.5c-0.1-0.1-0.3-0.1-0.5-0.1c-0.6,0-1.2,0.4-1.8,1.3L75.8,34l-4.8-4.6H58.3l-4.5,6.3
		c-0.4,0.5-0.3,1,0.2,1.4c0.5,0.4,1,0.3,1.4-0.1c0.4-0.4,0.7-0.8,1.1-1c0.4-0.2,1-0.3,1.8-0.3h1.9c-2.4,1.8-4.4,3.8-6,6
		c-1.6,2.1-2.4,4.6-2.4,7.5c0,2.9,0.9,5.5,2.6,7.6c0.9,1,1.9,2,3.1,3s2.6,1.8,4.2,2.7l5.2-7.8c-1.8-0.4-3.4-1.3-4.8-2.6
		c-1.3-1.3-2.2-2.8-2.7-4.6c0-0.1-0.1-0.3-0.1-0.6c0-0.2-0.1-0.5-0.1-0.7c0-0.2-0.1-0.5-0.1-0.7c0-0.2,0-0.5,0-0.7
		c0-3.1,1.5-6,4.6-9h4.8l0,6.5h-2.7l-1.6,4.1h4.4v14.5h7.5V46.2h3l1.6-4.1h-4.7v-3.7l1.7-2.5h7.8l-1.8,2.8v19.5l5.8,4.5l4.9-6.1
		l-2.9-2.3v-17C91.4,36.6,91.5,36,91.5,35.5z"/>
	<path d="M110.2,37.1h-4.5c-1.2,0-2-0.2-2.3-0.7c-0.2-0.4-0.6-0.6-1-0.6s-0.8,0.1-1,0.4c-0.2,0.3-0.4,0.6-0.6,0.9l0,0l-1.4,2.5
		c-0.4,0.6-0.9,1.3-1.3,1.9c-0.5,0.7-1,1.5-1.5,2.4c-1,1.7-1.5,3.6-1.4,5.8c0.1,3.4,1.4,6.3,3.9,8.6c2.5,2.3,5.7,3.6,9.7,3.9
		c4.7-4.4,7.3-8.6,7.8-12.8C116.9,45.2,114.8,41.1,110.2,37.1z M110.9,55.3l-0.1,0.1l0-0.3c-1,0.2-2.3,0-3.7-0.6
		c-1.4-0.7-2.7-1.6-3.8-2.9c-1.2-1.2-2-2.7-2.6-4.3c-0.6-1.6-0.6-3.3,0-5.1h5.6c1.7,1.6,3,3.8,4,6.5
		C111.4,51.4,111.6,53.6,110.9,55.3z"/>
	<path d="M126.7,28.1l-8.9,6.2c2.7-0.1,4.8,0.2,6.3,0.8c1.5,0.6,2.8,1.5,3.7,2.5h-1.5c-1.1,0-1.8-0.2-2.1-0.7
		c-0.2-0.3-0.5-0.5-0.9-0.5c-0.4,0-0.7,0.1-0.9,0.4c-0.2,0.3-0.4,0.5-0.5,0.8l-1.3,2.3c-0.4,0.6-0.8,1.2-1.3,1.8
		c-0.4,0.6-0.9,1.4-1.4,2.2c-1,1.7-1.5,3.6-1.4,5.8c0.1,3.4,1.4,6.3,3.9,8.6c2.5,2.3,5.8,3.6,9.8,3.9c1.1-2,2.3-3.9,3.4-5.7
		c1.2-1.7,2.1-3.4,2.9-5c2.4-5.1,2.6-9.6,0.7-13.6C135.3,34,131.8,30.7,126.7,28.1z M130.5,54.5c-1,0.3-2.2,0-3.3-0.6
		c-1.2-0.7-2.2-1.6-3.1-2.8c-0.9-1.2-1.5-2.6-1.9-4.2c-0.4-1.5-0.4-3.1,0.1-4.6h4.7l1.9-3.3c0.3,0.5,0.8,1.2,1.3,2.1
		c1,1.6,1.6,3.8,2.1,6.4C132.6,50.2,132.1,52.5,130.5,54.5z"/>
	<polygon points="159.4,37.1 152.5,37.1 152.5,54 150.8,56.2 144.9,56.2 147.9,53 147.9,39 143.6,36.1 138.4,40.3 141.1,41.8 
		141.1,57.8 138.9,60.7 150,60.7 152.5,57.3 152.5,59.3 156.8,62.1 162,57.9 159.4,56.5 	"/>
	<path d="M196.9,43.6c-0.3-0.9-0.8-1.7-1.3-2.6c-0.5-0.8-1.2-1.5-1.9-2.3c-1.5-1.4-3.3-2.5-5.4-3.2l-5.1,5.2l0-7.2l-2.5-4.4
		c-0.1-0.1-0.1-0.2-0.2-0.4c-0.1-0.1-0.1-0.3-0.3-0.4c-0.1-0.1-0.2-0.2-0.3-0.3c-0.1-0.1-0.3-0.1-0.5-0.1c-0.4,0-0.7,0.2-0.9,0.5
		c-0.3,0.4-0.9,0.6-1.9,0.6h-6.9l2.5,4.4h6.8c0,1.4-0.3,2.4-0.8,3.1c-0.5,0.7-1.2,1.1-2.2,1c-1.2,0-2-0.3-2.3-0.8
		c-0.2-0.4-0.5-0.6-1-0.6c-0.2,0-0.4,0-0.6,0.1c-0.1,0.1-0.3,0.2-0.4,0.3c-0.1,0.1-0.2,0.3-0.3,0.4c-0.1,0.2-0.2,0.3-0.3,0.5
		l-0.1,0.1c-0.4,0.5-0.8,1.1-1.3,1.5c-0.4,0.5-0.8,0.9-1.3,1.3c-0.4,0.4-0.9,0.9-1.5,1.4c-0.5,0.5-1.1,1.1-1.8,1.7
		c-1.1,1.1-1.9,2.3-2.5,3.5c-0.5,1.2-0.7,2.5-0.7,3.9c0,0.6,0,1.2,0.1,1.8c0.1,0.6,0.3,1.2,0.5,1.8c0.3,0.9,0.8,1.7,1.3,2.5
		c0.5,0.8,1.2,1.6,1.9,2.3c1.6,1.4,3.4,2.5,5.4,3.2l4.7-4.9l0,12.5h7.1l0-9.6c0.5,0,1,0,1.3,0c0.4,0,0.7,0.1,0.9,0.1
		c0.2,0.1,0.3,0.2,0.4,0.3s0.1,0.2,0.2,0.3c0.2,0.4,0.6,0.6,1,0.6c0.2,0,0.4,0,0.6-0.1c0.2-0.1,0.3-0.2,0.4-0.3
		c0.1-0.1,0.2-0.3,0.3-0.4c0.1-0.1,0.2-0.3,0.3-0.5l0.1-0.1c0.4-0.5,0.8-1.1,1.3-1.5c0.4-0.5,0.9-0.9,1.3-1.3c0.5-0.4,1-0.9,1.5-1.4
		c0.5-0.5,1.1-1.1,1.8-1.7c1.2-1.1,2-2.3,2.5-3.5c0.5-1.2,0.8-2.5,0.8-3.9c0-0.6-0.1-1.2-0.2-1.8C197.2,44.8,197.1,44.2,196.9,43.6z
		 M175.5,53.9c-0.3,0.3-0.6,0.6-1,0.8c-0.3,0.3-0.5,0.4-0.6,0.4c-0.4,0-0.8-0.1-1.2-0.3c-0.4-0.2-0.9-0.4-1.3-0.8
		c-0.4-0.3-0.9-0.7-1.3-1.1c-0.4-0.4-0.8-0.9-1.1-1.4c-0.3-0.5-0.6-1-0.8-1.5c-0.2-0.5-0.3-1-0.3-1.5c0-0.8,0.1-1.7,0.4-2.7
		c0.3-1,0.8-2,1.5-3h6.1l0,10.7C175.8,53.7,175.7,53.8,175.5,53.9z M191.1,52.4c-0.3,1-0.8,2-1.5,3.1h-6.6l0-10.4
		c0.2-0.2,0.4-0.4,0.6-0.6c0.4-0.3,0.7-0.6,1.1-0.9c0.3-0.3,0.6-0.4,0.6-0.4c0.6-0.2,1.1-0.2,1.6,0c0.5,0.1,1,0.3,1.5,0.7
		c0.4,0.3,0.8,0.7,1.2,1.2c0.3,0.5,0.6,1,0.9,1.5c0.3,0.5,0.4,1.1,0.6,1.6c0.1,0.5,0.2,1.1,0.2,1.5
		C191.5,50.6,191.4,51.5,191.1,52.4z"/>
	<polygon points="218.6,37.1 211.8,37.1 211.8,54 210.1,56.2 204.2,56.2 207.2,53 207.2,39 202.8,36.1 197.7,40.3 200.3,41.8 
		200.3,57.8 198.1,60.7 209.2,60.7 211.8,57.3 211.8,59.3 216.1,62.1 221.3,57.9 218.6,56.5 	"/>
	<path d="M242.9,54.3c-0.9-1.3-2.1-2.9-3.4-4.9c-1-1.5-2.6-2.5-4.8-3.1c1.3-1,2.3-2.3,2.9-4h4.7l1.4-5.2h-2.3c-1.2,0-2-0.2-2.5-0.7
		c-0.3-0.4-0.8-0.6-1.2-0.6c-0.4,0-0.7,0.1-0.9,0.4c-0.1,0.3-0.2,0.6-0.3,0.9l-0.8,3.1c-0.7,2.3-2,4.2-3.8,5.7c-0.3,0-0.9,0-1.6,0
		v-7.3l-4.3-2.9l-5.2,4.2l2.6,1.5v19.4h6.8V50.2c1.8,0.6,3.1,2,3.7,4.3c1.5,5.2,4.1,7.7,7.8,7.7c0.3-1,0.8-2,1.4-3
		c0.6-1,1.5-1.9,2.7-2.9C244.9,56.2,243.8,55.6,242.9,54.3z"/>
	<path d="M266.6,41.1l2.3-4.1h-9.1c-1.2,0-2-0.2-2.3-0.7c-0.2-0.4-0.6-0.6-1-0.6c-0.5,0-0.8,0.1-1,0.4c-0.2,0.3-0.4,0.6-0.6,0.9
		c-0.9,1.2-1.8,2.3-2.7,3.2c-0.9,0.9-2.1,2-3.5,3.4c-1.7,1.7-2.7,3.5-3,5.4c-0.3,1.9-0.2,3.8,0.4,5.5c0.7,1.8,1.7,3.4,3.2,4.8
		c1.5,1.4,3.3,2.5,5.4,3.2l5.1-5.8v2.4l4.8,3l4.2-4.8l-2.3-1.6L266.6,41.1z M259.8,45l0,8.1l-1.2,1.4c-0.4,0.5-1.1,0.6-1.9,0.3
		c-0.8-0.3-1.6-0.7-2.3-1.4c-0.8-0.7-1.5-1.4-2-2.3c-0.6-0.9-0.9-1.8-0.9-2.6c0-0.9,0.1-1.9,0.4-2.9c0.3-1,0.9-2.1,1.7-3.3h8.1
		L259.8,45z"/>
	<path d="M314.2,37.1h-6.8v17l-1.7,2.1h-5.9l3-3.2V39l-4.3-2.9l-5.2,4.2l2.6,1.5v16l-1.2,1.6l-5-2.9V37.1h-6.8v17l-1.7,2.1h-5.9
		l2.9-3.2V39l-4.3-2.9l-5.2,4.2l2.6,1.5v16l-2.2,2.9h11.1l2.6-3.5v2l4.3,2.9l3.8-3c-0.3,1.8-0.9,3.3-1.7,4.4c-0.8,1.2-1.7,2-2.8,2.5
		c-1.1,0.5-2.2,0.8-3.5,0.7c-1.3-0.1-2.5-0.4-3.8-1c-0.5-0.2-0.8-0.4-1-0.4c-0.2,0-0.3,0-0.2,0.2c0.1,0.1,0.3,0.4,0.6,0.7
		c0.4,0.3,0.9,0.8,1.4,1.2c1.2,0.7,2.4,1.2,3.7,1.6c1.3,0.4,2.5,0.6,3.7,0.7c1.2,0,2.3-0.1,3.3-0.5c1-0.3,1.9-0.9,2.6-1.7
		c0.7-0.8,1.3-1.9,1.6-3.2c0.3-1,0.4-2.3,0.4-3.7h9.5l2.6-3.5v2l4.3,2.9l5.2-4.2l-2.6-1.5V37.1z"/>
	<polygon points="337.7,56.5 337.7,37.1 330.8,37.1 330.8,54 329.2,56.2 323.2,56.2 326.2,53 326.2,39 321.9,36.1 316.7,40.3 
		319.4,41.8 319.4,57.8 317.2,60.7 328.3,60.7 330.8,57.3 330.8,59.3 335.1,62.1 340.3,57.9 	"/>
</g>
<g>
	<path d="M137.3,93.8c-2.3-2.6-5.6-4.7-9.8-6.1l-5.9,6.9c-0.5-2.3-1.1-4.1-1.9-5.4h-10.6c2,1.6,3.4,3.8,4.2,6.5s1.2,5.2,1.2,7.5
		v11.7l-6.1,5.9h6.1v8.3h8v-8.3h9.8c2.5-3.3,4.6-6.1,6.1-8.5c1.6-2.4,2.4-5.6,2.4-9.7C140.8,99.3,139.7,96.4,137.3,93.8z
		 M131.7,114.5h-9.3v-11.3c0-1.7-0.1-3.3-0.2-4.8l1.6-2.3c2.9,0.9,5.3,2.3,7.2,4.2c1.9,1.9,2.9,4.2,2.9,6.8
		C134,110.4,133.2,112.9,131.7,114.5z"/>
	<path d="M161.1,115.7l0-14.6l2.3-4.1h-9.1c-1.2,0-2-0.2-2.3-0.7c-0.2-0.4-0.6-0.6-1-0.6c-0.5,0-0.8,0.1-1,0.4
		c-0.2,0.3-0.4,0.6-0.6,0.9c-0.9,1.2-1.8,2.3-2.7,3.2c-0.9,0.9-2.1,2-3.5,3.4c-1.7,1.7-2.7,3.5-3,5.4c-0.3,1.9-0.2,3.8,0.4,5.5
		c0.7,1.8,1.7,3.4,3.2,4.8c1.5,1.4,3.3,2.5,5.4,3.2l5.1-5.8v2.4l4.8,3l4.2-4.8L161.1,115.7z M154.2,105l0,8.1l-1.2,1.4
		c-0.4,0.5-1.1,0.6-1.9,0.3c-0.8-0.3-1.6-0.7-2.3-1.4c-0.8-0.7-1.5-1.4-2-2.3c-0.6-0.9-0.9-1.8-0.9-2.6c0-0.9,0.1-1.9,0.4-2.9
		c0.3-1,0.9-2.1,1.7-3.3h8.1L154.2,105z"/>
	<path d="M184.8,104.9c-1.6-3.7-4.3-6.3-8.1-7.9l-4.8,5.5v-7.8h7.8l5.3-6.3h-8.5c-0.4,0-0.7-0.3-0.8-1c0-0.2-0.1-0.4-0.2-0.5
		c-0.1-0.1-0.3-0.1-0.5-0.1c-0.2,0-0.5,0.2-1,0.5c-0.5,0.3-1,0.8-1.6,1.2c-0.6,0.5-1.3,1-2,1.6c-0.7,0.6-1.4,1.1-2.1,1.6
		c-0.7,0.5-1.3,1-1.9,1.3c-0.6,0.4-1.1,0.6-1.6,0.7l0.1,22.8l-3.3,4.1h16.8c0.8-1.1,1.6-2.2,2.3-3.5c0.4-0.6,0.8-1.2,1.3-1.9
		c0.5-0.7,1.1-1.4,1.7-2.1c0.7-0.9,1.2-1.6,1.6-2.3c0.3-0.7,0.5-1.3,0.5-1.7c0-0.7-0.1-1.4-0.3-2.1
		C185.4,106.4,185.1,105.7,184.8,104.9z M179.1,113.6c-0.2,0.6-0.4,1.2-0.8,1.7h-8.7l2.5-3.6l0-5.9l1.1-1.2c0.2-0.3,0.5-0.4,0.8-0.4
		c0.3,0,0.7,0.1,1,0.3c0.4,0.2,0.8,0.5,1.1,1c0.4,0.4,0.8,0.9,1.2,1.4c0.4,0.5,0.7,1.1,1,1.6c0.3,0.6,0.6,1.2,0.8,1.7
		c0.2,0.6,0.3,1.1,0.4,1.6C179.4,112.5,179.3,113.1,179.1,113.6z"/>
	<path d="M201.3,97.1h-4.5c-1.2,0-2-0.2-2.3-0.7c-0.2-0.4-0.6-0.6-1-0.6s-0.8,0.1-1,0.4c-0.2,0.3-0.4,0.6-0.6,0.9l0,0l-1.4,2.5
		c-0.4,0.6-0.9,1.3-1.3,1.9c-0.5,0.7-1,1.5-1.5,2.4c-1,1.7-1.5,3.6-1.4,5.8c0.1,3.4,1.4,6.3,3.9,8.6c2.5,2.3,5.7,3.6,9.7,3.9
		c4.7-4.4,7.3-8.6,7.8-12.8C208,105.2,205.9,101.1,201.3,97.1z M202,115.3l-0.1,0.1l0-0.3c-1,0.2-2.3,0-3.7-0.6
		c-1.4-0.7-2.7-1.6-3.8-2.9c-1.2-1.2-2-2.7-2.6-4.3c-0.6-1.6-0.6-3.3,0-5.1h5.6c1.7,1.6,3,3.8,4,6.5
		C202.5,111.4,202.7,113.6,202,115.3z"/>
	<path d="M240.1,101.7l2.6-4.7h-5.5c-1.2,0-2-0.2-2.3-0.7c-0.2-0.4-0.5-0.6-1-0.6s-0.8,0.1-1,0.4c-0.2,0.3-0.4,0.6-0.6,0.9
		c-0.5,1-1.1,1.8-1.6,2.3c-0.5,0.5-1.3,1.1-2.3,1.7v-1.6l-4.3-2.9l-7.6,5.2v-2.3l-4.3-2.9l-5.2,4.2l2.6,1.5v18.5h6.8v-15.8l4.4-3
		l0.6,0.3v18.5h6.9v-16.6l2.7-1.9h4.9l-2.9,3v14l4.3,2.9l5.2-4.2l-2.6-1.5V101.7z"/>
	<polygon points="270.6,95.5 265.5,99.7 268.1,101.2 268.1,120.8 275,120.8 275,98.4 	"/>
	<path d="M263.1,105.2c-1-0.7-2-1.2-3.2-1.6c-1.2-0.5-2.4-0.9-3.7-1.2l-4.6,3.5l0-7.5l-4.3-2.9l-5.2,4.2l2.7,1.6v19.5l13.8,0
		c0.5-0.6,1.1-1.2,1.7-1.7c0.6-0.5,1.2-1,1.8-1.4c0.6-0.5,1.1-0.9,1.7-1.3c0.5-0.4,1-0.9,1.4-1.4c0.4-0.5,0.7-1.1,1-1.7
		c0.2-0.6,0.3-1.4,0.3-2.2c0-1.3-0.3-2.5-0.9-3.4C264.8,106.7,264.1,105.9,263.1,105.2z M259.5,114.6c-0.3,0.7-0.8,1.4-1.5,2.1h-6.5
		v-7.8l2-1.3c0.9,0.1,1.7,0.2,2.5,0.5c0.8,0.3,1.4,0.6,2,1.1c0.6,0.5,1,1,1.3,1.6c0.3,0.6,0.5,1.2,0.6,1.9
		C260,113.2,259.8,113.9,259.5,114.6z"/>
</g>
<rect x="28" y="78" width="327" height="2"/>
</svg>
