<?xml version="1.0" encoding="utf-8"?>
<!-- Generator: Adobe Illustrator 26.2.1, SVG Export Plug-In . SVG Version: 6.00 Build 0)  -->
<svg version="1.1" id="Слой_1" xmlns="http://www.w3.org/2000/svg" xmlns:xlink="http://www.w3.org/1999/xlink" x="0px" y="0px"
	 viewBox="0 0 385 150" style="enable-background:new 0 0 385 150;" xml:space="preserve">
<style type="text/css">
	.st0{fill:#FFFFFF;}
</style>
<g>
	<path class="st0" d="M293,0.3H28.2C13,0.3,0.7,12.6,0.7,27.8V94H293V0.3z"/>
</g>
<g>
	<path class="st0" d="M357.8,0.3H320V118H0.7v4.5C0.7,137.7,13,150,28.2,150h329.6c15.2,0,27.5-12.3,27.5-27.5V27.8
		C385.3,12.6,373,0.3,357.8,0.3z"/>
</g>
<g>
	<path d="M28.5,48.9c-0.1,0.3-0.1,0.6-0.2,0.8c0,0.3,0,0.5,0,0.7c0,0.8,0.2,1.5,0.6,2s1.1,0.7,2.1,0.7s1.7-0.3,2.3-0.9
		c0.5-0.6,0.8-1.6,0.8-3V33.8h6.4v15.7c0,2.9-0.7,5.2-2.3,6.6c-1.5,1.5-3.9,2.3-7.1,2.3c-2.1,0-3.9-0.4-5.2-1.1
		c-1.3-0.7-2.3-1.6-2.9-2.8s-0.9-2.5-0.9-4c0-0.3,0-0.5,0.1-0.9c0-0.3,0.1-0.6,0.2-0.9L28.5,48.9z"/>
	<path d="M42.9,47.1c0-0.2-0.1-0.4-0.1-0.6c0-0.2,0-0.4,0-0.7c0-1.7,0.7-3,2.1-4c1.4-1,3.5-1.5,6.5-1.5c2.2,0,3.9,0.3,5.1,0.9
		c1.2,0.6,2.1,1.4,2.5,2.3c0.5,1,0.7,2,0.7,3.2v6c0,0.4,0.1,0.7,0.2,0.9c0.1,0.2,0.3,0.3,0.5,0.3c0.3,0,0.6,0,0.9-0.1l0.2,3.9
		c-0.5,0.2-1,0.3-1.6,0.4c-0.6,0.1-1.2,0.1-1.7,0.1c-1,0-1.7-0.2-2.2-0.4c-0.5-0.3-0.8-0.6-1-1s-0.3-0.8-0.3-1.2h-0.2
		c-0.3,0.4-0.7,0.8-1.3,1.2c-0.5,0.4-1.3,0.8-2.1,1.1c-0.9,0.3-1.9,0.5-3.1,0.5c-1.8,0-3.2-0.4-4.3-1.2s-1.6-1.9-1.6-3.4
		c0-1.2,0.3-2.2,1-3s1.9-1.5,3.6-2c1.7-0.5,4-0.8,7-0.9v-1.2c0-0.7-0.2-1.2-0.7-1.6c-0.4-0.4-1.1-0.6-2-0.6s-1.6,0.1-2.1,0.4
		c-0.4,0.3-0.7,0.8-0.7,1.4c0,0.1,0,0.2,0,0.3s0,0.2,0,0.4L42.9,47.1z M48.4,54c0.3,0.3,0.9,0.4,1.5,0.4c0.7,0,1.4-0.1,2-0.4
		c0.6-0.3,1.2-0.7,1.6-1.2v-2.4c-1.5,0.1-2.7,0.2-3.5,0.4s-1.4,0.5-1.7,0.9c-0.3,0.3-0.5,0.7-0.5,1.1C47.9,53.4,48.1,53.8,48.4,54z"
		/>
	<path d="M62.3,44.9c0.7-1.3,1.7-2.4,3.2-3.3c1.4-0.8,3.3-1.2,5.6-1.2c1.9,0,3.4,0.3,4.6,0.7c1.1,0.4,2,1,2.5,1.7
		c0.6,0.7,0.9,1.3,1.1,2s0.3,1.3,0.2,1.8c0,0.2,0,0.3,0,0.5s-0.1,0.4-0.1,0.6l-6.1,0.1c0-0.1,0-0.2,0-0.3s0-0.2,0-0.2
		c0-0.3,0-0.7-0.2-1.1c-0.2-0.4-0.4-0.7-0.8-1s-0.9-0.4-1.6-0.4c-0.6,0-1.2,0.1-1.6,0.4c-0.5,0.3-0.8,0.8-1.1,1.4
		c-0.3,0.7-0.4,1.6-0.4,2.8c0,1.5,0.3,2.7,0.8,3.5s1.3,1.2,2.3,1.2c0.7,0,1.2-0.2,1.6-0.4c0.4-0.3,0.6-0.6,0.8-1
		c0.1-0.4,0.2-0.7,0.2-1.1c0-0.1,0-0.2,0-0.3s0-0.1,0-0.2h6.1c0,0.2,0.1,0.4,0.1,0.6c0,0.2,0,0.4,0,0.5c0,0.5-0.1,1.1-0.2,1.7
		c-0.2,0.7-0.5,1.3-1.1,2c-0.5,0.7-1.4,1.2-2.5,1.7s-2.7,0.7-4.6,0.7c-3.2,0-5.7-0.8-7.3-2.4c-1.6-1.5-2.4-3.7-2.4-6.6
		C61.3,47.7,61.7,46.3,62.3,44.9z"/>
	<path d="M80.9,32.7h6.2v14.7c1.1-0.7,2.2-1.7,3.4-2.8c1.1-1.1,2-2.4,2.7-3.8h6.7v0.7c-0.5,0.9-1.1,1.9-1.8,2.7
		c-0.7,0.9-1.4,1.7-2.1,2.4s-1.3,1.3-1.9,1.9c0.2,0.2,0.5,0.7,1,1.3c0.4,0.6,0.9,1.3,1.4,2.1s1.1,1.5,1.6,2.3s1,1.5,1.4,2
		c0.4,0.6,0.7,0.9,0.9,1.1V58h-6.6c-0.2-0.2-0.5-0.6-0.9-1.2c-0.4-0.6-0.8-1.2-1.2-2c-0.5-0.7-0.9-1.4-1.2-2c-0.4-0.6-0.7-1-0.9-1.3
		c-0.3,0.2-0.7,0.5-1.2,0.8s-0.9,0.5-1.2,0.7v5H81V32.7H80.9z"/>
	<path d="M100.9,32.7h6.2v9.7h0.2c0.4-0.5,1-1,1.8-1.4s1.8-0.6,2.9-0.6c1.2,0,2.4,0.2,3.6,0.8c1.1,0.6,2.1,1.5,2.8,2.8
		c0.8,1.3,1.1,3.1,1.2,5.3c0,2.2-0.4,4-1.1,5.3s-1.7,2.3-2.8,2.8c-1.1,0.6-2.4,0.9-3.6,0.9c-1,0-1.9-0.2-2.6-0.4
		c-0.7-0.3-1.3-0.6-1.8-1s-0.8-0.7-1.1-1h-0.2l-0.8,2h-4.7V32.7z M107.1,52.7c0.3,0.4,0.7,0.7,1.1,0.9c0.5,0.3,1,0.4,1.6,0.4
		s1.2-0.1,1.7-0.4c0.5-0.3,1-0.8,1.3-1.5s0.5-1.6,0.5-2.8s-0.2-2.1-0.5-2.8s-0.8-1.2-1.3-1.4c-0.5-0.3-1.1-0.4-1.7-0.4
		c-0.5,0-1,0.1-1.5,0.4c-0.5,0.2-0.9,0.5-1.2,1V52.7z"/>
	<path d="M121.1,44.7c0.7-1.3,1.7-2.4,3.2-3.1c1.4-0.8,3.2-1.1,5.4-1.1c2.1,0,3.9,0.4,5.3,1.1c1.4,0.8,2.5,1.8,3.2,3.1s1,2.9,1,4.7
		s-0.3,3.4-1,4.7s-1.8,2.4-3.2,3.1c-1.4,0.7-3.2,1.1-5.3,1.1c-2.2,0-4-0.4-5.4-1.1c-1.4-0.8-2.5-1.8-3.2-3.1s-1-2.9-1-4.7
		C120,47.6,120.4,46,121.1,44.7z M132,53c0.6-0.7,0.9-1.9,0.9-3.6c0-1.7-0.3-3-0.9-3.7c-0.6-0.7-1.4-1-2.3-1c-1,0-1.8,0.3-2.4,1
		s-0.9,1.9-0.9,3.7c0,1.7,0.3,2.9,0.9,3.6c0.6,0.7,1.4,1.1,2.4,1C130.6,54.1,131.4,53.7,132,53z"/>
	<path d="M139,57.4l6.1-8.1l-5.9-7.9v-0.6h6.5l1.8,2.8c0.3,0.4,0.6,0.8,0.8,1.3c0.2,0.4,0.5,0.9,0.7,1.4h0.3c0.3-0.5,0.5-1,0.7-1.4
		s0.5-0.8,0.8-1.3l1.8-2.8h6.5v0.6l-6,7.8l6.1,8.3V58h-6.5l-2.1-3.2c-0.3-0.5-0.6-0.9-0.8-1.3c-0.2-0.4-0.4-0.8-0.7-1.3H149
		c-0.3,0.5-0.5,1-0.7,1.4s-0.5,0.8-0.8,1.2l-2,3.2H139V57.4z"/>
	<path d="M167.7,40.4c-1,1.3-1.6,3.1-1.6,5.4c0,2.3,0.5,4.1,1.6,5.4c1,1.3,2.4,1.9,4.2,1.9c1.2,0,2.1-0.2,2.9-0.7
		c0.7-0.4,1.3-1,1.6-1.7s0.5-1.5,0.5-2.3c0-0.1,0-0.1,0-0.2c0-0.1,0-0.1,0-0.2l6.6,0.1c0,0.2,0,0.3,0,0.5s0,0.3,0.1,0.5
		c0,2.1-0.5,3.8-1.5,5.2c-1,1.3-2.4,2.3-4.1,3c-1.7,0.6-3.7,1-5.9,1c-2.6,0-4.8-0.5-6.7-1.4s-3.4-2.3-4.4-4.2s-1.6-4.1-1.6-6.9
		c0-2.7,0.6-5,1.6-6.9s2.5-3.2,4.4-4.2s4.2-1.4,6.7-1.4c2.4,0,4.4,0.3,6,0.9c1.5,0.6,2.7,1.3,3.5,2.2s1.4,1.8,1.7,2.8
		s0.4,1.9,0.4,2.8c0,0.3,0,0.5-0.1,0.8c0,0.2,0,0.4-0.1,0.6l-6.6,0.1v-0.1c0-0.1,0-0.2,0-0.2c0-1.4-0.4-2.5-1.2-3.4
		c-0.8-0.8-2.1-1.2-3.8-1.3C170.2,38.5,168.8,39.2,167.7,40.4z"/>
	<path d="M185.3,32.7h6.2V58h-6.2V32.7z"/>
	<path d="M193.9,33.6h6.2v4.7h-6.2V33.6z M193.9,40.8h6.2V58h-6.2V40.8z"/>
	<path d="M202.5,44.8c0.7-1.3,1.7-2.4,3.1-3.2c1.4-0.8,3.3-1.2,5.5-1.2c1.9,0,3.5,0.3,4.8,0.9c1.3,0.6,2.3,1.4,2.9,2.4
		c0.7,1,1,2.2,1,3.5c0,0.4,0,0.9-0.1,1.4c0,0.5-0.1,1-0.2,1.4h-12.2c0,1.5,0.4,2.6,1,3.2c0.6,0.7,1.5,1,2.6,1s1.8-0.2,2.3-0.6
		c0.5-0.4,0.7-0.8,0.7-1.3v-0.1c0,0,0-0.1,0-0.2l5.7,0.1c0,0.1,0,0.2,0.1,0.4s0,0.3,0,0.4c0,0.5-0.1,1.1-0.3,1.8
		c-0.2,0.6-0.7,1.2-1.3,1.8s-1.5,1-2.7,1.4c-1.1,0.4-2.6,0.6-4.5,0.6c-3.2,0-5.5-0.8-7.1-2.4c-1.6-1.5-2.4-3.7-2.4-6.6
		C201.5,47.7,201.8,46.2,202.5,44.8z M214.2,47.1c0-0.1,0-0.1,0-0.2c0-0.1,0-0.1,0-0.2c0-0.9-0.3-1.5-0.9-2
		c-0.6-0.5-1.3-0.7-2.3-0.7s-1.8,0.3-2.4,0.8c-0.6,0.5-1,1.3-1.1,2.3C207.5,47.1,214.2,47.1,214.2,47.1z"/>
	<path d="M221.2,40.8h4.6l0.7,2.6h0.2c0.3-0.5,0.7-0.9,1.2-1.4s1.1-0.8,1.8-1.1s1.5-0.4,2.5-0.4c1.3,0,2.5,0.2,3.5,0.7
		s1.7,1.2,2.3,2.2s0.8,2.4,0.9,4V58h-6.2V47.8c0-1.1-0.2-2-0.6-2.4c-0.4-0.5-1-0.7-1.8-0.7c-0.7,0-1.2,0.1-1.7,0.4
		c-0.5,0.3-0.8,0.7-1.1,1.1V58h-6.2L221.2,40.8L221.2,40.8z"/>
	<path d="M242.4,44.4h-3.1v-3.7h3.6l0.8-3.9h4.9v3.9h5.7v3.7h-5.7v7.1c0,0.7,0.1,1.3,0.4,1.6c0.3,0.3,0.9,0.5,1.7,0.5
		c0.5,0,1-0.1,1.6-0.2c0.5-0.1,1.1-0.3,1.7-0.6l0.3,4.7c-0.8,0.2-1.7,0.4-2.7,0.5c-1,0.2-2,0.2-3,0.2c-2.2,0-3.8-0.5-4.8-1.4
		s-1.5-2.4-1.5-4.4v-8H242.4z"/>
	<path d="M260.2,52.3c0,0.1,0,0.2,0,0.3s0,0.1,0,0.2c0,0.3,0.1,0.6,0.2,0.9c0.2,0.3,0.5,0.5,0.9,0.7s1.1,0.3,2,0.3
		c0.8,0,1.5-0.1,1.9-0.4c0.4-0.3,0.6-0.6,0.6-1.1c0-0.4-0.2-0.8-0.7-1c-0.4-0.2-0.9-0.4-1.6-0.5l-2.5-0.5c-2.2-0.5-3.7-1.1-4.7-2
		c-1-0.8-1.4-2-1.4-3.5c0-1.6,0.7-2.9,2.2-3.9c1.5-1,3.5-1.4,6.3-1.4c1.7,0,3.1,0.2,4.2,0.5c1,0.3,1.9,0.7,2.4,1.3
		c0.6,0.5,1,1,1.2,1.6s0.3,1.1,0.3,1.6c0,0.1,0,0.3,0,0.4c0,0.2,0,0.3-0.1,0.4l-5.3,0.1c0-0.1,0-0.2,0-0.3c0,0,0-0.1,0-0.2
		c0-0.4-0.2-0.8-0.6-1.2s-1.1-0.6-2.3-0.6c-0.8,0-1.5,0.1-1.8,0.4c-0.4,0.3-0.6,0.6-0.6,1c0,0.5,0.3,0.9,0.8,1.1
		c0.5,0.2,1.1,0.4,1.7,0.4l2.8,0.6c1.5,0.3,2.6,0.7,3.5,1.2c0.8,0.5,1.5,1.1,1.8,1.8s0.5,1.5,0.5,2.4c0,1-0.3,1.9-0.9,2.7
		s-1.6,1.5-2.8,1.9c-1.3,0.5-2.9,0.7-4.8,0.8c-1.8,0-3.3-0.2-4.5-0.5c-1.2-0.4-2-0.8-2.6-1.4c-0.6-0.5-1-1.1-1.3-1.7
		c-0.2-0.6-0.3-1.1-0.3-1.6c0-0.1,0-0.2,0-0.4c0-0.1,0-0.2,0-0.3L260.2,52.3z"/>
</g>
<g>
	<polygon class="st0" points="306,0.3 297,0.3 297,98 0.7,98 0.7,105 306,105 	"/>
</g>
<g>
	<polygon class="st0" points="316,114 316,2 315.3,0.3 310,0.3 310,109 0.7,109 0.7,114 	"/>
</g>
<g>
	<path d="M331.4,57.4l5.7-7.7l-5.6-7.5v-0.6h6.2l1.7,2.6c0.3,0.4,0.5,0.8,0.7,1.2s0.4,0.9,0.6,1.4h0.3c0.2-0.5,0.5-0.9,0.7-1.3
		c0.2-0.3,0.5-0.8,0.8-1.2l1.7-2.7h6.1v0.6l-5.6,7.3l5.8,7.8v0.5h-6.1l-1.9-3c-0.3-0.5-0.6-0.9-0.7-1.2c-0.2-0.3-0.4-0.8-0.6-1.2
		h-0.3c-0.2,0.5-0.5,0.9-0.6,1.3s-0.4,0.8-0.7,1.2l-1.9,3h-6.1v-0.5H331.4z"/>
	<path d="M360.8,58.3c-2,0-3.7-0.3-5.3-0.8c-1.5-0.5-2.7-1.2-3.6-2.2s-1.3-2.2-1.4-3.7c0-1.2,0.3-2.2,0.8-3s1.1-1.4,1.9-1.8
		c0.7-0.4,1.4-0.7,2-0.7v-0.3c-0.5-0.1-1.1-0.3-1.7-0.6s-1.1-0.9-1.5-1.6c-0.4-0.7-0.6-1.6-0.6-2.6c0-1.4,0.4-2.6,1.2-3.5
		c0.8-0.9,1.9-1.6,3.3-2.1s3-0.7,4.9-0.7s3.5,0.2,4.9,0.7s2.5,1.1,3.3,2.1c0.8,0.9,1.2,2.1,1.2,3.5c0,1.1-0.2,1.9-0.6,2.6
		c-0.4,0.7-0.9,1.2-1.6,1.6c-0.6,0.3-1.1,0.6-1.7,0.6v0.3c0.6,0.1,1.3,0.3,2.1,0.7c0.7,0.4,1.3,1,1.9,1.8c0.5,0.8,0.8,1.8,0.8,3
		c0,1.4-0.5,2.7-1.3,3.7c-0.9,1-2.1,1.7-3.6,2.2C364.5,58,362.8,58.3,360.8,58.3L360.8,58.3z M363.6,53.1c0.7-0.5,1-1.2,1-2
		c0-0.9-0.3-1.6-1-2.1c-0.6-0.5-1.6-0.7-2.8-0.7c-1.3,0-2.3,0.3-2.9,0.7c-0.6,0.5-1,1.2-1,2.1c0,0.8,0.3,1.5,1,2s1.6,0.8,2.8,0.8
		C362,53.8,362.9,53.5,363.6,53.1z M363.2,43.3c0.6-0.4,0.8-1,0.8-1.7c0-0.8-0.3-1.3-0.8-1.8c-0.6-0.4-1.4-0.6-2.4-0.6
		c-1.1,0-1.9,0.2-2.5,0.6c-0.6,0.4-0.9,1-0.9,1.8s0.3,1.3,0.9,1.7s1.4,0.6,2.5,0.6C361.9,44,362.7,43.8,363.2,43.3z"/>
</g>
</svg>
