<?xml version="1.0" encoding="UTF-8" standalone="no"?>
<svg xmlns:xlink="http://www.w3.org/1999/xlink" height="522.75px" width="491.9px" xmlns="http://www.w3.org/2000/svg">
  <g transform="matrix(1.0, 0.0, 0.0, 1.0, 230.7, 168.35)">
    <use height="106.95" id="logo" transform="matrix(0.92, 0.0, 0.0, 0.92, -156.5205, 241.6957)" width="338.45" xlink:href="#sprite0"/>
    <use height="319.9" transform="matrix(0.8474, 0.0, 0.0, 0.8491, -141.7169, -82.5276)" width="342.6" xlink:href="#sprite10"/>
    <use height="387.45" id="drawing" transform="matrix(0.9, 0.0, 0.0, 0.9, -174.1588, -128.3191)" width="441.05" xlink:href="#sprite11"/>
  </g>
  <defs>
    <g id="sprite0" transform="matrix(1.0, 0.0, 0.0, 1.0, 169.05, 53.05)">
      <use height="101.6" transform="matrix(0.65, 0.0, 0.0, 0.65, -169.0544, -53.0289)" width="520.7" xlink:href="#sprite1"/>
      <use height="57.05" transform="matrix(0.65, 0.0, 0.0, 0.65, -104.154, 16.8156)" width="319.65" xlink:href="#sprite2"/>
    </g>
    <g id="sprite1" transform="matrix(1.0, 0.0, 0.0, 1.0, 260.4, 51.2)">
      <use height="100.6" transform="matrix(1.0, 0.0, 0.0, 1.0, -260.4, -50.2)" width="520.2" xlink:href="#shape0"/>
    </g>
    <g id="shape0" transform="matrix(1.0, 0.0, 0.0, 1.0, 260.4, 50.2)">
      <path d="M-125.2 18.3 L-106.9 -39.7 Q-106.45 -40.9 -106.0 -41.9 -105.5 -42.95 -104.95 -43.85 -104.4 -44.7 -103.8 -45.45 -103.2 -46.2 -102.55 -46.75 -101.9 -47.35 -101.15 -47.8 -100.45 -48.25 -99.65 -48.55 -98.9 -48.85 -98.05 -49.0 -97.2 -49.2 -96.3 -49.2 -95.65 -49.2 -95.05 -49.2 -94.4 -49.2 -93.8 -49.2 -93.2 -49.2 -92.55 -49.15 -91.95 -49.1 -91.35 -49.05 -90.75 -49.05 -90.2 -48.95 -89.6 -48.9 -89.05 -48.85 -88.45 -48.75 -87.9 -48.7 -87.35 -48.6 -86.8 -48.5 -84.1 -48.1 -82.4 -48.0 -80.9 -47.9 -78.6 -47.9 -78.0 -47.9 -77.4 -47.95 -76.85 -47.95 -76.25 -48.0 -75.7 -48.05 -75.15 -48.1 -74.6 -48.15 -74.1 -48.2 -73.55 -48.25 -73.05 -48.3 -72.55 -48.4 -72.05 -48.45 -71.55 -48.55 -71.05 -48.6 -70.55 -48.7 -70.1 -48.8 -69.4 -48.95 -68.15 -49.2 -67.05 -49.4 -66.6 -49.5 -65.6 -49.75 -62.3 -49.9 -60.9 -49.95 -59.65 -49.85 -58.45 -49.7 -57.35 -49.45 -56.3 -49.2 -55.4 -48.85 -54.55 -48.45 -53.8 -47.9 -53.1 -47.35 -52.55 -46.7 -52.05 -46.0 -51.65 -45.2 -51.3 -44.4 -51.1 -43.45 -50.9 -42.5 -50.9 -41.4 -50.9 -40.35 -51.0 -39.45 -51.1 -38.5 -51.35 -37.7 -51.65 -36.95 -52.0 -36.25 -52.4 -35.6 -52.95 -35.05 -53.5 -34.55 -54.15 -34.15 -54.85 -33.7 -55.65 -33.45 -56.45 -33.15 -57.45 -33.0 -58.4 -32.85 -59.5 -32.8 -60.8 -32.8 -61.6 -32.9 -62.3 -32.9 -63.9 -33.1 -64.05 -33.1 -64.2 -33.15 -64.35 -33.15 -64.5 -33.15 -64.7 -33.2 -64.85 -33.2 -65.0 -33.2 -65.2 -33.25 -65.35 -33.25 -65.55 -33.25 -65.75 -33.25 -65.9 -33.3 -66.1 -33.3 -66.3 -33.3 -66.5 -33.3 -66.7 -33.3 -66.9 -33.3 -67.1 -33.3 -67.25 -33.3 -67.4 -33.3 -67.55 -33.35 -67.7 -33.35 -67.8 -33.35 -67.9 -33.35 -68.0 -33.4 -68.05 -33.4 -68.1 -33.45 -68.1 -33.45 -68.15 -33.5 -68.15 -33.55 -68.15 -33.55 -68.1 -33.6 -68.75 -33.5 -69.35 -33.25 -69.9 -33.0 -70.4 -32.6 -70.9 -32.25 -71.3 -31.7 -71.7 -31.15 -72.0 -30.45 -72.3 -29.75 -72.55 -28.9 -72.8 -28.05 -72.95 -27.05 -73.1 -26.1 -73.15 -24.95 -73.2 -23.8 -73.2 -22.5 L-72.3 18.9 Q-72.25 20.25 -72.15 21.45 -72.05 22.65 -71.85 23.7 -71.65 24.75 -71.4 25.6 -71.1 26.45 -70.75 27.1 -70.45 27.8 -70.0 28.3 -69.55 28.85 -69.05 29.15 -68.55 29.5 -67.95 29.65 -67.35 29.8 -66.7 29.8 -66.3 29.8 -63.9 29.5 -61.4 29.2 -60.1 28.9 -60.05 28.9 -60.0 28.85 -59.95 28.85 -59.9 28.85 -59.85 28.8 -59.8 28.8 -59.75 28.8 -59.7 28.75 -59.65 28.75 -59.55 28.75 -59.5 28.75 -59.45 28.7 -59.4 28.7 -59.3 28.7 -59.25 28.7 -59.2 28.7 -58.75 28.7 -58.3 28.7 -57.2 28.7 -56.25 28.8 -55.3 28.9 -54.5 29.15 -53.65 29.35 -52.95 29.75 -52.25 30.1 -51.7 30.6 -51.15 31.1 -50.75 31.75 -50.3 32.35 -50.0 33.1 -49.75 33.9 -49.55 34.75 -49.4 35.65 -49.4 36.7 -49.4 37.85 -49.55 38.85 -49.7 39.85 -50.0 40.7 -50.3 41.6 -50.8 42.3 -51.3 43.05 -51.95 43.6 -52.6 44.2 -53.4 44.65 -54.2 45.1 -55.2 45.4 -56.2 45.7 -57.35 45.9 -58.5 46.05 -59.8 46.1 -60.15 46.05 -61.3 45.8 -62.1 45.65 -62.5 45.6 -63.7 45.4 -64.2 45.4 -65.0 45.4 -65.8 45.4 -66.6 45.4 -68.4 45.1 -70.75 44.95 -76.1 44.7 -76.55 44.7 -76.95 44.65 -77.4 44.65 -77.8 44.65 -78.25 44.65 -78.7 44.65 -79.1 44.65 -79.5 44.65 -79.95 44.65 -80.35 44.65 -80.8 44.65 -81.2 44.65 -81.6 44.65 -82.0 44.65 -82.4 44.7 -82.8 44.7 -84.7 44.7 -88.5 45.1 -90.4 45.3 -94.2 45.9 -98.55 46.65 -98.9 46.7 -99.2 46.75 -99.45 46.75 -99.75 46.8 -100.0 46.85 -100.3 46.9 -100.6 46.9 -100.9 46.95 -101.2 47.0 -101.55 47.0 -101.9 47.05 -102.2 47.05 -102.55 47.05 -102.9 47.1 -103.25 47.1 -103.65 47.1 -104.0 47.1 -105.0 47.1 -105.85 47.05 -106.75 47.0 -107.5 46.85 -108.3 46.7 -108.95 46.5 -109.65 46.25 -110.25 45.95 -110.8 45.65 -111.3 45.25 -111.8 44.9 -112.2 44.4 -112.6 43.95 -112.9 43.4 -113.2 42.85 -113.4 42.2 -113.8 42.95 -114.3 43.6 -114.8 44.25 -115.35 44.85 -115.9 45.4 -116.55 45.85 -117.2 46.35 -117.9 46.7 -118.65 47.1 -119.4 47.4 -120.2 47.65 -121.1 47.85 -121.95 48.05 -122.9 48.15 -123.85 48.3 -124.9 48.3 -125.6 48.3 -126.25 48.3 -126.9 48.3 -127.45 48.3 -128.05 48.3 -128.6 48.25 -129.15 48.2 -129.65 48.15 -130.15 48.1 -130.6 48.0 -131.05 47.9 -131.45 47.8 -131.85 47.7 -132.2 47.6 -132.6 47.45 -132.9 47.3 -133.2 47.15 -133.5 47.0 -133.8 46.8 -134.1 46.6 -134.4 46.4 -134.65 46.15 -134.9 45.85 -135.15 45.55 -135.45 45.25 -135.65 44.9 -135.9 44.55 -136.15 44.15 -136.35 43.75 -136.6 43.35 -136.8 42.9 -137.0 42.4 -137.25 43.1 -137.55 43.65 -137.9 44.25 -138.3 44.75 -138.75 45.25 -139.25 45.7 -139.75 46.1 -140.3 46.45 -140.9 46.8 -141.55 47.05 -142.25 47.35 -143.0 47.5 -143.75 47.7 -144.6 47.8 -145.45 47.9 -146.4 47.9 -147.1 47.9 -147.8 47.9 -147.95 47.9 -148.0 47.9 -148.15 47.9 -148.25 47.9 -148.35 47.9 -148.45 47.9 -148.6 47.9 -148.7 47.9 -148.8 47.85 -148.9 47.85 -149.05 47.85 -149.15 47.8 -149.25 47.8 -149.35 47.75 -149.5 47.75 -149.6 47.7 L-149.4 47.7 Q-149.45 47.7 -149.5 47.65 -149.6 47.65 -149.65 47.65 -149.7 47.6 -149.75 47.6 -149.8 47.6 -149.85 47.55 -149.95 47.55 -150.0 47.55 -150.05 47.55 -150.1 47.5 -150.2 47.5 -150.25 47.5 -150.35 47.5 -150.4 47.5 L-158.8 46.4 Q-159.25 46.35 -159.7 46.3 -160.15 46.25 -160.6 46.2 -161.1 46.15 -161.6 46.1 -162.1 46.1 -162.6 46.05 -163.15 46.0 -163.7 46.0 -164.25 46.0 -164.8 46.0 -165.4 45.95 -166.0 46.0 -166.6 46.0 -167.2 46.0 -176.1 46.15 -179.2 46.8 L-186.6 48.5 Q-186.65 48.5 -186.8 48.55 -187.1 48.65 -187.2 48.7 L-189.1 48.7 Q-190.5 48.75 -191.75 48.65 -192.95 48.5 -194.05 48.25 -195.1 48.0 -196.0 47.6 -196.85 47.2 -197.55 46.65 -198.3 46.15 -198.85 45.45 -199.35 44.75 -199.75 43.9 -200.1 43.1 -200.3 42.1 -200.5 41.15 -200.5 40.0 -200.5 39.55 -200.5 39.1 -200.45 38.7 -200.4 38.25 -200.3 37.85 -200.2 37.45 -200.1 37.1 -199.95 36.7 -199.8 36.35 -199.6 35.95 -199.4 35.6 -199.15 35.25 -198.95 34.95 -198.65 34.6 -198.4 34.3 -198.1 34.0 -197.8 33.7 -197.45 33.45 -197.1 33.15 -196.75 32.95 -196.4 32.7 -196.05 32.5 -195.7 32.3 -195.35 32.15 -194.95 32.0 -194.6 31.85 -194.2 31.75 -193.8 31.65 -193.4 31.6 -193.0 31.55 -192.6 31.5 -192.2 31.5 -190.2 31.5 -189.3 31.6 -188.3 31.7 -186.5 32.1 L-186.7 32.1 Q-185.5 32.3 -185.0 32.3 -184.45 32.3 -183.9 32.3 -183.15 32.3 -182.55 32.1 -181.9 31.9 -181.35 31.55 -180.8 31.2 -180.35 30.7 -179.9 30.2 -179.55 29.5 -179.2 28.8 -178.95 27.95 -178.65 27.1 -178.5 26.1 -178.35 25.05 -178.25 23.85 -178.2 22.65 -178.2 21.3 L-179.1 -20.3 Q-179.15 -21.6 -179.25 -22.75 -179.35 -23.9 -179.55 -24.9 -179.75 -25.9 -180.05 -26.75 -180.3 -27.6 -180.65 -28.25 -181.05 -28.95 -181.45 -29.45 -181.9 -30.0 -182.4 -30.35 -182.95 -30.7 -183.55 -30.95 -184.1 -31.15 -184.8 -31.2 -184.8 -31.2 -184.85 -31.15 -184.9 -31.15 -184.95 -31.15 -185.05 -31.1 -185.1 -31.1 -185.2 -31.05 -185.3 -31.05 -185.45 -31.05 -185.55 -31.0 -185.7 -31.0 -185.85 -31.0 -186.05 -30.95 -186.2 -30.95 -186.4 -30.9 -186.6 -30.9 -186.8 -30.9 -187.0 -30.85 -187.2 -30.85 -187.35 -30.85 -187.55 -30.8 -187.7 -30.8 -187.9 -30.75 -188.05 -30.75 -188.2 -30.75 -188.35 -30.7 -188.5 -30.7 -188.65 -30.7 -188.8 -30.65 -188.95 -30.65 -189.05 -30.6 -189.2 -30.6 -189.35 -30.6 -189.5 -30.55 -189.6 -30.55 -189.8 -30.5 -189.85 -30.5 -190.05 -30.45 -190.25 -30.45 -190.35 -30.4 -190.5 -30.4 -190.65 -30.35 -190.8 -30.35 -190.9 -30.35 -191.05 -30.3 -191.2 -30.3 -191.35 -30.3 -191.5 -30.3 -192.3 -30.2 -193.6 -30.2 -194.65 -30.2 -195.6 -30.3 -196.55 -30.4 -197.35 -30.65 -198.15 -30.9 -198.85 -31.25 -199.5 -31.65 -200.05 -32.15 -200.6 -32.65 -201.0 -33.3 -201.4 -33.95 -201.7 -34.75 -202.0 -35.5 -202.15 -36.45 -202.3 -37.35 -202.3 -38.4 -202.25 -39.45 -202.05 -40.4 -201.8 -41.35 -201.45 -42.15 -201.1 -43.0 -200.55 -43.65 -200.0 -44.35 -199.3 -44.9 -198.65 -45.45 -197.75 -45.85 -196.9 -46.3 -195.9 -46.6 -194.85 -46.85 -193.65 -47.05 -192.45 -47.2 -191.1 -47.2 -187.7 -47.2 -186.3 -47.1 -184.9 -47.0 -182.1 -46.6 -179.3 -46.2 -177.9 -46.1 -176.5 -46.0 -174.1 -46.0 -172.85 -46.0 -170.2 -46.4 -168.2 -46.6 -164.4 -47.2 -164.15 -47.25 -163.85 -47.3 -163.6 -47.35 -163.35 -47.4 -163.1 -47.45 -162.8 -47.5 -162.55 -47.55 -162.3 -47.55 -162.0 -47.6 -161.75 -47.65 -161.5 -47.7 -161.2 -47.7 -160.95 -47.75 -160.65 -47.75 -160.4 -47.8 -160.1 -47.8 -159.55 -47.85 -158.15 -47.9 -157.2 -47.95 -156.8 -48.0 -156.2 -48.0 -155.6 -48.0 -155.0 -47.95 -154.45 -47.9 -153.95 -47.85 -153.4 -47.75 -152.9 -47.65 -152.4 -47.45 -151.95 -47.35 -151.5 -47.15 -151.05 -46.95 -150.65 -46.7 -150.25 -46.45 -149.85 -46.2 -149.45 -45.9 -149.1 -45.6 -148.75 -45.3 -148.45 -44.9 -148.1 -44.55 -147.8 -44.15 -147.5 -43.75 -147.2 -43.3 -146.9 -42.85 -146.6 -42.35 -146.35 -41.85 -146.1 -41.3 -145.8 -40.75 -145.55 -40.15 -145.3 -39.6 -145.05 -38.95 -144.8 -38.3 -144.6 -37.6 L-125.2 18.3 -125.2 18.3 M-146.4 30.1 Q-146.05 30.1 -145.75 30.1 -145.4 30.1 -145.05 30.15 -144.75 30.15 -144.4 30.2 -144.1 30.25 -143.75 30.3 -143.45 30.3 -143.1 30.4 -142.8 30.45 -142.5 30.5 -142.15 30.6 -141.85 30.7 -141.5 30.8 -141.2 30.9 L-159.7 -19.2 -157.9 20.5 Q-157.85 21.85 -157.75 23.0 -157.65 24.15 -157.45 25.15 -157.3 26.15 -157.1 26.95 -156.9 27.8 -156.6 28.45 -156.35 29.1 -156.05 29.6 -155.75 30.1 -155.35 30.45 -155.0 30.75 -154.6 30.95 -154.15 31.1 -153.7 31.1 -153.45 31.1 -153.2 31.1 -152.95 31.05 -152.7 31.05 -152.45 31.0 -152.2 30.95 -151.9 30.95 -151.65 30.9 -151.4 30.8 -151.1 30.75 -150.8 30.7 -150.5 30.6 -150.25 30.5 -149.9 30.4 -149.6 30.3 -149.3 30.2 L-146.4 30.1 -146.4 30.1 M-97.0 30.2 Q-96.65 30.2 -96.35 30.15 -96.05 30.1 -95.8 30.0 -95.5 29.85 -95.25 29.7 -95.0 29.55 -94.8 29.3 -94.6 29.1 -94.4 28.8 -94.25 28.5 -94.1 28.2 -93.95 27.85 -93.8 27.45 -93.7 27.05 -93.6 26.6 -92.8 22.75 -92.8 13.9 L-92.8 -20.7 -109.4 30.6 Q-109.3 30.55 -109.15 30.5 -109.05 30.45 -108.9 30.4 -108.8 30.35 -108.65 30.3 -108.5 30.25 -108.35 30.25 -108.2 30.2 -108.05 30.15 -107.9 30.1 -107.7 30.1 -107.55 30.05 -107.35 30.05 -107.2 30.0 -107.0 30.0 -106.1 29.9 -104.1 29.7 -102.05 29.7 -100.0 29.7 -99.8 29.7 -99.6 29.7 -99.4 29.7 -99.25 29.7 -99.05 29.75 -98.9 29.75 -98.7 29.75 -98.55 29.75 -98.4 29.8 -98.25 29.8 -98.1 29.8 -97.95 29.85 -97.8 29.85 -97.65 29.85 -97.55 29.9 -97.4 29.9 L-97.0 30.2 -97.0 30.2" fill="#000000" fill-rule="evenodd" stroke="none"/>
      <path d="M-15.8 19.6 Q-15.8 18.85 -15.75 18.1 -15.7 17.35 -15.6 16.65 -15.55 15.9 -15.45 15.25 -15.3 14.55 -15.2 13.9 -15.05 13.25 -14.9 12.6 -14.7 12.0 -14.5 11.4 -14.3 10.8 -14.1 10.2 -13.85 9.65 -13.6 9.1 -13.35 8.55 -13.1 8.05 -12.8 7.5 -12.5 7.0 -12.2 6.45 -11.9 6.0 -11.55 5.5 -11.25 5.0 -10.9 4.55 -10.5 4.1 -10.15 3.65 -9.75 3.2 -9.35 2.8 -8.95 2.4 -8.55 1.95 -8.1 1.6 -8.9 1.15 -9.7 0.65 -10.45 0.15 -11.2 -0.4 -11.9 -0.95 -12.6 -1.5 -13.25 -2.05 -13.85 -2.65 -14.5 -3.25 -15.05 -3.9 -15.65 -4.5 -16.15 -5.15 -16.65 -5.8 -17.1 -6.5 -17.6 -7.2 -18.0 -7.9 -18.4 -8.6 -18.75 -9.35 -19.15 -10.1 -19.45 -10.9 -19.75 -11.7 -20.0 -12.55 -20.25 -13.4 -20.45 -14.25 -20.65 -15.15 -20.8 -16.1 -20.95 -17.0 -21.0 -17.95 -21.1 -18.95 -21.1 -19.95 -21.15 -20.95 -21.1 -22.0 -21.05 -23.4 -20.9 -24.8 -20.7 -26.15 -20.35 -27.4 -20.05 -28.7 -19.55 -29.9 -19.1 -31.15 -18.5 -32.25 -17.85 -33.4 -17.1 -34.5 -16.35 -35.55 -15.45 -36.55 -14.55 -37.55 -13.5 -38.5 -12.5 -39.45 -11.3 -40.3 -10.1 -41.15 -8.8 -41.9 -7.5 -42.65 -6.05 -43.3 -4.65 -43.9 -3.1 -44.45 -1.55 -44.95 0.15 -45.35 1.85 -45.75 3.65 -46.0 5.45 -46.3 7.35 -46.45 9.25 -46.65 11.3 -46.7 13.35 -46.75 15.5 -46.7 19.6 -46.6 27.2 -46.2 31.75 -45.95 37.3 -45.4 41.45 -45.0 43.0 -44.9 43.35 -44.85 43.65 -44.85 44.0 -44.8 44.3 -44.75 44.6 -44.75 44.9 -44.7 45.2 -44.7 45.5 -44.65 45.8 -44.65 46.05 -44.65 46.35 -44.65 46.65 -44.6 46.9 -44.6 47.15 -44.6 47.45 -44.6 47.7 -44.6 48.15 -44.6 48.65 -44.55 49.15 -44.55 49.65 -44.55 50.1 -44.55 50.65 -44.55 51.15 -44.6 51.65 -44.6 52.15 -44.6 52.7 -44.65 53.2 -44.7 53.75 -44.7 54.3 -44.75 54.8 -44.8 55.35 -44.85 55.9 -44.9 58.9 -45.3 60.7 -45.3 61.0 -45.3 61.3 -45.35 61.6 -45.35 61.95 -45.35 62.25 -45.35 62.6 -45.35 62.9 -45.35 63.25 -45.35 63.55 -45.35 63.9 -45.35 64.25 -45.35 64.6 -45.35 64.95 -45.35 65.3 -45.35 65.65 -45.3 66.0 -45.3 66.65 -45.3 67.25 -45.25 67.9 -45.2 68.45 -45.1 69.0 -45.05 69.55 -44.95 70.05 -44.85 70.55 -44.7 71.05 -44.55 71.45 -44.4 71.9 -44.25 72.25 -44.05 72.65 -43.85 73.0 -43.65 73.3 -43.45 73.6 -43.2 73.9 -42.95 74.15 -42.65 74.4 -42.4 74.6 -42.05 74.8 -41.7 75.0 -41.35 75.15 -41.0 75.3 -40.55 75.45 -40.15 75.55 -39.7 75.65 -39.2 75.7 -38.7 75.75 -38.2 75.8 -37.65 75.8 -37.1 75.8 -36.5 75.8 -36.1 75.75 -35.75 75.7 -35.4 75.65 -35.0 75.55 -34.65 75.45 -34.3 75.35 -33.95 75.25 -33.6 75.15 -33.25 75.0 -32.9 74.85 -32.55 74.65 -32.2 74.45 -31.85 74.25 -31.55 74.05 -31.2 73.8 -30.9 73.6 -30.6 73.3 -30.3 73.05 -30.05 72.75 -29.8 72.45 -29.55 72.1 -29.35 71.75 -29.2 71.35 -29.0 70.95 -28.9 70.55 -28.75 70.1 -28.65 69.65 -28.6 69.2 -28.55 68.7 -28.5 68.25 -28.5 67.7 -28.5 67.4 -28.5 67.15 -28.5 66.9 -28.5 66.65 -28.5 66.4 -28.55 66.2 -28.55 65.95 -28.55 65.75 -28.55 65.55 -28.6 65.35 -28.6 65.15 -28.65 65.0 -28.65 64.85 -28.7 64.7 -28.75 64.55 -28.75 64.4 -28.8 64.0 -28.85 63.35 -29.0 62.65 -29.15 62.4 -29.2 60.6 -29.5 60.5 -29.5 60.2 -29.55 59.5 -29.6 58.75 -29.65 58.4 -29.7 58.35 -29.7 58.25 -29.7 58.2 -29.7 58.1 -29.65 58.05 -29.65 58.0 -29.6 57.9 -29.6 57.85 -29.55 57.8 -29.5 57.7 -29.45 57.65 -29.4 57.6 -29.35 57.5 -29.3 57.45 -29.25 57.4 -29.2 57.3 -29.1 57.25 -29.0 57.2 -28.95 57.1 -28.85 57.05 -28.7 57.0 -28.6 56.95 -28.45 56.85 -28.3 56.8 -28.1 56.75 -27.95 56.65 -27.75 56.6 -27.55 56.55 -27.35 56.5 -27.15 56.4 -26.9 56.35 -26.65 56.3 -26.4 55.85 -24.75 55.5 -20.1 55.45 -19.55 55.45 -19.0 55.4 -18.45 55.35 -17.85 55.3 -17.2 55.3 -16.6 55.25 -15.9 55.2 -15.25 55.2 -14.55 55.15 -13.8 55.1 -13.1 55.1 -12.3 55.05 -11.55 55.05 -10.75 55.0 -9.95 55.0 -9.1 L54.1 23.4 Q54.1 24.2 54.1 24.95 54.05 25.7 54.1 26.35 54.1 27.05 54.1 27.65 54.15 28.25 54.15 28.8 54.2 29.35 54.25 29.8 54.3 30.3 54.35 30.7 54.4 31.1 54.45 31.45 54.5 31.8 54.6 32.1 54.7 32.4 54.8 32.65 54.9 32.85 55.0 33.1 55.1 33.3 55.2 33.45 55.35 33.65 55.45 33.75 55.55 33.9 55.7 34.0 55.85 34.1 56.0 34.15 56.1 34.25 56.3 34.25 56.45 34.3 56.6 34.3 56.9 34.3 57.15 34.3 57.45 34.3 57.75 34.3 58.05 34.25 58.35 34.25 58.7 34.25 59.0 34.2 59.3 34.2 59.6 34.15 59.95 34.15 60.25 34.1 60.6 34.05 60.95 34.0 61.25 33.95 61.6 33.9 62.8 33.7 63.0 33.7 63.05 33.7 63.15 33.65 63.2 33.65 63.3 33.65 63.35 33.65 63.45 33.65 63.55 33.65 63.65 33.65 63.8 33.6 63.9 33.65 64.05 33.65 64.2 33.65 64.3 33.65 64.5 33.65 64.65 33.7 64.8 33.7 65.9 33.75 66.85 33.9 67.8 34.05 68.6 34.35 69.4 34.6 70.1 35.0 70.75 35.45 71.3 35.95 71.85 36.5 72.25 37.1 72.6 37.75 72.85 38.55 73.1 39.3 73.25 40.2 73.35 41.1 73.3 42.1 73.25 43.2 73.05 44.15 72.85 45.1 72.5 45.9 72.15 46.7 71.65 47.35 71.1 48.05 70.45 48.55 69.75 49.1 68.9 49.45 68.05 49.85 67.05 50.1 66.05 50.35 64.9 50.45 63.75 50.55 62.4 50.5 62.25 50.5 61.65 50.45 60.75 50.35 60.2 50.3 59.95 50.3 59.75 50.25 59.5 50.25 59.3 50.2 59.1 50.2 58.85 50.15 58.65 50.1 58.4 50.1 58.2 50.05 57.95 50.0 57.75 49.95 57.55 49.9 57.35 49.85 57.1 49.8 56.9 49.75 56.7 49.7 51.45 49.0 49.4 48.7 45.05 48.2 43.4 48.2 42.8 48.2 42.2 48.15 41.6 48.15 41.0 48.15 40.4 48.15 39.85 48.15 39.3 48.15 38.75 48.2 38.2 48.2 37.65 48.2 37.15 48.25 36.6 48.25 36.1 48.3 35.6 48.35 35.1 48.35 34.6 48.4 33.3 48.5 28.2 49.1 27.0 49.3 26.8 49.3 26.75 49.3 26.65 49.35 26.6 49.35 26.5 49.35 26.45 49.35 26.35 49.35 26.25 49.35 26.15 49.4 26.05 49.4 25.95 49.35 25.8 49.35 25.7 49.35 25.6 49.35 25.45 49.35 25.35 49.3 25.2 49.3 23.9 49.25 22.8 49.1 21.7 48.95 20.75 48.65 19.8 48.35 19.0 47.95 18.2 47.5 17.55 46.95 16.95 46.4 16.5 45.75 16.0 45.05 15.7 44.25 15.4 43.45 15.3 42.5 15.15 41.55 15.2 40.5 15.25 39.45 15.4 38.5 15.55 37.55 15.85 36.75 16.15 35.95 16.6 35.3 17.0 34.65 17.55 34.15 18.1 33.6 18.8 33.25 19.5 32.85 20.35 32.6 21.15 32.35 22.15 32.25 23.1 32.15 24.2 32.2 24.4 32.2 24.55 32.2 24.75 32.2 24.95 32.2 25.1 32.25 25.3 32.25 25.45 32.25 25.6 32.3 25.8 32.3 25.95 32.3 26.1 32.35 26.25 32.35 26.4 32.4 26.55 32.45 26.65 32.45 26.8 32.5 26.95 32.5 27.05 32.55 27.2 32.55 27.35 32.6 27.45 32.65 27.6 32.7 27.7 32.7 27.85 32.75 27.95 32.8 28.15 32.85 28.3 32.9 28.4 32.95 28.55 33.0 28.7 33.0 28.85 33.05 29.0 33.1 29.45 33.15 30.1 33.3 30.8 33.45 31.1 33.5 32.3 33.7 32.4 33.7 32.5 33.7 32.6 33.65 32.75 33.65 32.85 33.55 32.95 33.5 33.05 33.4 33.15 33.3 33.25 33.2 33.3 33.05 33.4 32.9 33.5 32.7 33.6 32.5 33.65 32.3 33.75 32.1 33.8 31.85 33.9 31.6 34.45 29.7 34.6 22.8 L34.9 11.2 Q34.9 10.85 34.85 10.5 34.75 10.15 34.55 9.85 34.4 9.6 34.1 9.35 33.8 9.1 33.4 8.9 33.0 8.7 32.55 8.55 32.05 8.35 31.45 8.25 30.85 8.15 30.2 8.1 29.5 8.0 28.7 8.0 L14.8 7.6 Q14.15 7.6 13.5 7.6 12.85 7.65 12.25 7.75 11.65 7.8 11.05 7.95 10.45 8.1 9.9 8.3 9.3 8.5 8.8 8.75 8.25 8.95 7.75 9.25 7.2 9.6 6.75 9.95 6.25 10.3 5.8 10.7 5.35 11.1 4.9 11.55 4.5 12.0 4.15 12.5 3.8 12.95 3.5 13.45 3.2 14.0 2.95 14.55 2.7 15.05 2.5 15.65 2.35 16.2 2.2 16.85 2.05 17.45 2.0 18.1 1.9 18.75 1.9 19.4 1.9 20.9 1.9 22.4 1.9 23.9 1.9 25.4 L1.8 30.2 Q1.75 31.55 1.65 32.75 1.55 34.0 1.35 35.15 1.15 36.25 0.9 37.3 0.6 38.35 0.3 39.3 -0.05 40.25 -0.5 41.1 -0.95 41.95 -1.45 42.7 -1.95 43.5 -2.55 44.15 -3.15 44.8 -3.8 45.4 -4.45 45.95 -5.2 46.45 -5.95 46.95 -6.75 47.35 -7.55 47.75 -8.45 48.1 -9.35 48.45 -10.3 48.7 -11.3 48.95 -12.35 49.15 -13.4 49.35 -14.5 49.45 -15.65 49.55 -16.85 49.6 -18.0 49.65 -19.3 49.6 -22.0 49.5 -24.35 49.15 -26.7 48.75 -28.75 48.1 -30.75 47.4 -32.4 46.45 -34.1 45.45 -35.4 44.2 -36.7 42.9 -37.7 41.35 -38.65 39.75 -39.3 37.9 -39.9 36.0 -40.2 33.85 -40.45 31.65 -40.4 29.2 L-40.0 15.5 Q-39.95 14.45 -39.8 13.5 -39.6 12.55 -39.3 11.75 -39.0 10.95 -38.6 10.3 -38.15 9.65 -37.55 9.15 -37.0 8.6 -36.3 8.25 -35.6 7.85 -34.75 7.6 -33.9 7.35 -32.9 7.25 -31.9 7.15 -30.8 7.2 -29.7 7.25 -28.75 7.4 -27.8 7.55 -27.0 7.85 -26.2 8.1 -25.5 8.5 -24.85 8.95 -24.3 9.45 -23.75 10.0 -23.35 10.6 -23.0 11.25 -22.75 12.05 -22.5 12.8 -22.35 13.7 -22.25 14.6 -22.3 15.6 L-22.4 24.8 Q-22.45 25.95 -22.4 26.9 -22.4 27.9 -22.3 28.75 -22.25 29.6 -22.1 30.3 -22.0 31.0 -21.8 31.55 -21.6 32.1 -21.35 32.55 -21.1 32.95 -20.8 33.25 -20.5 33.5 -20.15 33.65 -19.8 33.8 -19.4 33.8 -19.15 33.8 -18.9 33.8 -18.65 33.75 -18.45 33.7 -18.2 33.65 -18.05 33.6 -17.85 33.5 -17.65 33.4 -17.5 33.3 -17.35 33.15 -17.2 33.05 -17.05 32.85 -16.9 32.7 -16.8 32.5 -16.7 32.3 -16.6 32.1 -16.5 31.9 -16.45 31.65 -16.35 31.4 -16.3 31.15 -16.2 30.85 -16.15 30.6 -16.1 30.3 -16.05 30.0 -16.0 29.7 -15.95 29.4 -15.95 29.05 -15.9 28.75 -15.85 28.4 -15.85 28.05 -15.8 27.7 -15.8 27.3 -15.8 26.45 -15.8 25.6 -15.8 23.5 -15.8 23.5 L-15.8 19.6 -15.8 19.6 M36.1 -24.0 Q36.1 -24.3 36.1 -24.55 36.1 -24.85 36.1 -25.1 36.05 -25.35 36.05 -25.6 36.05 -25.85 36.0 -26.05 35.95 -26.3 35.95 -26.55 35.9 -26.75 35.85 -26.95 35.8 -27.15 35.75 -27.35 35.65 -27.55 35.6 -27.7 35.55 -27.9 35.45 -28.05 35.35 -28.25 35.25 -28.4 35.1 -28.55 35.0 -28.7 34.85 -28.85 34.7 -29.0 34.55 -29.15 34.4 -29.25 34.2 -29.4 34.05 -29.55 33.85 -29.65 33.65 -29.75 33.45 -29.9 33.2 -30.0 32.95 -30.1 32.7 -30.2 32.4 -30.35 32.15 -30.45 31.85 -30.55 31.5 -30.65 31.2 -30.7 30.85 -30.8 30.5 -30.9 30.15 -31.0 29.8 -31.05 29.4 -31.15 29.0 -31.2 28.55 -31.3 28.15 -31.35 27.7 -31.4 24.75 -31.75 17.8 -32.1 16.5 -32.15 15.35 -32.1 14.15 -32.1 13.1 -32.0 12.0 -31.95 11.05 -31.8 10.05 -31.7 9.2 -31.5 8.3 -31.3 7.5 -31.05 6.75 -30.8 6.05 -30.5 5.35 -30.2 4.75 -29.85 4.2 -29.5 3.7 -29.1 3.25 -28.7 2.8 -28.25 2.4 -27.8 2.05 -27.3 1.65 -26.8 1.35 -26.3 1.05 -25.8 0.8 -25.2 0.55 -24.65 0.35 -24.1 0.15 -23.5 0.0 -22.9 -0.1 -22.25 -0.2 -21.6 -0.3 -20.95 -0.3 -20.3 -0.3 -19.55 -0.25 -18.8 -0.2 -18.1 -0.05 -17.4 0.1 -16.75 0.3 -16.1 0.55 -15.45 0.85 -14.9 1.15 -14.3 1.55 -13.75 1.9 -13.2 2.4 -12.7 2.85 -12.2 3.4 -11.75 3.95 -11.3 4.6 -10.9 5.25 -10.5 6.0 -10.1 6.7 -9.75 7.55 -9.45 8.4 -9.1 9.35 -8.85 10.3 -8.55 11.4 -8.35 12.45 -8.1 13.6 -7.95 14.75 -7.75 16.05 -7.65 17.3 -7.5 18.7 -7.4 20.1 -7.35 21.6 -7.3 L29.8 -7.1 Q30.25 -7.1 30.7 -7.1 31.1 -7.1 31.5 -7.1 31.9 -7.15 32.25 -7.2 32.55 -7.25 32.9 -7.3 33.15 -7.4 33.45 -7.45 33.7 -7.55 33.9 -7.7 34.1 -7.8 34.3 -7.9 34.45 -8.05 34.6 -8.2 34.75 -8.35 34.85 -8.55 34.95 -8.75 35.05 -9.0 35.15 -9.3 35.25 -9.6 35.3 -9.9 35.4 -10.3 35.45 -10.65 35.5 -11.1 35.55 -11.55 35.6 -12.0 35.6 -12.5 35.65 -13.05 35.7 -13.6 35.7 -14.2 L36.1 -24.0 36.1 -24.0" fill="#000000" fill-rule="evenodd" stroke="none"/>
      <path d="M161.0 9.2 Q160.4 9.65 159.8 10.05 159.15 10.45 158.55 10.8 157.9 11.2 157.25 11.55 156.6 11.9 155.9 12.25 155.25 12.55 154.55 12.85 153.85 13.15 153.15 13.45 152.4 13.75 151.7 14.0 150.95 14.25 150.2 14.5 149.45 14.75 148.7 14.95 147.9 15.15 147.15 15.35 146.35 15.55 145.55 15.7 144.75 15.9 143.95 16.0 143.1 16.15 142.3 16.25 141.45 16.35 140.6 16.45 139.75 16.55 138.9 16.6 138.05 16.65 137.2 16.7 135.15 16.75 133.2 16.7 131.25 16.65 129.45 16.45 127.6 16.25 125.85 15.95 124.1 15.6 122.5 15.15 120.85 14.65 119.3 14.05 117.8 13.45 116.35 12.7 114.9 11.95 113.55 11.1 112.25 10.2 111.0 9.2 109.75 8.2 108.65 7.05 107.6 5.9 106.65 4.6 105.7 3.3 104.9 1.9 104.1 0.5 103.4 -1.05 102.75 -2.6 102.25 -4.3 101.75 -6.0 101.4 -7.8 101.0 -9.6 100.8 -11.55 100.6 -13.5 100.5 -15.6 L100.4 -19.6 Q100.25 -25.5 99.8 -27.9 99.75 -28.2 99.7 -28.45 99.65 -28.75 99.6 -29.0 99.55 -29.25 99.5 -29.45 99.4 -29.65 99.35 -29.85 99.3 -30.05 99.2 -30.2 99.1 -30.35 99.0 -30.5 98.9 -30.6 98.8 -30.7 98.7 -30.85 98.6 -30.9 96.95 -30.55 96.1 -30.5 93.9 -30.3 93.4 -30.3 93.3 -30.3 93.2 -30.25 93.1 -30.25 92.95 -30.2 92.9 -30.2 92.75 -30.15 92.6 -30.15 92.5 -30.1 92.4 -30.1 92.3 -30.05 92.2 -30.05 92.1 -30.05 92.0 -30.0 91.9 -30.0 91.8 -30.0 91.7 -30.0 91.45 -29.95 90.9 -29.9 90.3 -29.85 90.0 -29.8 89.55 -29.8 89.1 -29.8 88.7 -29.8 88.25 -29.9 87.85 -29.95 87.4 -30.05 87.0 -30.15 86.6 -30.25 86.2 -30.4 85.85 -30.55 85.45 -30.75 85.05 -30.95 84.7 -31.2 84.3 -31.45 83.95 -31.7 83.6 -32.0 83.25 -32.3 82.95 -32.6 82.65 -32.9 82.4 -33.2 82.15 -33.5 81.9 -33.85 81.7 -34.2 81.5 -34.55 81.35 -34.9 81.2 -35.3 81.05 -35.65 80.95 -36.05 80.85 -36.45 80.8 -36.85 80.7 -37.25 80.7 -37.7 80.7 -38.2 80.75 -38.65 80.8 -39.1 80.85 -39.55 80.95 -40.0 81.1 -40.4 81.2 -40.85 81.4 -41.25 81.6 -41.65 81.8 -42.05 82.05 -42.4 82.3 -42.8 82.6 -43.15 82.9 -43.5 83.25 -43.85 83.6 -44.2 84.0 -44.5 84.35 -44.8 84.75 -45.1 85.2 -45.3 85.6 -45.55 86.0 -45.75 86.45 -46.0 86.9 -46.15 87.35 -46.3 87.85 -46.45 88.3 -46.6 88.8 -46.65 89.3 -46.75 89.85 -46.8 90.35 -46.9 90.9 -46.9 92.4 -46.9 93.9 -46.9 94.15 -46.9 94.4 -46.9 94.65 -46.9 94.9 -46.9 95.1 -46.85 95.35 -46.85 95.6 -46.85 95.85 -46.8 96.1 -46.8 96.35 -46.8 96.6 -46.75 96.85 -46.75 97.1 -46.7 97.4 -46.65 97.65 -46.65 97.9 -46.6 99.9 -46.4 104.1 -46.2 106.3 -46.1 109.9 -46.1 110.6 -46.1 111.25 -46.15 111.9 -46.15 112.55 -46.2 113.15 -46.25 113.75 -46.3 114.3 -46.35 114.85 -46.35 115.4 -46.4 115.9 -46.45 116.4 -46.5 116.9 -46.6 117.35 -46.65 117.8 -46.7 118.2 -46.75 118.6 -46.8 121.9 -47.25 123.9 -47.7 124.1 -47.75 124.8 -47.9 125.25 -48.0 125.5 -48.0 125.7 -48.05 126.25 -48.1 126.85 -48.15 127.1 -48.2 128.4 -48.25 129.5 -48.15 130.6 -48.05 131.6 -47.8 132.55 -47.55 133.4 -47.15 134.2 -46.75 134.9 -46.25 135.55 -45.7 136.05 -45.05 136.55 -44.4 136.9 -43.6 137.25 -42.8 137.45 -41.85 137.65 -40.9 137.7 -39.8 137.75 -38.8 137.65 -37.9 137.5 -37.0 137.25 -36.2 137.0 -35.45 136.6 -34.8 136.2 -34.15 135.65 -33.6 135.05 -33.05 134.35 -32.65 133.7 -32.25 132.85 -31.95 132.0 -31.65 131.0 -31.5 130.0 -31.35 128.9 -31.3 126.4 -31.3 125.2 -31.5 124.95 -31.5 124.75 -31.55 124.55 -31.55 124.3 -31.6 124.1 -31.6 123.9 -31.65 123.7 -31.7 123.5 -31.7 123.3 -31.75 123.1 -31.8 122.9 -31.85 122.7 -31.9 122.5 -31.95 122.35 -32.0 122.15 -32.05 122.0 -32.1 L121.2 -32.3 Q121.0 -32.3 120.8 -32.2 120.65 -32.05 120.5 -31.85 120.35 -31.6 120.2 -31.25 120.1 -30.9 120.0 -30.4 119.9 -29.95 119.85 -29.35 119.8 -28.8 119.8 -28.1 119.75 -27.4 119.75 -26.55 119.75 -25.75 119.8 -24.8 L120.0 -20.2 Q120.0 -19.75 120.05 -19.25 120.05 -18.8 120.1 -18.3 120.15 -17.85 120.2 -17.35 120.25 -16.9 120.3 -16.4 120.35 -15.95 120.4 -15.45 120.45 -14.95 120.5 -14.5 120.6 -14.0 120.65 -13.55 120.7 -13.05 120.8 -12.6 120.9 -12.15 121.0 -11.7 121.1 -11.2 121.25 -10.8 121.35 -10.35 121.5 -9.9 121.65 -9.5 121.8 -9.05 121.95 -8.65 122.15 -8.25 122.3 -7.85 122.5 -7.45 122.7 -7.05 122.95 -6.65 123.15 -6.25 123.4 -5.9 123.65 -5.55 123.9 -5.2 124.2 -4.85 124.45 -4.55 124.75 -4.2 125.1 -3.9 125.4 -3.6 125.75 -3.3 126.1 -3.0 126.45 -2.7 126.8 -2.45 127.2 -2.15 127.6 -1.9 128.05 -1.65 128.45 -1.4 128.9 -1.2 129.35 -1.0 129.85 -0.8 130.3 -0.6 130.85 -0.45 131.4 -0.25 131.95 -0.15 132.5 0.0 133.1 0.1 133.7 0.2 134.35 0.25 135.0 0.3 135.7 0.35 136.4 0.4 137.1 0.4 137.85 0.4 138.6 0.4 139.25 0.4 139.9 0.35 140.55 0.3 141.15 0.25 141.8 0.2 142.4 0.1 143.0 0.05 143.6 -0.05 144.2 -0.15 144.8 -0.25 145.35 -0.35 145.95 -0.45 146.5 -0.6 147.05 -0.7 147.55 -0.85 148.1 -1.0 148.65 -1.15 149.1 -1.3 149.6 -1.5 150.1 -1.7 150.55 -1.9 151.0 -2.1 151.45 -2.35 151.9 -2.6 152.3 -2.85 152.7 -3.1 153.1 -3.4 153.45 -3.7 153.85 -4.0 154.2 -4.3 154.55 -4.65 154.9 -5.0 155.25 -5.35 155.55 -5.75 155.85 -6.1 156.15 -6.55 156.45 -6.95 156.7 -7.4 157.0 -7.85 157.25 -8.3 157.45 -8.75 157.7 -9.25 157.9 -9.75 158.1 -10.3 158.3 -10.8 158.5 -11.35 158.65 -11.9 158.8 -12.5 158.95 -13.1 159.1 -13.7 159.2 -14.3 159.3 -15.0 159.45 -15.65 159.5 -16.35 159.6 -17.05 159.7 -17.75 159.75 -18.5 159.8 -19.25 159.8 -20.05 159.85 -20.85 159.85 -21.7 159.85 -22.55 159.85 -23.4 159.8 -24.3 L159.7 -27.3 Q159.7 -28.1 159.65 -28.75 159.6 -29.45 159.5 -30.05 159.4 -30.6 159.3 -31.1 159.2 -31.6 159.05 -31.95 158.95 -32.35 158.75 -32.65 158.6 -32.95 158.4 -33.1 158.25 -33.3 158.05 -33.4 157.85 -33.5 157.6 -33.5 157.5 -33.5 156.3 -33.3 156.1 -33.25 154.4 -32.7 154.1 -32.6 152.0 -32.0 151.65 -31.9 149.4 -31.7 148.35 -31.65 147.4 -31.75 146.45 -31.85 145.65 -32.1 144.8 -32.35 144.15 -32.75 143.45 -33.15 142.9 -33.65 142.35 -34.2 141.9 -34.85 141.45 -35.5 141.15 -36.3 140.85 -37.1 140.7 -38.05 140.55 -39.0 140.5 -40.1 140.45 -41.15 140.6 -42.05 140.7 -43.0 141.0 -43.8 141.3 -44.6 141.75 -45.25 142.2 -45.95 142.85 -46.45 143.45 -47.0 144.25 -47.45 145.05 -47.85 146.0 -48.15 146.95 -48.45 148.1 -48.6 149.2 -48.75 150.5 -48.8 151.2 -48.8 151.9 -48.8 152.05 -48.75 152.5 -48.7 153.05 -48.65 153.3 -48.6 153.65 -48.55 153.95 -48.55 154.3 -48.5 154.65 -48.45 155.0 -48.4 155.4 -48.4 155.75 -48.35 156.15 -48.3 156.55 -48.3 157.0 -48.25 157.4 -48.2 157.85 -48.2 158.3 -48.15 158.75 -48.15 159.2 -48.1 159.7 -48.1 163.15 -47.85 168.5 -48.0 169.1 -48.0 173.1 -48.4 175.2 -48.6 179.4 -49.2 179.9 -49.25 183.15 -49.7 185.55 -50.0 187.2 -50.2 188.55 -50.25 189.75 -50.15 190.9 -50.1 191.95 -49.85 192.95 -49.6 193.8 -49.25 194.7 -48.85 195.4 -48.35 196.05 -47.85 196.6 -47.2 197.15 -46.5 197.5 -45.75 197.85 -44.95 198.05 -44.0 198.25 -43.05 198.3 -42.0 198.35 -40.95 198.25 -40.05 198.15 -39.1 197.9 -38.3 197.65 -37.5 197.25 -36.85 196.9 -36.15 196.35 -35.6 195.85 -35.1 195.15 -34.65 194.5 -34.25 193.7 -33.95 192.9 -33.65 191.95 -33.5 191.0 -33.35 189.9 -33.3 189.05 -33.3 188.2 -33.3 187.9 -33.3 186.7 -33.5 184.9 -33.9 184.0 -34.0 183.1 -34.1 181.7 -34.1 181.5 -34.1 181.3 -34.05 181.1 -34.0 180.95 -33.95 180.75 -33.85 180.6 -33.75 180.45 -33.65 180.3 -33.5 180.15 -33.35 180.05 -33.15 179.9 -32.95 179.8 -32.75 179.7 -32.5 179.65 -32.25 179.55 -32.0 179.5 -31.7 179.05 -29.45 179.2 -22.9 L180.6 16.2 Q180.9 23.7 181.5 26.8 181.6 27.2 181.7 27.55 181.8 27.9 181.95 28.2 182.05 28.5 182.2 28.75 182.35 29.0 182.5 29.2 182.65 29.35 182.8 29.5 182.95 29.65 183.15 29.75 183.3 29.85 183.5 29.9 183.7 29.9 183.9 29.9 184.2 29.9 184.45 29.85 184.75 29.85 185.05 29.8 185.35 29.75 185.65 29.75 185.95 29.7 186.3 29.65 186.6 29.6 186.9 29.55 187.2 29.5 187.55 29.45 187.85 29.4 188.15 29.35 188.5 29.25 188.8 29.2 188.9 29.2 189.0 29.15 189.1 29.15 189.25 29.1 189.3 29.1 189.45 29.05 189.65 29.0 189.65 29.0 189.75 29.0 189.8 28.95 189.9 28.95 190.0 28.95 190.05 28.9 190.15 28.9 190.25 28.9 190.3 28.9 190.55 28.85 191.0 28.8 191.75 28.75 192.0 28.7 193.1 28.65 194.05 28.75 195.0 28.85 195.85 29.1 196.65 29.3 197.35 29.65 198.05 30.0 198.6 30.5 199.15 31.0 199.6 31.65 200.05 32.25 200.35 33.0 200.65 33.8 200.8 34.65 200.95 35.55 201.0 36.6 201.05 37.7 200.9 38.65 200.75 39.6 200.45 40.45 200.15 41.25 199.65 42.0 199.2 42.7 198.55 43.25 197.85 43.8 197.05 44.25 196.2 44.7 195.2 45.0 194.2 45.3 193.05 45.5 191.85 45.65 190.5 45.7 189.3 45.6 186.45 45.45 184.0 45.3 182.7 45.2 180.5 45.0 176.3 44.8 172.45 44.6 171.6 44.7 171.0 44.7 170.4 44.75 169.8 44.75 169.2 44.8 168.6 44.85 168.05 44.9 167.5 44.95 166.95 45.0 166.4 45.05 165.85 45.1 165.35 45.15 164.8 45.2 164.3 45.3 163.8 45.35 163.3 45.4 162.8 45.5 160.4 45.85 156.5 46.6 156.25 46.65 155.7 46.8 155.25 46.9 155.1 46.9 154.8 47.0 153.7 47.0 152.4 47.05 151.3 46.95 150.2 46.85 149.2 46.6 148.25 46.35 147.4 46.0 146.6 45.6 145.95 45.1 145.25 44.6 144.75 43.95 144.25 43.3 143.9 42.5 143.55 41.7 143.35 40.8 143.15 39.85 143.1 38.8 143.05 37.75 143.15 36.8 143.25 35.85 143.5 35.05 143.75 34.25 144.1 33.55 144.5 32.9 145.0 32.35 145.5 31.8 146.15 31.35 146.8 30.95 147.6 30.65 148.35 30.35 149.3 30.2 150.25 30.05 151.3 30.0 153.2 30.0 153.9 30.1 154.3 30.15 156.3 30.6 157.25 30.75 158.2 30.9 158.25 30.9 158.4 30.95 158.55 30.95 158.65 30.95 158.75 31.0 158.8 31.0 158.9 31.0 159.0 31.0 159.1 31.05 159.15 31.05 159.25 31.05 159.3 31.05 159.35 31.05 159.4 31.05 159.45 31.0 159.5 31.0 159.6 31.0 159.7 30.95 159.85 30.95 159.95 30.85 160.05 30.8 160.15 30.7 160.2 30.6 160.3 30.5 160.4 30.35 160.5 30.2 160.55 30.05 160.65 29.85 160.7 29.65 160.8 29.45 160.85 29.25 160.9 29.0 161.25 27.45 161.1 22.1 L161.0 9.2 161.0 9.2" fill="#000000" fill-rule="evenodd" stroke="none"/>
    </g>
    <g id="sprite2" transform="matrix(1.0, 0.0, 0.0, 1.0, 161.55, 29.9)">
      <use height="40.25" transform="matrix(0.9998, 0.0173, -0.0173, 0.9998, -159.9985, -20.8517)" width="41.05" xlink:href="#sprite3"/>
      <use height="40.5" transform="matrix(0.9931, 0.1171, -0.1171, 0.9931, -109.1026, -19.7476)" width="36.55" xlink:href="#sprite4"/>
      <use height="44.5" transform="matrix(2.4294, -0.0996, 0.0996, 0.995, -101.163, -17.4604)" width="50.35" xlink:href="#sprite5"/>
      <use height="40.1" transform="matrix(0.9978, 0.0659, -0.0659, 0.9978, -16.481, -21.036)" width="43.45" xlink:href="#sprite6"/>
      <use height="40.25" transform="matrix(0.9982, -0.0605, 0.0605, 0.9982, 31.4218, -18.7732)" width="41.05" xlink:href="#sprite7"/>
      <use height="39.85" transform="matrix(1.0732, 0.0782, -0.0782, 1.2258, 82.169, -29.9098)" width="32.4" xlink:href="#sprite8"/>
      <use height="39.9" transform="matrix(0.9951, -0.0993, 0.0993, 0.9951, 125.5898, -18.5264)" width="28.7" xlink:href="#sprite9"/>
    </g>
    <g id="sprite3" transform="matrix(1.0, 0.0, 0.0, 1.0, 20.5, 20.1)">
      <use height="40.25" transform="matrix(1.0, 0.0, 0.0, 1.0, -20.5, -20.1)" width="41.05" xlink:href="#shape1"/>
    </g>
    <g id="shape1" transform="matrix(1.0, 0.0, 0.0, 1.0, 20.5, 20.1)">
      <path d="M-3.5 4.5 L3.15 4.3 -0.4 -7.3 -3.5 4.5 M7.3 20.15 L5.35 13.2 -5.4 13.8 -7.35 19.9 -20.5 18.7 -17.4 9.3 -14.15 -0.3 -7.75 -19.35 6.4 -20.1 20.55 18.35 7.3 20.15" fill="#a21f84" fill-rule="evenodd" stroke="none"/>
    </g>
    <g id="sprite4" transform="matrix(1.0, 0.0, 0.0, 1.0, 18.25, 20.25)">
      <use height="40.5" transform="matrix(1.0, 0.0, 0.0, 1.0, -18.25, -20.25)" width="36.55" xlink:href="#shape2"/>
    </g>
    <g id="shape2" transform="matrix(1.0, 0.0, 0.0, 1.0, 18.25, 20.25)">
      <path d="M4.8 5.45 L-4.85 5.55 -4.85 19.15 -17.45 19.35 -17.45 -19.45 -4.95 -19.75 -4.75 -5.55 4.9 -5.75 4.7 -19.25 17.4 -19.75 18.0 19.35 5.0 19.85 4.8 5.45 4.8 5.45" fill="#b51d29" fill-rule="evenodd" stroke="none"/>
    </g>
    <g id="sprite5" transform="matrix(1.0, 0.0, 0.0, 1.0, 22.0, 19.75)">
      <use height="44.5" transform="matrix(1.0, 0.0, 0.0, 1.0, -22.0, -19.75)" width="50.35" xlink:href="#shape3"/>
    </g>
    <g id="shape3" transform="matrix(1.0, 0.0, 0.0, 1.0, 22.0, 19.75)">
      <path d="M-6.7 -18.65 L-1.85 -18.55 -2.05 -0.75 -1.85 -0.65 2.15 -18.95 6.75 -18.35 6.9 18.65 2.0 19.15 2.1 0.55 -2.25 19.25 -6.95 18.25 -6.7 -18.65 -6.7 -18.65" fill="#c1600b" fill-rule="evenodd" stroke="none"/>
    </g>
    <g id="sprite6" transform="matrix(1.0, 0.0, 0.0, 1.0, 21.7, 20.05)">
      <use height="40.1" transform="matrix(1.0, 0.0, 0.0, 1.0, -21.7, -20.05)" width="43.45" xlink:href="#shape4"/>
    </g>
    <g id="shape4" transform="matrix(1.0, 0.0, 0.0, 1.0, 21.7, 20.05)">
      <path d="M-21.7 19.8 L-19.2 -18.4 -7.75 -19.85 -0.15 -5.25 7.3 -20.05 18.7 -19.2 21.75 19.25 8.8 19.7 7.85 -0.8 7.45 -0.85 4.55 7.85 -5.0 7.95 -7.55 -0.25 -8.0 -0.15 -9.2 20.05 -21.7 19.8" fill="#a09231" fill-rule="evenodd" stroke="none"/>
    </g>
    <g id="sprite7" transform="matrix(1.0, 0.0, 0.0, 1.0, 20.5, 20.1)">
      <use height="40.25" transform="matrix(1.0, 0.0, 0.0, 1.0, -20.5, -20.1)" width="41.05" xlink:href="#shape5"/>
    </g>
    <g id="shape5" transform="matrix(1.0, 0.0, 0.0, 1.0, 20.5, 20.1)">
      <path d="M-9.8 -5.6 L1.75 -5.2 Q1.65 -5.65 1.4 -6.05 1.2 -6.5 0.9 -6.9 0.6 -7.25 0.25 -7.6 -0.15 -7.95 -0.6 -8.25 -1.05 -8.55 -1.6 -8.75 -2.15 -9.0 -2.75 -9.15 -3.35 -9.3 -4.05 -9.4 -4.75 -9.5 -5.5 -9.5 -5.85 -9.5 -6.3 -9.45 -6.7 -9.45 -7.15 -9.4 -7.6 -9.35 -8.1 -9.25 -8.55 -9.2 -9.05 -9.15 -9.5 -9.05 -9.95 -8.95 -10.4 -8.85 -10.8 -8.75 -11.2 -8.65 -11.55 -8.6 -11.9 -8.5 -12.2 -8.4 L-13.8 -19.2 Q-13.3 -19.35 -12.8 -19.45 -12.25 -19.6 -11.7 -19.7 -11.15 -19.85 -10.55 -19.95 -9.95 -20.05 -9.35 -20.15 -8.7 -20.25 -8.1 -20.35 -7.45 -20.4 -6.85 -20.5 -6.2 -20.55 -5.6 -20.55 -4.95 -20.6 -4.4 -20.6 -2.05 -20.6 0.1 -20.25 2.25 -19.9 4.2 -19.25 6.15 -18.55 7.85 -17.55 9.5 -16.5 10.9 -15.2 12.35 -13.85 13.45 -12.2 14.55 -10.55 15.3 -8.6 16.05 -6.65 16.45 -4.4 16.85 -2.1 16.85 0.45 16.85 2.7 16.45 4.8 16.05 6.85 15.3 8.7 14.55 10.5 13.45 12.1 12.35 13.65 10.95 14.95 9.55 16.25 7.9 17.25 6.2 18.25 4.25 18.95 2.3 19.65 0.15 20.0 -2.05 20.35 -4.4 20.35 -5.0 20.35 -5.65 20.3 -6.3 20.3 -6.9 20.25 -7.55 20.2 -8.2 20.1 -8.85 20.05 -9.5 19.95 -10.1 19.85 -10.75 19.7 -11.35 19.6 -11.95 19.45 -12.55 19.35 -13.1 19.15 -13.65 19.0 -14.2 18.85 L-13.1 7.05 Q-12.75 7.2 -12.3 7.3 -11.9 7.4 -11.4 7.5 -10.95 7.65 -10.5 7.75 -10.0 7.8 -9.5 7.9 -9.0 8.0 -8.5 8.05 -8.0 8.1 -7.55 8.15 -7.05 8.2 -6.6 8.2 -6.1 8.25 -5.7 8.25 -5.1 8.25 -4.5 8.2 -3.9 8.15 -3.35 8.0 -2.75 7.9 -2.2 7.7 -1.65 7.5 -1.15 7.25 -0.6 7.0 -0.15 6.65 0.35 6.3 0.7 5.9 1.1 5.5 1.4 5.0 1.7 4.5 1.95 3.95 L-9.7 4.45 -9.8 -5.6 -9.8 -5.6" fill="#4f8c45" fill-rule="evenodd" stroke="none"/>
    </g>
    <g id="sprite8" transform="matrix(1.0, 0.0, 0.0, 1.0, 16.2, 19.9)">
      <use height="39.85" transform="matrix(1.0, 0.0, 0.0, 1.0, -16.2, -19.9)" width="32.4" xlink:href="#shape6"/>
    </g>
    <g id="shape6" transform="matrix(1.0, 0.0, 0.0, 1.0, 16.2, 19.9)">
      <path d="M-15.55 -11.25 L-4.3 -11.15 -4.65 3.2 -4.3 3.3 5.15 -11.5 15.85 -10.95 16.2 19.0 4.65 19.3 4.95 4.25 -5.3 19.3 -16.2 18.5 -15.55 -11.25 -15.55 -11.25 M-2.75 -19.65 Q-2.7 -19.35 -2.65 -19.1 -2.6 -18.85 -2.5 -18.65 -2.4 -18.4 -2.25 -18.2 -2.15 -18.0 -1.95 -17.85 -1.8 -17.7 -1.6 -17.6 -1.45 -17.45 -1.2 -17.35 -1.0 -17.3 -0.75 -17.25 -0.5 -17.2 -0.25 -17.2 0.05 -17.2 0.35 -17.25 0.6 -17.3 0.85 -17.35 1.05 -17.45 1.25 -17.6 1.4 -17.7 1.55 -17.85 1.7 -18.0 1.8 -18.2 1.85 -18.4 1.95 -18.6 2.0 -18.8 2.0 -19.05 2.05 -19.3 2.05 -19.6 L1.95 -19.75 Q1.95 -19.8 1.95 -19.9 L7.2 -19.9 Q7.2 -19.85 7.25 -19.75 7.25 -19.7 7.25 -19.6 7.25 -19.55 7.3 -19.5 7.3 -19.4 7.3 -19.35 7.3 -19.3 7.3 -19.2 7.3 -19.15 7.3 -19.05 7.3 -19.0 7.3 -18.95 7.3 -18.9 7.3 -18.8 7.3 -18.15 7.2 -17.55 7.05 -16.95 6.8 -16.4 6.55 -15.85 6.2 -15.4 5.85 -14.9 5.4 -14.5 4.95 -14.1 4.4 -13.75 3.8 -13.45 3.15 -13.2 2.5 -13.0 1.8 -12.85 1.05 -12.75 0.25 -12.75 -0.6 -12.75 -1.35 -12.85 -2.1 -12.95 -2.8 -13.15 -3.5 -13.35 -4.1 -13.65 -4.7 -13.95 -5.25 -14.35 -5.75 -14.75 -6.2 -15.25 -6.6 -15.75 -6.95 -16.35 -7.25 -17.0 -7.45 -17.7 -7.7 -18.45 -7.75 -19.25 L-2.75 -19.65 -2.75 -19.65" fill="#208a71" fill-rule="evenodd" stroke="none"/>
    </g>
    <g id="sprite9" transform="matrix(1.0, 0.0, 0.0, 1.0, 14.35, 19.95)">
      <use height="39.9" transform="matrix(1.0, 0.0, 0.0, 1.0, -14.35, -19.95)" width="28.7" xlink:href="#shape7"/>
    </g>
    <g id="shape7" transform="matrix(1.0, 0.0, 0.0, 1.0, 14.35, 19.95)">
      <path d="M5.45 -8.25 L5.9 18.95 -5.45 19.45 -5.2 -8.05 -14.0 -7.75 -13.9 -18.95 13.5 -19.45 13.75 -8.45 5.45 -8.25 5.45 -8.25" fill="#2f6ba8" fill-rule="evenodd" stroke="none"/>
    </g>
    <g id="sprite10" transform="matrix(1.0, 0.0, 0.0, 1.0, 171.3, 159.2)">
      <use height="318.4" transform="matrix(1.0, 0.0, 0.0, 1.0, -171.25, -159.2)" width="342.55" xlink:href="#shape8"/>
    </g>
    <g id="shape8" transform="matrix(1.0, 0.0, 0.0, 1.0, 171.25, 159.2)">
      <path d="M171.25 4.35 Q169.25 70.65 118.0 116.25 66.7 161.8 -4.7 159.05 -76.15 156.3 -123.55 111.55 -171.0 66.8 -171.25 -2.2 -171.5 -71.2 -118.9 -116.8 -66.35 -162.45 4.75 -158.95 75.85 -155.5 124.55 -108.75 173.2 -62.0 171.25 4.35" fill="#4e2e7f" fill-rule="evenodd" stroke="none"/>
    </g>
    <g id="sprite11" transform="matrix(1.0, 0.0, 0.0, 1.0, 192.4, 153.3)">
      <use height="121.55" transform="matrix(0.812, -0.5836, 0.5836, 0.812, -95.4823, -19.0919)" width="82.55" xlink:href="#sprite12"/>
      <use height="321.6" transform="matrix(1.04, 0.0, 0.0, 1.04, -192.4097, -102.4365)" width="210.55" xlink:href="#sprite13"/>
      <use height="156.15" transform="matrix(0.9574, 0.1142, -0.0526, 0.9461, -140.1194, -85.6489)" width="152.1" xlink:href="#sprite14"/>
      <use height="270.35" transform="matrix(1.0, 0.0, 0.0, 1.0, -35.45, -127.4)" width="159.15" xlink:href="#sprite15"/>
      <use height="239.45" transform="matrix(1.0, 0.0, 0.0, 1.0084, -9.95, -7.2984)" width="160.05" xlink:href="#sprite16"/>
      <use height="63.35" transform="matrix(1.0, 0.0, 0.0, 1.0, -1.1, -70.15)" width="34.35" xlink:href="#sprite17"/>
      <use height="65.0" transform="matrix(1.0, 0.0, 0.0, 1.0, -57.8, 28.25)" width="127.5" xlink:href="#sprite18"/>
      <use height="153.35" transform="matrix(1.0546, -0.0768, 0.0795, 1.0912, -87.1884, -138.3194)" width="81.1" xlink:href="#sprite19"/>
    </g>
    <g id="sprite12" transform="matrix(1.0, 0.0, 0.0, 1.0, 61.15, 102.0)">
      <use height="121.55" transform="matrix(1.0, 0.0, 0.0, 1.0, -61.15, -102.0)" width="82.55" xlink:href="#shape9"/>
    </g>
    <g id="shape9" transform="matrix(1.0, 0.0, 0.0, 1.0, 61.15, 102.0)">
      <path d="M-24.1 18.3 L-29.3 15.85 Q-33.7 14.4 -35.65 12.9 L-36.3 12.3 -39.55 10.55 Q-47.75 5.95 -53.9 1.25 -56.3 -0.6 -56.85 -2.0 -57.95 -4.65 -56.05 -6.9 -53.8 -9.7 -48.3 -9.1 -41.85 -8.5 -36.15 -6.5 -45.2 -20.3 -53.65 -37.05 -55.8 -41.5 -55.75 -44.2 -55.7 -45.85 -54.95 -49.1 -53.55 -54.45 -50.75 -56.3 -46.9 -58.95 -41.0 -55.0 L-30.95 -48.2 Q-26.2 -44.7 -23.8 -42.4 -24.05 -48.75 -23.45 -63.7 -22.6 -85.0 -21.45 -86.85 -20.2 -88.7 -19.45 -90.35 -18.55 -92.3 -16.9 -93.65 -15.2 -95.15 -13.25 -95.4 -9.95 -95.75 -7.45 -91.05 -2.7 -82.3 4.2 -63.9 6.7 -57.1 8.9 -51.65 L9.5 -51.15 Q11.75 -49.15 14.15 -44.55 22.0 -29.15 21.35 -15.75 20.95 -9.85 19.25 -5.75 17.4 -1.4 12.55 4.45 L12.5 6.1 Q12.55 8.05 11.85 9.2 11.0 10.6 9.1 11.45 7.45 12.15 5.65 12.05 L5.35 12.0 4.3 12.9 Q-3.2 18.5 -13.1 18.65 L-16.4 18.55 -16.7 18.75 Q-17.95 19.55 -19.4 19.55 -21.1 19.65 -24.1 18.3" fill="#ffffff" fill-opacity="0.9882353" fill-rule="evenodd" stroke="none"/>
      <path d="M-18.4 -35.95 Q-19.65 -35.25 -20.85 -36.5 L-21.4 -36.65 Q-22.2 -36.95 -23.1 -37.7 L-23.35 -37.85 -23.85 -37.95 Q-24.45 -38.05 -25.7 -38.9 -31.75 -43.6 -34.35 -46.25 L-38.5 -50.3 Q-42.65 -53.95 -48.7 -55.45 -50.3 -47.55 -48.95 -40.3 -47.75 -33.45 -43.25 -25.25 L-35.3 -11.4 Q-33.9 -8.6 -33.3 -6.65 -32.7 -4.6 -33.75 -3.4 -34.85 -2.3 -36.35 -2.45 -37.3 -2.55 -38.45 -3.4 L-39.55 -4.3 -44.95 -5.55 Q-50.7 -6.5 -53.85 -5.75 -53.6 -3.4 -51.35 -0.55 -48.25 3.2 -43.1 6.6 -40.1 8.55 -33.35 12.15 L-26.5 15.75 Q-25.6 16.2 -25.35 16.6 -24.9 17.4 -25.45 18.1 -26.0 18.75 -27.55 18.9 L-34.65 18.55 -37.2 17.4 -41.1 16.1 Q-43.6 15.2 -46.75 13.2 -54.75 8.05 -58.9 2.15 -60.55 -0.2 -60.95 -2.2 -61.55 -5.05 -60.15 -7.45 -59.1 -9.25 -56.85 -10.7 -54.85 -11.9 -52.6 -12.3 L-45.2 -11.75 -46.65 -14.35 -51.6 -23.75 Q-54.1 -29.0 -55.45 -33.6 -58.95 -45.45 -55.8 -56.1 -54.25 -61.55 -50.85 -62.75 -48.85 -63.5 -46.0 -62.45 -39.05 -60.0 -33.65 -55.05 L-29.05 -50.15 -25.3 -45.85 -25.7 -47.25 Q-26.95 -51.95 -27.8 -58.8 -28.95 -68.25 -28.35 -75.55 -27.55 -84.9 -23.9 -92.7 -22.15 -96.45 -20.25 -98.5 -17.25 -101.6 -14.2 -101.95 -10.3 -102.4 -6.85 -97.95 -3.1 -93.2 0.2 -86.25 2.15 -82.15 5.7 -73.45 L20.6 -35.9 Q21.2 -34.5 21.1 -33.6 21.0 -32.05 19.65 -31.35 17.95 -30.4 16.3 -32.75 14.75 -35.3 12.15 -40.75 1.6 -63.25 -2.6 -74.4 -5.7 -82.45 -7.05 -85.2 -9.95 -91.1 -13.7 -94.45 -14.4 -94.95 -14.8 -94.85 -15.5 -94.7 -16.05 -93.5 -21.65 -81.7 -20.2 -65.55 L-18.4 -52.3 Q-17.3 -44.2 -17.15 -38.95 -17.15 -36.55 -18.4 -35.95" fill="#000000" fill-opacity="0.9882353" fill-rule="evenodd" stroke="none"/>
    </g>
    <g id="sprite13" transform="matrix(1.0, 0.0, 0.0, 1.0, 102.8, 161.0)">
      <use height="321.6" transform="matrix(1.0, 0.0, 0.0, 1.0, -102.8, -161.0)" width="210.55" xlink:href="#shape10"/>
    </g>
    <g id="shape10" transform="matrix(1.0, 0.0, 0.0, 1.0, 102.8, 161.0)">
      <path d="M18.55 41.0 Q18.75 41.95 18.55 42.9 18.4 44.0 17.65 43.0 17.8 41.5 17.1 39.15 16.3 36.5 16.3 35.35 18.05 34.2 18.4 36.9 L18.55 41.0" fill="#000000" fill-rule="evenodd" stroke="none"/>
      <path d="M-0.5 -150.45 Q0.0 -150.45 0.0 -150.0 0.0 -149.65 -0.5 -149.65 -0.95 -149.65 -0.95 -150.0 L-0.5 -150.45" fill="#000000" fill-rule="evenodd" stroke="none"/>
      <path d="M45.4 31.85 Q41.9 29.6 42.1 58.65 L42.45 82.15 Q42.7 93.95 42.35 95.4 41.4 111.85 42.7 119.75 43.7 125.7 46.45 128.6 L48.85 130.8 Q50.35 132.15 51.25 133.45 53.8 137.25 54.75 145.55 L54.05 145.95 50.25 146.6 49.55 141.65 Q49.05 138.3 48.2 135.8 47.25 133.0 45.55 131.85 L43.45 130.65 41.4 129.55 38.45 127.15 37.5 126.35 Q37.0 125.75 36.85 125.35 L36.8 123.25 37.55 30.6 45.45 29.3 45.4 31.85 M33.05 31.3 L32.35 103.75 32.35 125.3 32.4 126.1 33.0 127.1 33.9 127.95 Q36.2 130.25 39.4 131.85 L41.1 132.75 42.6 134.1 Q43.5 135.35 44.1 137.5 L44.85 141.2 45.75 147.05 Q40.45 147.4 33.95 147.1 18.2 146.4 11.55 147.25 L3.1 147.15 4.8 135.0 Q6.25 136.0 8.8 134.95 11.4 133.95 13.65 131.7 19.7 128.45 20.6 119.55 20.85 116.65 20.75 111.9 L20.5 104.65 Q20.65 93.55 20.15 70.75 19.65 48.3 19.85 36.85 19.75 35.75 19.25 36.0 18.6 36.25 18.3 35.25 L18.05 34.65 18.05 33.75 33.05 31.3" fill="#ffffff" fill-rule="evenodd" stroke="none"/>
      <path d="M45.4 31.85 L46.05 32.5 Q46.8 43.0 46.9 59.25 L47.05 86.05 Q48.1 92.0 46.65 109.15 46.35 124.35 53.15 128.45 56.9 130.25 59.4 138.6 61.5 145.7 58.85 147.55 L58.5 148.0 Q56.7 150.2 54.55 150.75 46.75 153.25 34.5 152.95 L14.25 152.4 Q12.95 153.5 11.2 153.4 9.6 153.3 8.55 152.35 7.45 151.3 7.75 150.05 8.1 148.55 10.25 147.4 L11.55 147.25 Q18.2 146.4 33.95 147.1 40.45 147.4 45.75 147.05 L44.85 141.2 44.1 137.5 Q43.5 135.35 42.6 134.1 L41.1 132.75 39.4 131.85 Q36.2 130.25 33.9 127.95 L33.0 127.1 32.4 126.1 32.35 125.3 32.35 103.75 33.05 31.3 33.2 15.0 Q33.2 14.25 34.55 14.0 L35.9 14.1 36.3 14.0 Q37.65 13.65 37.65 14.25 L37.55 30.6 36.8 123.25 36.85 125.35 Q37.0 125.75 37.5 126.35 L38.45 127.15 41.4 129.55 43.45 130.65 45.55 131.85 Q47.25 133.0 48.2 135.8 49.05 138.3 49.55 141.65 L50.25 146.6 54.05 145.95 54.75 145.8 54.75 145.55 Q53.8 137.25 51.25 133.45 50.35 132.15 48.85 130.8 L46.45 128.6 Q43.7 125.7 42.7 119.75 41.4 111.85 42.35 95.4 42.7 93.95 42.45 82.15 L42.1 58.65 Q41.9 29.6 45.4 31.85 M4.8 135.0 L3.9 134.1 Q4.4 132.35 6.3 130.85 L10.15 128.15 Q15.35 124.55 15.8 119.25 16.45 109.7 15.75 93.25 15.0 74.25 15.15 67.15 14.75 53.25 14.65 43.7 14.5 25.9 18.05 34.65 L18.3 35.25 Q18.6 36.25 19.25 36.0 19.75 35.75 19.85 36.85 19.65 48.3 20.15 70.75 20.65 93.55 20.5 104.65 L20.75 111.9 Q20.85 116.65 20.6 119.55 19.7 128.45 13.65 131.7 11.4 133.95 8.8 134.95 6.25 136.0 4.8 135.0" fill="#000000" fill-rule="evenodd" stroke="none"/>
      <path d="M-7.55 87.2 L-9.2 66.15 -9.15 66.15 -8.9 68.45 Q12.2 65.9 22.75 66.45 23.35 72.45 22.75 84.55 L7.4 86.05 -7.55 87.2" fill="#ffffff" fill-rule="evenodd" stroke="none"/>
      <path d="M-9.15 66.15 L-9.45 63.8 7.75 62.0 Q18.9 61.15 24.8 62.2 27.65 63.75 27.8 68.45 L27.6 76.1 27.65 83.3 Q27.5 86.45 25.7 88.35 21.25 89.95 9.65 90.65 L-7.15 91.85 -7.65 87.2 -7.55 87.2 7.4 86.05 22.75 84.55 Q23.35 72.45 22.75 66.45 12.2 65.9 -8.9 68.45 L-9.15 66.15" fill="#000000" fill-rule="evenodd" stroke="none"/>
      <path d="M-33.9 -32.2 Q-33.45 -30.2 -33.45 -27.2 L-33.65 -20.65 Q-33.75 -17.0 -33.35 -15.35 -31.05 57.2 -34.35 130.95 -35.7 133.9 -38.9 136.55 L-44.6 140.85 Q-51.25 146.05 -49.65 153.75 L-30.45 154.05 -11.25 154.5 -2.1 155.05 -2.55 151.75 Q-3.8 143.75 -7.05 139.55 -9.05 137.05 -11.85 135.8 L-13.8 135.2 Q-13.1 135.25 -13.85 135.15 L-13.9 135.15 -14.7 135.0 Q-15.85 134.55 -16.45 132.6 L-17.05 129.5 Q-17.85 125.0 -18.25 116.7 L-18.65 98.65 Q-18.75 81.3 -18.1 55.3 L-17.0 15.75 -16.85 2.75 -16.95 -1.05 Q-16.95 -2.5 -17.15 -2.85 -17.4 -3.4 -16.1 -3.8 L-14.5 -3.7 -14.3 -3.8 Q-13.0 -4.2 -12.65 -3.6 L-12.5 -3.05 -12.3 0.75 -12.35 4.55 -12.65 19.0 -13.75 59.7 Q-14.35 87.05 -14.15 102.7 -13.95 112.95 -13.55 119.55 -13.1 127.15 -12.2 130.7 L-11.65 132.4 -11.2 133.4 -10.85 133.7 -10.8 133.8 -10.9 133.75 Q-11.75 133.65 -11.3 133.75 -10.7 133.85 -11.0 133.75 L-10.8 133.8 -10.3 133.85 Q-8.95 134.1 -7.15 134.95 -2.0 137.55 0.4 144.45 1.7 148.15 2.45 154.4 5.4 153.55 7.65 151.6 7.4 150.75 7.55 150.0 8.6 144.05 3.45 139.2 L-6.55 131.65 Q-7.45 107.95 -7.45 68.85 -7.45 20.3 -7.65 5.9 -7.65 3.6 -5.65 3.3 L-4.85 3.2 Q-2.05 3.2 -2.05 5.9 L-1.4 128.5 Q6.0 133.3 9.15 137.1 L10.4 138.8 Q11.6 140.55 12.3 142.45 13.55 145.85 13.15 149.7 13.15 159.65 -1.05 160.5 -5.15 160.75 -12.95 160.2 L-22.95 159.9 -52.15 159.35 Q-54.4 159.2 -54.95 156.5 -55.15 153.25 -55.45 152.0 -56.0 145.25 -52.0 140.25 L-51.1 139.2 -47.9 136.35 -46.05 134.85 -40.55 130.3 Q-38.6 109.95 -38.25 80.7 L-38.1 30.75 Q-38.35 -2.1 -39.7 -33.4 -39.7 -34.5 -38.85 -35.35 -37.95 -36.2 -36.8 -36.2 -34.7 -35.6 -33.9 -32.2" fill="#000000" fill-rule="evenodd" stroke="none"/>
      <path d="M-5.65 3.3 Q-7.65 3.6 -7.65 5.9 -7.45 20.3 -7.45 68.85 -7.45 107.95 -6.55 131.65 L3.45 139.2 Q8.6 144.05 7.55 150.0 7.4 150.75 7.65 151.6 5.4 153.55 2.45 154.4 1.7 148.15 0.4 144.45 -2.0 137.55 -7.15 134.95 -8.95 134.1 -10.3 133.85 L-10.8 133.8 -11.0 133.75 Q-10.7 133.85 -11.3 133.75 -11.75 133.65 -10.9 133.75 L-10.8 133.8 -10.85 133.7 -11.2 133.4 -11.65 132.4 -12.2 130.7 Q-13.1 127.15 -13.55 119.55 -13.95 112.95 -14.15 102.7 -14.35 87.05 -13.75 59.7 L-12.65 19.0 -12.35 4.55 -12.3 0.75 -12.5 -3.05 -12.65 -3.6 Q-13.0 -4.2 -14.3 -3.8 L-14.5 -3.7 -16.1 -3.8 Q-17.4 -3.4 -17.15 -2.85 -16.95 -2.5 -16.95 -1.05 L-16.85 2.75 -17.0 15.75 -18.1 55.3 Q-18.75 81.3 -18.65 98.65 L-18.25 116.7 Q-17.85 125.0 -17.05 129.5 L-16.45 132.6 Q-15.85 134.55 -14.7 135.0 L-13.9 135.15 -13.85 135.15 Q-13.1 135.25 -13.8 135.2 L-11.85 135.8 Q-9.05 137.05 -7.05 139.55 -3.8 143.75 -2.55 151.75 L-2.1 155.05 -11.25 154.5 -30.45 154.05 -49.65 153.75 Q-51.25 146.05 -44.6 140.85 L-38.9 136.55 Q-35.7 133.9 -34.35 130.95 -31.05 57.2 -33.35 -15.35 -33.75 -17.0 -33.65 -20.65 L-33.45 -27.2 Q-33.45 -30.2 -33.9 -32.2 L-5.65 3.3 M-47.9 136.35 L-51.1 139.2 -52.0 140.25 -52.0 139.9 Q-52.0 139.35 -49.55 137.5 L-47.9 136.35 M12.3 142.45 Q11.6 140.55 10.4 138.8 11.4 139.9 11.9 141.1 L12.3 142.45" fill="#ffffff" fill-rule="evenodd" stroke="none"/>
      <path d="M97.35 16.4 L107.75 13.5 Q100.7 20.0 88.65 23.0 76.6 25.95 73.35 27.35 66.55 30.3 48.75 34.3 31.65 37.85 29.65 38.5 19.15 41.5 9.8 31.15 7.5 28.55 2.4 21.6 -2.2 15.45 -4.9 12.75 -44.6 -37.05 -73.8 -86.4 -80.3 -97.6 -90.0 -115.2 -99.15 -131.95 -100.2 -134.55 L-102.1 -138.4 Q-102.9 -140.25 -102.8 -142.5 -102.75 -143.8 -101.65 -147.3 L-99.65 -152.25 Q-98.55 -154.5 -97.15 -156.0 -93.9 -160.8 -90.6 -160.95 L-82.25 -160.6 -72.55 -159.8 Q-32.85 -156.8 -1.95 -151.2 2.75 -149.35 6.65 -142.4 L9.75 -136.55 Q11.6 -133.1 13.15 -131.2 L29.7 -104.5 Q39.15 -89.35 46.7 -78.0 58.05 -60.8 74.35 -38.35 74.9 -37.25 100.8 -3.7 107.85 4.85 105.1 4.25 L106.2 4.8 104.2 11.0 104.7 9.1 101.4 10.5 Q89.3 15.25 67.6 19.9 45.15 24.7 29.8 26.0 L24.6 33.85 Q30.4 34.0 39.75 31.55 L54.8 27.7 67.5 24.65 97.35 16.4 M102.55 3.05 L101.6 2.45 Q72.8 -28.2 58.25 -50.25 43.05 -74.55 39.75 -78.4 15.45 -115.25 -0.15 -146.15 L-44.3 -151.5 -88.7 -156.0 -88.7 -155.9 Q-73.75 -121.05 -34.75 -63.35 2.7 -7.95 29.6 20.9 44.5 19.65 66.8 14.85 89.8 9.95 103.35 4.2 L104.1 3.85 Q103.4 3.55 102.55 3.05 M20.65 32.3 L26.15 24.0 Q-0.7 -5.0 -37.7 -59.85 -76.25 -117.0 -92.15 -152.85 L-94.7 -149.05 Q-96.55 -145.8 -97.1 -143.9 -98.15 -140.55 -96.7 -138.0 -65.85 -82.3 -43.65 -48.8 -12.45 -1.75 20.65 32.3" fill="#000000" fill-rule="evenodd" stroke="none"/>
      <path d="M97.35 16.4 L67.5 24.65 54.8 27.7 39.75 31.55 Q30.4 34.0 24.6 33.85 L29.8 26.0 Q45.15 24.7 67.6 19.9 89.3 15.25 101.4 10.5 L99.9 13.9 Q98.95 15.25 97.35 16.4 M103.35 4.2 Q89.8 9.95 66.8 14.85 44.5 19.65 29.6 20.9 2.7 -7.95 -34.75 -63.35 -73.75 -121.05 -88.7 -155.9 L-88.7 -156.0 -44.3 -151.5 -0.15 -146.15 Q15.45 -115.25 39.75 -78.4 43.05 -74.55 58.25 -50.25 72.8 -28.2 101.6 2.45 L102.55 3.05 103.35 4.15 103.35 4.2 M20.65 32.3 Q-12.45 -1.75 -43.65 -48.8 -65.85 -82.3 -96.7 -138.0 -98.15 -140.55 -97.1 -143.9 -96.55 -145.8 -94.7 -149.05 L-92.15 -152.85 Q-76.25 -117.0 -37.7 -59.85 -0.7 -5.0 26.15 24.0 L20.65 32.3" fill="#ffffff" fill-rule="evenodd" stroke="none"/>
    </g>
    <g id="sprite14" transform="matrix(1.0, 0.0, 0.0, 1.0, 72.6, 79.55)">
      <use height="156.1" transform="matrix(1.0, 0.0, 0.0, 1.0, -72.6, -79.55)" width="152.1" xlink:href="#shape11"/>
    </g>
    <g id="shape11" transform="matrix(1.0, 0.0, 0.0, 1.0, 72.6, 79.55)">
      <path d="M47.5 17.95 Q43.25 12.85 29.5 -4.95 L5.85 -35.15 -3.3 -46.65 -9.55 -55.1 Q4.25 -43.2 18.15 -26.35 36.85 -3.7 47.5 17.95 M-21.65 -64.6 L-39.4 -67.6 -34.35 -67.15 -65.65 -73.7 Q-66.6 -72.55 -66.2 -70.8 -64.65 -64.45 -62.6 -58.25 L-70.95 -58.5 Q-71.9 -70.0 -66.25 -75.6 -56.2 -85.4 -31.5 -71.0 -26.6 -68.15 -21.65 -64.6 M-70.15 -52.7 Q-65.25 -43.35 -59.4 -34.1 -46.25 -12.9 -31.95 7.35 L-19.2 24.75 4.15 55.3 Q-13.0 41.95 -30.25 21.05 -55.2 -9.15 -65.7 -37.45 -68.85 -45.9 -70.15 -52.7 M31.2 71.55 L31.9 71.2 Q36.25 69.5 51.15 64.7 L58.45 62.25 Q57.3 67.2 54.15 70.3 46.75 77.6 31.2 71.55 M-61.8 -55.7 L-61.9 -55.75 Q-62.15 -56.35 -61.8 -55.7" fill="#000000" fill-rule="evenodd" stroke="none"/>
      <path d="M-22.25 12.0 L-24.1 9.2 -25.1 7.15 -26.1 4.65 -28.5 -3.45 Q-30.65 -11.75 -30.5 -20.15 -30.35 -26.15 -29.2 -32.05 L-27.85 -41.45 -30.2 -42.65 -30.9 -43.0 -33.8 -44.65 Q-38.75 -47.35 -43.25 -51.4 L-48.2 -55.95 -59.35 -67.4 Q-51.55 -65.3 -43.2 -63.75 L-37.8 -62.6 -33.0 -61.65 -28.75 -61.05 -22.1 -60.1 -19.55 -60.0 Q-19.0 -59.9 -18.45 -60.3 L-15.35 -55.4 -11.4 -49.8 Q-6.6 -43.3 -1.5 -37.15 2.6 -31.45 7.95 -27.1 L9.2 -26.15 9.2 -24.75 Q27.25 2.7 53.65 32.15 L60.95 40.2 56.7 41.5 43.35 45.75 Q26.8 50.9 10.6 57.15 L-22.25 12.0 M14.45 34.4 Q21.45 32.1 19.7 32.15 L13.85 32.5 Q9.75 32.75 5.8 30.75 2.6 29.15 1.25 27.15 -0.3 24.7 -0.55 20.45 -0.7 17.1 0.45 8.85 1.35 1.5 0.75 -2.85 0.05 -7.3 -2.1 -9.4 -3.5 -10.6 -5.4 -10.65 -7.15 -10.75 -8.85 -9.95 -11.25 -8.75 -13.2 -5.85 -14.7 -3.95 -16.7 -0.35 -17.8 1.55 -17.0 2.7 -16.25 3.65 -15.25 3.15 L-13.9 1.75 Q-10.4 -3.4 -6.8 -5.2 L-4.1 -5.15 Q-3.5 -4.55 -3.25 -2.9 -2.65 0.7 -3.6 6.55 L-4.7 14.1 Q-5.25 18.5 -4.95 21.9 -4.7 25.1 -3.55 27.65 -2.8 29.25 -1.5 30.9 0.95 33.85 4.2 35.25 7.5 36.7 14.45 34.4 M-58.4 -58.4 L-59.1 -60.6 -55.1 -56.45 -47.05 -48.5 Q-40.3 -41.9 -32.25 -39.15 -33.75 -36.0 -34.4 -32.45 -36.85 -19.5 -33.65 -6.05 -37.8 -13.1 -41.5 -20.45 L-50.5 -38.65 Q-55.0 -48.25 -58.4 -58.4 M-61.5 -54.95 L-49.2 -26.6 -67.0 -53.6 -61.5 -54.95 M61.0 52.5 L62.0 53.05 63.4 52.85 64.25 51.65 64.6 50.4 Q64.5 49.45 63.95 48.95 63.45 48.5 62.65 48.35 62.05 48.35 61.25 48.95 60.45 49.5 60.4 50.4 60.25 51.05 60.55 51.75 L61.0 52.5 M21.35 62.25 L21.15 62.75 Q20.65 63.7 21.05 64.95 21.3 65.65 21.85 66.05 22.2 66.55 22.85 66.6 23.5 66.7 24.9 65.75 L25.65 65.0 Q26.35 64.05 25.85 62.9 25.45 62.0 24.5 61.7 23.85 61.35 22.9 61.35 L22.75 61.5 22.7 61.5 22.05 61.6 21.35 62.25 M45.2 59.65 L47.05 58.95 Q48.0 58.2 48.25 57.15 48.35 56.35 48.05 55.5 L46.9 54.25 Q45.7 53.35 44.0 53.8 43.25 54.0 41.3 55.0 L39.7 55.95 Q38.8 56.6 38.75 57.45 38.55 58.25 38.9 59.0 39.2 59.85 39.85 60.25 L42.5 60.3 45.2 59.65 M66.4 43.7 L73.5 52.35 Q64.7 56.5 58.95 58.5 L56.0 59.4 Q39.8 63.9 25.55 69.05 L21.65 70.45 12.7 60.4 67.25 42.95 66.4 43.7" fill="#ffffff" fill-rule="evenodd" stroke="none"/>
      <path d="M-22.25 12.0 L10.6 57.15 Q26.8 50.9 43.35 45.75 L56.7 41.5 60.95 40.2 53.65 32.15 Q27.25 2.7 9.2 -24.75 L9.2 -26.15 7.95 -27.1 Q2.6 -31.45 -1.5 -37.15 -6.6 -43.3 -11.4 -49.8 L-15.35 -55.4 -18.45 -60.3 Q-19.0 -59.9 -19.55 -60.0 L-22.1 -60.1 -28.75 -61.05 -33.0 -61.65 -37.8 -62.6 -43.2 -63.75 Q-51.55 -65.3 -59.35 -67.4 L-48.2 -55.95 -43.25 -51.4 Q-38.75 -47.35 -33.8 -44.65 L-30.9 -43.0 -30.2 -42.65 -27.85 -41.45 -29.2 -32.05 Q-30.35 -26.15 -30.5 -20.15 -30.65 -11.75 -28.5 -3.45 L-26.1 4.65 -25.1 7.15 -24.1 9.2 -22.25 12.0 M-9.55 -55.1 L-3.3 -46.65 5.85 -35.15 29.5 -4.95 Q43.25 12.85 47.5 17.95 L48.1 18.65 55.6 27.7 Q59.25 32.35 62.7 34.9 66.05 37.4 67.1 38.75 67.75 38.4 67.85 38.75 L74.7 47.5 79.5 54.0 78.5 54.4 79.0 55.0 Q75.05 55.75 74.0 56.25 68.1 58.9 58.45 62.25 L51.15 64.7 Q36.25 69.5 31.9 71.2 L31.2 71.55 20.85 76.5 Q20.35 76.75 19.7 75.85 L4.15 55.3 -19.2 24.75 -31.95 7.35 Q-46.25 -12.9 -59.4 -34.1 -65.25 -43.35 -70.15 -52.7 L-71.65 -55.6 -72.6 -58.1 -70.95 -58.5 -62.6 -58.25 Q-64.65 -64.45 -66.2 -70.8 -66.6 -72.55 -65.65 -73.7 L-34.35 -67.15 -39.4 -67.6 -21.65 -64.6 -17.8 -64.05 -15.2 -63.3 -13.95 -62.3 Q-13.2 -60.4 -11.35 -57.7 L-9.55 -55.1 M-61.8 -55.7 Q-62.15 -56.35 -61.9 -55.75 L-61.8 -55.7 M-61.5 -54.95 L-67.0 -53.6 -49.2 -26.6 -61.5 -54.95 M-58.4 -58.4 Q-55.0 -48.25 -50.5 -38.65 L-41.5 -20.45 Q-37.8 -13.1 -33.65 -6.05 -36.85 -19.5 -34.4 -32.45 -33.75 -36.0 -32.25 -39.15 -40.3 -41.9 -47.05 -48.5 L-55.1 -56.45 -59.1 -60.6 -58.4 -58.4 M14.45 34.4 Q7.5 36.7 4.2 35.25 0.95 33.85 -1.5 30.9 -2.8 29.25 -3.55 27.65 -4.7 25.1 -4.95 21.9 -5.25 18.5 -4.7 14.1 L-3.6 6.55 Q-2.65 0.7 -3.25 -2.9 -3.5 -4.55 -4.1 -5.15 L-6.8 -5.2 Q-10.4 -3.4 -13.9 1.75 L-15.25 3.15 Q-16.25 3.65 -17.0 2.7 -17.8 1.55 -16.7 -0.35 -14.7 -3.95 -13.2 -5.85 -11.25 -8.75 -8.85 -9.95 -7.15 -10.75 -5.4 -10.65 -3.5 -10.6 -2.1 -9.4 0.05 -7.3 0.75 -2.85 1.35 1.5 0.45 8.85 -0.7 17.1 -0.55 20.45 -0.3 24.7 1.25 27.15 2.6 29.15 5.8 30.75 9.75 32.75 13.85 32.5 L19.7 32.15 Q21.45 32.1 14.45 34.4 M61.0 52.5 L60.55 51.75 Q60.25 51.05 60.4 50.4 60.45 49.5 61.25 48.95 62.05 48.35 62.65 48.35 63.45 48.5 63.95 48.95 64.5 49.45 64.6 50.4 L64.25 51.65 63.4 52.85 62.0 53.05 61.0 52.5 M63.7 39.6 Q63.2 39.0 63.35 39.75 L63.7 39.6 M66.4 43.7 L67.25 42.95 12.7 60.4 21.65 70.45 25.55 69.05 Q39.8 63.9 56.0 59.4 L58.95 58.5 Q64.7 56.5 73.5 52.35 L66.4 43.7 M45.2 59.65 L42.5 60.3 39.85 60.25 Q39.2 59.85 38.9 59.0 38.55 58.25 38.75 57.45 38.8 56.6 39.7 55.95 L41.3 55.0 Q43.25 54.0 44.0 53.8 45.7 53.35 46.9 54.25 L48.05 55.5 Q48.35 56.35 48.25 57.15 48.0 58.2 47.05 58.95 L45.2 59.65 M21.35 62.25 L22.05 61.6 22.7 61.5 22.75 61.5 22.9 61.35 Q23.85 61.35 24.5 61.7 25.45 62.0 25.85 62.9 26.35 64.05 25.65 65.0 L24.9 65.75 Q23.5 66.7 22.85 66.6 22.2 66.55 21.85 66.05 21.3 65.65 21.05 64.95 20.65 63.7 21.15 62.75 L21.35 62.25 M24.3 74.1 Q22.95 74.5 21.85 75.25 L26.7 73.3 24.3 74.1" fill="#000000" fill-opacity="0.9882353" fill-rule="evenodd" stroke="none"/>
    </g>
    <g id="sprite15" transform="matrix(1.0, 0.0, 0.0, 1.0, 79.55, 135.15)">
      <use height="270.35" transform="matrix(1.0, 0.0, 0.0, 1.0, -79.55, -135.15)" width="159.1" xlink:href="#shape12"/>
    </g>
    <g id="shape12" transform="matrix(1.0, 0.0, 0.0, 1.0, 79.55, 135.15)">
      <path d="M10.95 120.05 L-5.35 120.5 Q-21.6 121.05 -31.55 119.0 L-37.25 117.35 -37.35 117.45 Q-40.4 124.15 -48.75 131.35 -51.15 133.5 -52.65 134.25 -54.7 135.35 -56.45 135.2 -58.85 135.15 -60.0 133.45 -61.25 131.55 -60.3 128.8 L-59.3 126.75 -58.1 124.75 -56.3 121.3 Q-59.45 123.1 -63.25 123.7 -66.2 124.0 -67.75 123.0 -68.85 122.2 -69.25 120.75 -69.7 119.45 -69.4 118.0 -68.9 115.7 -66.5 113.75 L-74.6 113.5 Q-76.35 113.4 -77.4 112.9 -79.0 112.2 -79.4 111.0 -79.9 109.6 -78.6 107.35 -77.25 105.1 -75.35 103.45 -73.1 101.3 -68.4 99.2 -61.6 96.2 -54.85 94.8 L-53.15 94.55 Q-54.35 87.75 -54.3 77.8 -54.15 70.15 -53.25 54.4 -52.25 38.85 -52.25 30.9 -52.15 23.15 -52.85 6.2 L-52.85 5.75 -53.0 3.0 -53.0 2.55 -53.0 2.4 -53.0 2.1 -53.0 0.2 -53.25 0.15 -53.3 0.1 -56.3 -1.1 -65.3 -4.3 Q-66.85 -4.8 -67.6 -5.55 -68.75 -6.7 -68.45 -8.45 -68.1 -10.05 -65.95 -11.8 L-59.25 -17.7 -56.8 -19.95 -54.5 -22.35 -53.3 -23.7 -52.95 -24.05 -52.75 -28.5 -52.45 -34.1 -51.85 -41.35 Q-50.05 -57.45 -46.3 -68.35 -40.1 -86.65 -27.6 -96.95 -24.2 -99.8 -17.2 -104.0 -7.6 -109.75 -1.7 -111.85 2.3 -113.3 8.8 -114.6 L9.9 -114.8 Q11.2 -119.2 11.9 -122.5 L12.9 -127.0 Q13.6 -129.5 14.55 -131.15 15.85 -133.2 17.9 -134.3 20.05 -135.5 22.2 -135.05 25.4 -134.35 28.55 -129.6 33.3 -122.4 36.75 -114.65 48.05 -112.75 56.6 -105.75 67.45 -96.9 73.25 -79.0 79.0 -61.15 79.4 -51.3 79.8 -41.5 79.2 -22.05 78.6 -2.65 72.15 31.35 L71.95 44.0 72.05 50.55 Q72.2 61.0 73.85 76.05 75.5 91.1 75.1 98.5 74.65 105.85 73.7 109.0 72.75 112.15 69.6 116.65 66.45 121.15 60.6 121.95 L51.75 122.55 44.5 122.0 41.25 121.4 34.3 121.25 21.0 120.1 Q18.1 119.95 10.95 120.05 M66.8 44.0 L66.95 39.75 Q66.2 30.85 68.1 18.95 70.95 3.8 71.9 -3.9 73.1 -13.7 73.45 -31.85 73.75 -46.5 73.1 -54.0 72.15 -66.3 68.95 -74.95 65.7 -83.65 61.55 -90.75 57.35 -97.85 49.85 -102.55 45.75 -105.15 39.95 -106.6 L41.1 -102.75 41.15 -102.7 Q43.2 -91.45 42.75 -92.05 42.65 -89.4 41.65 -87.75 L40.7 -87.05 Q40.2 -87.0 39.65 -87.65 L39.35 -88.0 Q37.65 -90.75 36.5 -95.05 L34.7 -102.6 32.9 -107.9 31.1 -112.25 29.7 -115.3 Q25.4 -124.2 20.8 -128.95 19.4 -127.85 18.65 -125.85 18.15 -124.65 17.6 -122.1 16.9 -118.85 15.8 -115.35 L13.5 -108.75 13.45 -108.65 12.85 -107.15 11.45 -103.7 10.3 -101.25 Q9.8 -100.2 9.7 -99.35 L8.15 -95.8 Q7.3 -93.9 6.55 -93.35 6.0 -92.85 5.1 -92.8 L4.9 -92.8 Q4.25 -92.8 3.75 -93.3 2.7 -94.25 3.65 -96.75 L5.0 -100.45 Q6.4 -102.5 7.3 -107.0 L7.6 -107.85 0.4 -106.15 Q-9.15 -103.1 -17.15 -97.7 -25.2 -92.15 -31.2 -84.4 -37.35 -76.65 -40.65 -68.95 -44.0 -61.25 -45.55 -51.35 -47.15 -41.45 -47.35 -34.55 L-47.55 -29.45 -47.65 -26.9 -47.8 -22.05 -47.75 -21.9 Q-47.9 -14.15 -47.45 -3.2 L-47.45 -2.6 -47.1 2.9 -47.2 2.95 -47.05 5.75 Q-46.35 22.6 -46.4 29.15 -46.45 37.4 -47.5 55.35 -48.6 72.35 -48.55 81.45 -48.55 90.5 -47.25 96.75 -45.75 104.35 -42.2 109.85 L-41.45 110.35 Q-39.3 111.9 -36.15 112.8 L-30.4 113.95 -12.4 115.05 3.9 114.3 10.95 114.1 Q25.6 113.95 40.5 115.9 45.3 116.55 48.0 117.55 L48.45 117.75 51.8 118.55 52.0 118.5 Q61.95 118.15 65.75 113.5 67.9 110.9 68.8 105.5 69.9 99.0 69.3 90.1 L67.85 74.5 Q66.35 59.25 66.8 44.0 M-61.65 -9.25 L-54.75 -6.9 -53.2 -6.3 -53.2 -10.1 -53.2 -15.0 -53.2 -16.25 -53.15 -17.85 -56.3 -14.55 -61.65 -9.25 M-46.95 1.75 L-46.95 2.0 -47.0 1.95 -46.95 1.75 M-56.95 106.4 L-51.85 105.2 -50.15 105.1 -49.95 104.95 -50.3 104.25 -51.85 99.85 -53.7 100.35 -57.85 101.35 -59.15 101.75 -65.0 103.95 -70.35 106.3 Q-74.0 108.05 -75.4 109.4 L-71.45 109.65 -67.9 109.55 -67.55 109.5 -63.95 108.6 -61.75 107.9 -60.2 107.35 -56.95 106.4 M-49.45 108.35 L-50.9 109.2 -59.45 114.6 Q-62.95 116.6 -64.1 118.4 -62.15 118.25 -58.65 116.75 -52.7 114.05 -47.55 111.0 -47.1 110.65 -46.7 110.55 L-48.55 107.7 -48.85 107.9 -49.45 108.35 M-41.65 115.25 Q-42.3 115.25 -43.15 114.6 L-44.05 115.45 Q-45.95 116.95 -47.95 119.4 -51.65 123.75 -54.75 129.4 -53.9 129.35 -53.05 128.45 L-51.6 126.75 -50.3 125.55 -48.9 124.5 Q-47.25 123.2 -45.0 120.05 -42.6 116.55 -41.4 115.35 L-41.65 115.25" fill="#000000" fill-opacity="0.9882353" fill-rule="evenodd" stroke="none"/>
      <path d="M-61.65 -9.25 L-56.3 -14.55 -53.15 -17.85 -53.2 -16.25 -53.2 -15.0 -53.2 -10.1 -53.2 -6.3 -54.75 -6.9 -61.65 -9.25 M66.8 44.0 Q66.35 59.25 67.85 74.5 L69.3 90.1 Q69.9 99.0 68.8 105.5 67.9 110.9 65.75 113.5 61.95 118.15 52.0 118.5 L51.8 118.55 48.45 117.75 48.0 117.55 Q45.3 116.55 40.5 115.9 25.6 113.95 10.95 114.1 L3.9 114.3 -12.4 115.05 -30.4 113.95 -36.15 112.8 Q-39.3 111.9 -41.45 110.35 L-42.2 109.85 Q-45.75 104.35 -47.25 96.75 -48.55 90.5 -48.55 81.45 -48.6 72.35 -47.5 55.35 -46.45 37.4 -46.4 29.15 -46.35 22.6 -47.05 5.75 L-47.2 2.95 -47.1 2.9 -47.45 -2.6 -47.45 -3.2 Q-47.9 -14.15 -47.75 -21.9 L-47.8 -22.05 -47.65 -26.9 -47.55 -29.45 -47.35 -34.55 Q-47.15 -41.45 -45.55 -51.35 -44.0 -61.25 -40.65 -68.95 -37.35 -76.65 -31.2 -84.4 -25.2 -92.15 -17.15 -97.7 -9.15 -103.1 0.4 -106.15 L7.6 -107.85 7.3 -107.0 Q6.4 -102.5 5.0 -100.45 L3.65 -96.75 Q2.7 -94.25 3.75 -93.3 4.25 -92.8 4.9 -92.8 L5.1 -92.8 Q6.0 -92.85 6.55 -93.35 7.3 -93.9 8.15 -95.8 L9.7 -99.35 Q9.8 -100.2 10.3 -101.25 L11.45 -103.7 12.85 -107.15 13.45 -108.65 13.5 -108.75 15.8 -115.35 Q16.9 -118.85 17.6 -122.1 18.15 -124.65 18.65 -125.85 19.4 -127.85 20.8 -128.95 25.4 -124.2 29.7 -115.3 L31.1 -112.25 32.9 -107.9 34.7 -102.6 36.5 -95.05 Q37.65 -90.75 39.35 -88.0 L39.65 -87.65 Q40.2 -87.0 40.7 -87.05 L41.65 -87.75 Q42.65 -89.4 42.75 -92.05 43.2 -91.45 41.15 -102.7 L41.1 -102.75 39.95 -106.6 Q45.75 -105.15 49.85 -102.55 57.35 -97.85 61.55 -90.75 65.7 -83.65 68.95 -74.95 72.15 -66.3 73.1 -54.0 73.75 -46.5 73.45 -31.85 73.1 -13.7 71.9 -3.9 70.95 3.8 68.1 18.95 66.2 30.85 66.95 39.75 L66.8 44.0 M61.0 112.0 L60.6 112.0 60.4 112.05 61.1 112.05 61.0 112.0 M-46.95 1.75 L-47.0 1.95 -46.95 2.0 -46.95 1.75 M-50.3 104.25 L-55.1 105.75 -56.95 106.4 -60.2 107.35 -61.75 107.9 -63.75 108.35 -67.05 109.2 -67.9 109.55 -71.45 109.65 -75.4 109.4 Q-74.0 108.05 -70.35 106.3 L-65.0 103.95 -62.6 103.05 -59.15 101.75 -57.85 101.35 -53.7 100.35 -51.85 99.85 -50.3 104.25 M-41.65 115.25 L-41.4 115.35 Q-42.6 116.55 -45.0 120.05 -47.25 123.2 -48.9 124.5 L-50.3 125.55 -51.6 126.75 -53.05 128.45 Q-53.9 129.35 -54.75 129.4 -51.65 123.75 -47.95 119.4 -45.95 116.95 -44.05 115.45 L-43.15 114.6 Q-42.3 115.25 -41.65 115.25 M-49.45 108.35 L-48.85 107.9 -48.55 107.7 -46.7 110.55 Q-47.1 110.65 -47.55 111.0 -52.7 114.05 -58.65 116.75 -62.15 118.25 -64.1 118.4 -62.95 116.6 -59.45 114.6 L-50.9 109.2 -49.45 108.35" fill="#ffffff" fill-opacity="0.9882353" fill-rule="evenodd" stroke="none"/>
    </g>
    <g id="sprite16" transform="matrix(1.0, 0.0, 0.0, 1.0, 80.0, 119.4)">
      <use height="238.85" transform="matrix(1.0, 0.0, 0.0, 1.0, -80.0, -119.4)" width="160.05" xlink:href="#shape13"/>
    </g>
    <g id="shape13" transform="matrix(1.0, 0.0, 0.0, 1.0, 80.0, 119.4)">
      <path d="M10.95 93.55 L12.95 93.5 14.85 93.7 Q17.05 94.3 18.1 96.75 18.9 98.5 18.85 101.25 18.8 103.8 18.05 105.8 17.15 108.15 15.35 109.3 13.95 110.25 11.85 110.45 L9.35 110.5 12.3 109.9 Q14.4 109.15 15.85 107.55 17.35 105.95 18.0 103.8 18.65 101.65 18.3 99.5 17.9 97.0 16.45 95.6 14.6 93.75 10.95 93.55 M4.95 98.2 L5.6 97.3 Q6.5 96.45 7.1 96.3 L6.3 97.35 5.55 98.35 5.45 99.25 5.05 100.3 4.7 101.3 4.7 101.95 4.5 102.45 4.3 100.55 4.4 99.75 4.8 99.0 4.95 98.2 M9.65 87.25 Q12.45 87.25 14.9 88.25 12.35 87.4 9.9 87.8 7.6 88.1 4.95 89.65 L4.95 89.35 Q4.9 88.75 4.5 88.25 6.85 87.25 9.65 87.25 M-55.8 114.25 L-55.6 114.3 -56.3 114.25 -55.8 114.25 M-55.35 101.45 L-55.7 101.5 -56.1 101.5 -55.45 100.4 -54.45 99.65 -54.25 99.85 Q-54.45 100.65 -55.15 101.3 L-55.35 101.45 M-4.1 101.0 L-3.85 98.45 -2.9 98.2 -3.15 98.9 Q-3.95 101.45 -3.75 104.0 L-3.7 104.25 Q-4.1 102.7 -4.1 101.0 M-40.4 98.2 L-40.6 97.6 -40.45 97.6 -40.4 98.2 M-54.0 93.05 Q-53.5 93.1 -52.75 93.55 L-54.05 93.75 -57.0 93.55 -56.65 93.25 -56.3 92.9 -55.85 92.85 -54.5 92.95 -54.0 93.05 M-44.65 89.1 L-44.3 89.45 -44.4 89.65 -45.45 88.6 Q-47.35 86.8 -49.7 85.95 -52.15 85.0 -55.65 84.8 L-55.1 84.8 Q-49.0 84.8 -44.65 89.1 M-65.5 89.1 L-64.9 88.55 -65.25 89.05 -66.85 91.6 -68.1 93.4 -69.15 95.25 Q-69.7 96.7 -69.75 99.55 L-69.75 101.0 -69.85 99.55 Q-69.85 93.45 -65.5 89.1" fill="#ffffff" fill-rule="evenodd" stroke="none"/>
      <path d="M35.3 -8.3 Q21.85 -14.55 11.65 -30.2 8.5 -35.05 7.55 -38.4 6.4 -42.15 6.7 -48.7 7.55 -63.75 13.85 -77.85 20.2 -91.95 30.9 -102.6 34.75 -106.4 38.95 -109.75 43.85 -113.8 47.5 -115.9 52.5 -118.75 57.2 -119.3 62.1 -119.85 66.9 -117.9 71.7 -115.95 74.85 -112.1 80.6 -105.0 80.0 -93.8 79.75 -89.45 78.45 -84.25 77.55 -80.7 75.65 -74.95 L68.95 -54.7 Q65.0 -42.75 62.65 -34.3 60.15 -25.25 59.0 -22.15 56.5 -15.45 52.9 -11.25 49.8 -7.6 46.45 -6.55 L45.25 -6.25 Q46.7 -3.35 48.0 0.5 49.35 4.45 49.35 6.85 49.5 12.95 43.85 18.75 40.85 21.85 37.4 23.45 34.8 24.65 32.35 24.75 32.15 27.2 30.65 29.6 28.5 33.0 24.85 34.85 21.75 36.45 17.45 37.15 L13.8 37.55 9.55 37.8 -10.3 38.75 -10.35 38.75 -10.45 38.75 Q-11.15 39.4 -11.9 55.1 L-12.0 55.1 -12.0 60.45 -12.15 64.4 -12.6 72.8 Q-12.6 75.0 -13.45 75.75 -13.9 76.2 -14.65 76.35 L-16.1 76.45 -17.35 76.45 -17.15 79.1 -17.0 80.55 -16.45 81.85 Q-15.8 82.5 -14.3 82.85 L-5.7 84.45 -1.55 85.45 Q3.25 81.75 9.65 81.75 17.45 81.75 23.0 87.25 28.5 92.8 28.5 100.6 28.5 108.4 23.0 113.95 17.45 119.45 9.65 119.45 1.85 119.45 -3.65 113.95 -9.2 108.4 -9.2 100.6 -9.2 98.45 -8.75 96.5 L-9.95 95.85 -11.7 95.35 -13.5 94.95 -17.55 93.8 -21.55 92.35 -23.2 92.1 -24.3 92.45 -25.35 93.05 -27.6 93.9 -29.9 94.6 -31.9 95.55 -33.9 96.5 -35.45 97.0 -35.35 99.4 Q-35.35 107.65 -41.15 113.45 -46.95 119.25 -55.15 119.25 -63.35 119.25 -69.15 113.45 -74.95 107.65 -74.95 99.4 -74.95 91.2 -69.15 85.4 -63.35 79.6 -55.15 79.6 -46.95 79.6 -41.15 85.4 L-40.15 86.45 -38.9 86.0 Q-35.75 84.85 -29.7 81.75 -28.1 80.9 -27.6 80.2 -26.95 79.45 -26.8 78.15 L-26.85 76.45 -27.2 76.45 Q-29.2 76.45 -29.95 75.7 -30.65 75.0 -30.65 73.1 L-30.4 55.1 -30.65 55.1 -30.7 45.45 -30.65 40.1 -30.6 39.65 -34.8 39.75 Q-43.3 39.95 -51.95 39.75 L-68.3 39.05 -73.25 38.25 Q-76.65 37.05 -78.55 33.45 -80.35 30.0 -79.9 26.2 -79.45 22.65 -77.15 19.4 -75.1 16.4 -71.9 14.15 L-69.45 12.6 -68.3 11.85 Q-51.85 1.95 -26.1 0.15 L-23.25 -0.15 Q-3.15 -2.0 12.05 4.95 17.9 7.65 24.65 12.6 27.7 14.9 29.4 16.85 L30.5 18.3 Q34.45 17.8 37.65 15.6 41.2 13.1 42.15 9.4 43.2 5.5 41.25 -0.15 39.95 -3.9 38.2 -7.1 L35.3 -8.3 M43.85 -107.3 Q42.45 -106.7 39.95 -104.4 32.85 -97.75 28.5 -91.75 L31.35 -95.1 Q36.2 -100.7 39.05 -103.35 41.55 -105.7 44.05 -107.35 L43.85 -107.3 M18.3 -33.2 L18.85 -32.45 18.35 -34.2 Q17.65 -36.4 16.65 -37.05 L15.55 -37.45 Q16.55 -35.55 18.3 -33.2 M59.25 -47.15 Q58.4 -44.8 58.0 -43.05 L59.4 -47.6 59.25 -47.15 M41.0 -14.3 L43.35 -13.8 42.6 -14.2 41.15 -14.8 39.5 -14.8 41.0 -14.3 M9.65 87.25 Q6.85 87.25 4.5 88.25 4.9 88.75 4.95 89.35 L4.95 89.65 Q7.6 88.1 9.9 87.8 12.35 87.4 14.9 88.25 12.45 87.25 9.65 87.25 M4.95 98.2 L4.8 99.0 4.4 99.75 4.3 100.55 4.5 102.45 4.7 101.95 4.7 101.3 5.05 100.3 5.45 99.25 5.55 98.35 6.3 97.35 7.1 96.3 Q6.5 96.45 5.6 97.3 L4.95 98.2 M10.95 93.55 Q14.6 93.75 16.45 95.6 17.9 97.0 18.3 99.5 18.65 101.65 18.0 103.8 17.35 105.95 15.85 107.55 14.4 109.15 12.3 109.9 L9.35 110.5 11.85 110.45 Q13.95 110.25 15.35 109.3 17.15 108.15 18.05 105.8 18.8 103.8 18.85 101.25 18.9 98.5 18.1 96.75 17.05 94.3 14.85 93.7 L12.95 93.5 10.95 93.55 M-11.8 38.5 L-11.8 38.7 -11.15 38.6 -11.8 38.5 M-65.5 89.1 Q-69.85 93.45 -69.85 99.55 L-69.75 101.0 -69.75 99.55 Q-69.7 96.7 -69.15 95.25 L-68.1 93.4 -66.85 91.6 -65.25 89.05 -64.9 88.55 -65.5 89.1 M-44.65 89.1 Q-49.0 84.8 -55.1 84.8 L-55.65 84.8 Q-52.15 85.0 -49.7 85.95 -47.35 86.8 -45.45 88.6 L-44.4 89.65 -44.3 89.45 -44.65 89.1 M-54.0 93.05 L-54.5 92.95 -55.85 92.85 -56.3 92.9 -56.65 93.25 -57.0 93.55 -54.05 93.75 -52.75 93.55 Q-53.5 93.1 -54.0 93.05 M-40.4 98.2 L-40.45 97.6 -40.6 97.6 -40.4 98.2 M-4.1 101.0 Q-4.1 102.7 -3.7 104.25 L-3.75 104.0 Q-3.95 101.45 -3.15 98.9 L-2.9 98.2 -3.85 98.45 -4.1 101.0 M-55.35 101.45 L-55.15 101.3 Q-54.45 100.65 -54.25 99.85 L-54.45 99.65 -55.45 100.4 -56.1 101.5 -55.7 101.5 -55.35 101.45 M-55.8 114.25 L-56.3 114.25 -55.6 114.3 -55.8 114.25" fill="#000000" fill-rule="evenodd" stroke="none"/>
    </g>
    <g id="sprite17" transform="matrix(1.0, 0.0, 0.0, 1.0, 16.9, 32.1)">
      <use height="62.45" transform="matrix(1.0, 0.0, 0.0, 1.0, -16.9, -31.2)" width="33.85" xlink:href="#shape14"/>
    </g>
    <g id="shape14" transform="matrix(1.0, 0.0, 0.0, 1.0, 16.9, 31.2)">
      <path d="M10.9 -8.35 Q11.7 -16.1 9.15 -22.15 8.05 -24.85 6.25 -25.55 4.1 -26.35 1.45 -24.2 -1.95 -21.4 -4.9 -15.7 -7.45 -10.65 -9.1 -5.25 L-8.1 -4.95 0.35 -2.6 Q5.45 -1.25 8.35 0.6 L9.0 1.1 Q10.45 -4.15 10.9 -8.35 M0.95 28.2 Q-2.4 31.1 -5.4 31.2 -8.2 31.45 -10.65 29.4 -13.15 27.3 -13.45 24.4 -15.95 23.15 -16.55 18.4 -18.05 7.25 -13.15 -8.05 L-10.85 -14.7 Q-8.15 -21.85 -5.05 -25.5 -0.35 -31.05 5.6 -31.2 8.15 -31.3 9.85 -30.3 11.3 -29.35 12.45 -27.55 16.45 -21.85 16.9 -13.6 17.15 -7.65 15.3 0.85 10.95 19.85 0.95 28.2 M-10.35 23.85 Q-9.15 25.15 -7.15 25.25 -5.25 25.3 -3.65 24.3 -2.6 23.65 -0.7 21.45 L1.85 18.2 Q4.9 13.85 7.65 5.3 L6.1 4.9 4.5 4.5 Q4.55 6.45 3.7 9.25 L2.05 13.3 Q0.3 17.2 -2.2 17.15 -3.3 17.15 -4.4 16.35 -5.35 15.6 -5.8 14.4 -6.45 12.75 -6.25 9.6 -5.85 5.6 -5.0 2.15 L-4.85 1.8 -10.35 -0.3 -12.1 8.45 Q-12.7 11.45 -12.7 12.85 L-12.5 16.05 -12.05 18.95 Q-11.6 22.45 -10.35 23.85 M-0.7 4.85 L-0.45 3.05 -0.65 3.0 Q-0.95 4.2 -0.7 4.85" fill="#000000" fill-opacity="0.9882353" fill-rule="evenodd" stroke="none"/>
    </g>
    <g id="sprite18" transform="matrix(1.0, 0.0, 0.0, 1.0, 104.9, 32.85)">
      <use height="65.0" transform="matrix(1.0, 0.0, 0.0, 1.0, -104.9, -32.85)" width="127.5" xlink:href="#shape15"/>
    </g>
    <g id="shape15" transform="matrix(1.0, 0.0, 0.0, 1.0, 104.9, 32.85)">
      <path d="M-57.95 19.4 L-64.15 20.65 -70.25 20.25 Q-72.1 19.7 -73.25 18.4 -74.55 16.9 -74.4 15.0 -74.3 13.1 -70.45 9.45 -66.65 5.8 -62.8 3.1 L-58.85 0.2 Q-62.2 0.0 -66.5 0.05 L-77.65 0.1 Q-84.0 -0.05 -88.8 -1.25 -94.6 -2.7 -99.0 -5.8 -101.5 -7.55 -101.25 -9.5 -101.0 -11.55 -97.8 -12.6 -85.3 -16.7 -65.15 -21.55 L-32.3 -29.7 -29.7 -30.25 -27.15 -29.9 Q-26.1 -29.4 -24.55 -27.45 -18.35 -19.8 -12.3 -15.7 -6.25 -11.6 12.75 -18.45 31.8 -25.3 14.1 -8.05 L-4.25 9.45 -7.85 12.25 -18.0 21.05 Q-23.5 25.85 -27.5 27.6 -29.6 28.5 -31.4 28.4 -33.6 28.2 -34.55 26.5 -35.8 24.2 -34.25 19.95 -32.7 15.9 -30.55 12.75 L-57.95 19.4" fill="#ffffff" fill-rule="evenodd" stroke="none"/>
      <path d="M-6.95 7.85 L0.25 0.3 4.25 -3.9 Q5.15 -4.65 6.05 -4.15 8.8 -2.75 0.4 6.9 -8.0 16.5 -14.25 21.55 -19.5 25.85 -26.55 29.95 -29.15 31.45 -31.0 31.95 -33.65 32.55 -35.45 31.45 -37.0 30.55 -37.85 28.55 -38.65 26.65 -38.65 24.45 -38.65 22.45 -38.1 20.25 L-36.85 16.15 Q-49.45 21.65 -62.65 24.25 L-69.9 24.8 Q-73.8 24.45 -76.15 21.9 -77.3 20.7 -77.85 19.05 -78.45 17.2 -78.05 15.5 -77.75 14.25 -76.9 13.0 L-75.1 10.9 Q-70.45 6.2 -65.0 2.85 -79.3 4.0 -93.25 1.15 -97.45 0.3 -100.0 -1.25 -103.5 -3.35 -104.55 -6.75 -105.0 -8.1 -104.9 -9.4 -104.85 -10.85 -104.3 -12.0 -103.4 -13.85 -100.55 -15.4 -97.75 -16.9 -93.95 -18.1 L-87.25 -20.0 Q-59.15 -27.1 -32.7 -32.7 -30.55 -33.15 -29.8 -32.2 -29.35 -31.5 -29.5 -30.5 -29.7 -29.5 -30.35 -28.9 -31.25 -28.0 -33.35 -27.6 L-77.0 -17.75 -92.9 -13.6 Q-100.95 -11.4 -100.55 -9.65 -100.25 -5.3 -93.7 -3.9 -75.1 0.15 -56.2 -3.1 -54.3 -3.4 -53.65 -2.7 -53.05 -2.2 -53.05 -1.05 -53.05 -0.1 -53.55 0.75 -54.25 1.85 -56.3 3.0 -64.75 7.95 -72.2 14.3 L-73.25 15.4 -73.8 16.75 Q-73.9 17.95 -72.8 18.8 -71.9 19.5 -70.55 19.7 -62.9 20.7 -51.15 16.45 L-41.5 12.75 Q-35.85 10.75 -31.8 9.85 -30.45 9.55 -29.8 10.1 -29.1 10.7 -29.35 12.0 -29.55 13.05 -30.3 14.15 L-32.45 17.7 -34.2 21.55 Q-34.75 23.2 -34.5 24.7 -34.25 26.45 -33.1 26.95 -31.9 27.6 -29.7 26.3 -17.15 19.2 -6.95 7.85" fill="#000000" fill-rule="evenodd" stroke="none"/>
    </g>
    <g id="sprite19" transform="matrix(1.0, 0.0, 0.0, 1.0, 24.7, 113.1)">
      <use height="153.35" transform="matrix(1.0, 0.0, 0.0, 1.0, -24.7, -113.1)" width="81.1" xlink:href="#shape16"/>
    </g>
    <g id="shape16" transform="matrix(1.0, 0.0, 0.0, 1.0, 24.7, 113.1)">
      <path d="M-9.3 25.15 L-12.8 25.4 -20.35 -6.85 -15.2 -20.0 -20.75 -24.55 Q-21.0 -26.5 -20.7 -29.85 -19.85 -36.6 -16.35 -43.6 -12.85 -50.7 -5.25 -54.85 -1.4 -56.9 1.75 -57.5 L21.35 -105.9 Q21.15 -105.45 21.9 -106.35 32.75 -113.25 41.95 -109.45 51.15 -105.75 52.0 -99.7 52.9 -93.65 52.55 -90.25 50.95 -84.6 48.35 -79.4 43.15 -68.95 39.45 -58.15 33.4 -41.0 18.85 3.15 L-9.3 25.15" fill="#ffffff" fill-rule="evenodd" stroke="none"/>
      <path d="M-19.0 -24.3 Q-12.9 -17.5 -6.95 -32.7 -3.6 -41.5 -1.35 -53.8 -9.2 -49.05 -14.4 -41.25 -20.3 -32.35 -19.0 -24.3 M14.0 5.2 Q16.2 3.2 17.4 1.05 14.65 -2.1 11.9 -2.25 9.9 -2.3 7.25 -0.45 L2.55 2.85 Q-0.35 4.55 -3.0 4.35 -5.6 3.45 -7.4 -0.85 -9.4 -5.95 -10.8 -7.2 -11.65 -7.15 -14.75 -5.9 -17.35 -4.75 -18.85 -5.35 -18.7 -0.4 -16.2 7.75 -13.2 17.95 -12.6 20.9 -10.85 19.1 -8.15 18.75 -5.1 18.35 -4.65 21.05 -1.35 18.0 4.65 13.1 L14.0 5.2 M30.1 -38.85 Q33.65 -49.05 41.5 -68.65 L37.6 -71.65 37.25 -71.9 26.7 -42.4 Q18.5 -19.45 13.55 -6.7 16.45 -6.15 19.85 -1.0 23.1 -18.7 30.1 -38.85 M-8.45 -9.5 Q8.75 -56.4 17.75 -79.95 L12.3 -80.15 9.3 -72.2 Q5.95 -63.9 2.9 -51.35 -0.8 -36.25 -2.75 -30.4 -5.0 -25.5 -6.6 -23.2 -9.3 -19.3 -12.65 -17.95 -13.15 -16.1 -14.6 -13.25 L-16.9 -8.65 Q-14.3 -9.95 -12.8 -10.2 -10.5 -10.7 -8.45 -9.5 M19.2 -33.85 Q24.25 -48.35 34.1 -73.9 L30.3 -76.15 Q28.85 -76.95 21.45 -79.15 L6.05 -37.5 Q4.9 -32.2 -0.35 -19.65 -3.0 -13.45 -5.4 -8.25 L-4.55 -5.75 Q-3.35 -2.95 -1.25 -1.45 0.5 -0.1 3.85 -2.35 8.0 -5.15 10.1 -5.25 13.55 -17.95 19.2 -33.85 M22.1 -95.3 Q20.0 -95.4 18.5 -94.5 L18.0 -93.3 Q22.85 -92.8 29.4 -90.7 40.85 -87.05 46.15 -81.7 L47.0 -84.15 47.05 -84.65 Q45.65 -85.45 43.8 -86.9 L40.0 -89.7 Q35.9 -92.2 31.5 -93.5 26.35 -95.2 22.1 -95.3 M23.05 -83.65 L24.4 -83.25 31.65 -80.85 Q37.6 -78.85 44.25 -74.35 L43.95 -75.3 45.0 -78.3 45.35 -78.9 Q45.8 -79.45 39.4 -82.65 32.95 -85.85 27.85 -87.1 22.7 -88.35 18.25 -88.9 L16.2 -89.1 15.3 -87.1 14.95 -86.3 14.75 -85.3 Q18.05 -85.0 22.25 -83.8 L23.05 -83.65 M47.25 -91.25 L48.65 -90.05 50.0 -94.3 Q50.4 -95.7 50.95 -96.65 L47.65 -101.35 Q46.0 -103.55 41.5 -105.4 37.0 -107.25 33.7 -107.75 30.4 -108.25 25.95 -107.75 L24.3 -107.65 24.2 -107.45 Q23.4 -106.35 21.8 -101.75 L21.25 -100.65 29.6 -98.9 Q36.55 -97.55 42.1 -94.45 45.45 -92.6 47.25 -91.25 M9.15 -85.3 L9.65 -85.25 10.6 -88.6 12.75 -95.25 Q12.05 -98.55 15.45 -100.7 15.8 -102.4 16.25 -103.45 L17.75 -107.4 Q18.75 -109.7 20.25 -110.55 L21.1 -111.1 Q23.95 -112.9 32.35 -113.1 40.7 -113.35 46.4 -110.35 51.15 -107.9 54.25 -103.5 57.4 -98.95 55.95 -95.25 L54.65 -89.85 53.6 -86.85 Q55.5 -83.9 51.65 -80.5 L50.5 -77.4 48.1 -71.15 48.5 -69.9 Q48.9 -68.7 47.85 -67.15 46.8 -65.6 46.35 -65.75 46.0 -65.85 46.25 -66.25 L44.85 -64.05 41.4 -56.0 Q35.6 -42.1 32.7 -31.6 L27.55 -13.55 Q25.25 -6.0 23.5 2.5 21.45 6.9 15.7 11.35 L6.05 18.6 Q0.05 22.3 -3.95 26.8 -8.0 31.25 -10.8 37.6 -12.6 40.15 -14.35 40.25 -15.95 40.2 -17.1 38.4 -18.25 36.6 -18.4 34.1 -18.65 31.55 -17.7 29.7 -17.2 24.7 -18.85 17.7 L-21.95 5.6 Q-23.6 -1.45 -23.15 -6.35 -22.6 -12.75 -18.55 -17.95 -24.55 -21.6 -24.7 -28.55 -24.85 -34.7 -20.55 -42.0 -16.6 -48.85 -10.55 -54.0 -4.4 -59.2 0.9 -60.05 L5.1 -72.6 7.35 -80.3 Q7.15 -79.4 7.4 -81.7 7.6 -84.0 8.4 -84.6 L9.15 -85.3" fill="#000000" fill-rule="evenodd" stroke="none"/>
    </g>
  </defs>
</svg>
