<?xml version="1.0" encoding="utf-8"?>
<!-- Generator: Adobe Illustrator 26.2.1, SVG Export Plug-In . SVG Version: 6.00 Build 0)  -->
<svg version="1.1" id="Слой_1" xmlns="http://www.w3.org/2000/svg" xmlns:xlink="http://www.w3.org/1999/xlink" x="0px" y="0px"
	 viewBox="0 0 500 500" style="enable-background:new 0 0 500 500;" xml:space="preserve">
<style type="text/css">
	.st0{fill:#F2F2F2;}
	.st1{opacity:0.23;enable-background:new    ;}
	.st2{stroke:#000000;stroke-width:9;stroke-miterlimit:10;}
</style>
<path class="st0" d="M471.7,499H28.3C12.7,499,0,486.3,0,470.7V28.3C0,12.7,12.7,0,28.3,0h443.3C487.3,0,500,12.7,500,28.3v442.3
	C500,486.3,487.3,499,471.7,499z"/>
<path class="st1" d="M0,443h500v26.8c0,16.1-13.1,29.2-29.2,29.2H27.9C12.5,499,0,486.5,0,471.1V443z"/>
<path d="M184.3,220.3"/>
<g>
	<path d="M175.5,486.2h-12.3v-29.4h11.4c2.9,0,5.1,0.8,6.4,2.3c1.2,1.3,1.8,3.2,1.8,5.5c0,1.3-0.3,2.5-0.8,3.6
		c-0.6,1.1-1.4,1.9-2.4,2.3c1.6,0.2,3,0.8,4,1.8c1.3,1.3,2,3.1,2,5.4c0,2.4-0.7,4.3-2.2,5.8C181.7,485.3,179.1,486.2,175.5,486.2z
		 M170.9,462.7v5.7h1.4c1.4,0,2.3-0.3,2.9-0.9c0.5-0.5,0.7-1.1,0.7-1.9c0-0.8-0.2-1.5-0.7-2c-0.6-0.6-1.6-0.9-2.9-0.9H170.9z
		 M170.9,474.1v6.2h1.7c2.5,0,4-0.4,4.7-1.2c0.4-0.5,0.6-1.1,0.6-1.9c0-0.9-0.2-1.6-0.7-2.1c-0.6-0.6-2.2-1-4.7-1H170.9z"/>
	<path d="M188.7,456.8h7.6v17.4c0,2.1,0.5,3.6,1.5,4.5c1,0.9,2.2,1.4,3.6,1.4s2.6-0.4,3.5-1.3c0.5-0.5,0.9-1.1,1.2-1.8
		c0.3-0.7,0.4-1.3,0.5-1.7c0-0.4,0-1,0-1.8v-16.8h7.6v16.9c0,1.3,0,2.4-0.1,3.2c-0.1,0.8-0.4,1.9-0.9,3s-1.3,2.3-2.3,3.3
		c-2.4,2.4-5.6,3.7-9.7,3.7c-4.3,0-7.5-1.2-9.7-3.5c-1.9-2.1-2.9-5.3-2.9-9.7V456.8z"/>
	<path d="M222.3,475c-1.2,0-2.3-0.5-3.2-1.4c-0.9-0.9-1.4-2-1.4-3.2s0.5-2.3,1.4-3.2c0.9-0.9,2-1.4,3.2-1.4s2.3,0.5,3.3,1.4
		c0.9,0.9,1.3,1.9,1.3,3.2s-0.4,2.3-1.3,3.2C224.6,474.5,223.5,475,222.3,475z M222.3,486.9c-1.2,0-2.3-0.5-3.2-1.4
		c-0.9-0.9-1.4-2-1.4-3.2s0.5-2.3,1.4-3.2c0.9-0.9,2-1.4,3.2-1.4s2.3,0.5,3.3,1.4c0.9,0.9,1.3,1.9,1.3,3.2c0,1.3-0.4,2.3-1.3,3.2
		C224.6,486.4,223.5,486.9,222.3,486.9z"/>
	<path d="M247.6,463.3h-6.3v22.9h-7.6v-22.9h-6.3v-6.5h20.1V463.3z"/>
	<path d="M263.3,475.5v-6h15.2c0,3-0.4,5.6-1.1,7.7c-0.7,2.1-1.9,3.9-3.6,5.5c-2.6,2.5-6.1,3.7-10.4,3.7c-4.7,0-8.4-1.5-11.3-4.4
		c-2.8-2.8-4.2-6.4-4.2-10.6c0-4.5,1.5-8.1,4.4-11c2.9-2.9,6.7-4.3,11.4-4.3c3.1,0,5.8,0.7,7.9,2c2.3,1.4,4,3.4,5.2,6l-7.3,3
		c-0.5-1.2-1.2-2.2-2.1-3c-1.2-1-2.5-1.5-4.1-1.5c-2,0-3.7,0.7-5,2c-1.7,1.7-2.6,4-2.6,6.7c0,2.6,0.8,4.7,2.3,6.3
		c1.4,1.5,3.2,2.2,5.4,2.2c1.7,0,3.1-0.5,4.2-1.4c1-0.8,1.6-1.9,1.8-3.3H263.3z"/>
	<path d="M285.1,487c-1.2,0-2.3-0.5-3.2-1.4c-0.9-0.9-1.4-2-1.4-3.2s0.5-2.3,1.4-3.2s2-1.4,3.2-1.4s2.3,0.5,3.3,1.4
		c0.9,0.9,1.3,1.9,1.3,3.2s-0.4,2.3-1.3,3.2C287.4,486.6,286.4,487,285.1,487z"/>
	<path d="M293.1,456.8H305c3.1,0,5.5,0.9,7.2,2.6c1.7,1.7,2.5,3.9,2.5,6.6c0,2.6-0.8,4.6-2.3,6.1c-1.1,1-2.4,1.7-4.1,2l9.2,12H308
		l-7.3-11.3v11.3h-7.6V456.8z M300.7,462.7v7.3h1.5c1.6,0,2.9-0.4,3.7-1.2c0.6-0.6,1-1.5,1-2.5c0-1-0.3-1.9-1-2.5
		c-0.8-0.8-2-1.1-3.7-1.1H300.7z"/>
	<path d="M318.9,456.8h7.6v17.4c0,2.1,0.5,3.6,1.5,4.5c1,0.9,2.2,1.4,3.6,1.4c1.4,0,2.6-0.4,3.5-1.3c0.5-0.5,0.9-1.1,1.2-1.8
		c0.3-0.7,0.4-1.3,0.5-1.7s0-1,0-1.8v-16.8h7.6v16.9c0,1.3,0,2.4-0.1,3.2c-0.1,0.8-0.4,1.9-0.9,3c-0.5,1.2-1.3,2.3-2.3,3.3
		c-2.4,2.4-5.6,3.7-9.7,3.7c-4.3,0-7.5-1.2-9.7-3.5c-1.9-2.1-2.9-5.3-2.9-9.7V456.8z"/>
</g>
<path d="M144.4-370.5"/>
<g>
	<polygon class="st2" points="241.8,100.8 258.2,100.8 274.5,100.8 290.9,100.8 290.9,84.5 274.5,84.5 258.2,84.5 241.8,84.5 
		225.5,84.5 209.1,84.5 209.1,100.8 225.5,100.8 	"/>
	<polygon class="st2" points="209.1,117.2 209.1,100.8 192.7,100.8 176.4,100.8 176.4,117.2 192.7,117.2 	"/>
	<polygon class="st2" points="307.3,117.2 323.6,117.2 323.6,100.8 307.3,100.8 290.9,100.8 290.9,117.2 	"/>
	<rect x="160" y="117.2" class="st2" width="16.4" height="16.4"/>
	<rect x="323.6" y="117.2" class="st2" width="16.4" height="16.4"/>
	<polygon class="st2" points="274.5,133.6 258.2,133.6 258.2,149.9 274.5,149.9 290.9,149.9 290.9,133.6 	"/>
	<path class="st2" d="M340,133.6v16.4h-16.4h-16.4h-16.4v16.4h16.4h16.4H340v16.4V199v16.4v16.4v16.4h-16.4h-16.4h-16.4h-16.4h-16.4
		h-16.4h-16.4h-16.4h-16.4h-16.4H160v-16.4v-16.4h16.4V199H160v-16.4v-16.4v-16.4v-16.4h-16.4v16.4v16.4v16.4V199v16.4v16.4v16.4
		v16.4v16.4v16.4v16.4v16.4H160v16.4h16.4h16.4v16.4V379h16.4h16.4v-16.4h16.4v-16.4h16.4h16.4v16.4V379h16.4h16.4v-16.4h16.4v-16.4
		H340v-16.4h16.4v-16.4v-16.4v-16.4v-16.4v-16.4v-16.4v-16.4V199v-16.4v-16.4v-16.4v-16.4H340z M340,280.8v16.4v16.4h-16.4v16.4
		h-16.4h-16.4h-16.4h-16.4h-16.4h-16.4h-16.4h-16.4h-16.4v-16.4H160v-16.4v-16.4v-16.4h16.4h16.4h16.4h16.4v16.4h16.4v16.4h16.4
		v-16.4v-16.4h16.4h16.4v16.4v16.4h16.4v-16.4h16.4v-16.4H340V280.8z"/>
	<polygon class="st2" points="241.8,166.3 258.2,166.3 258.2,149.9 241.8,149.9 225.5,149.9 209.1,149.9 209.1,166.3 225.5,166.3 	
		"/>
	<rect x="192.7" y="166.3" class="st2" width="16.4" height="16.4"/>
	<rect x="176.4" y="182.6" class="st2" width="16.4" height="16.4"/>
	<polygon class="st2" points="241.8,199 241.8,215.4 258.2,215.4 258.2,199 258.2,182.6 241.8,182.6 	"/>
	<polygon class="st2" points="323.6,199 323.6,182.6 307.3,182.6 307.3,199 307.3,215.4 323.6,215.4 	"/>
</g>
</svg>
