<?xml version="1.0" encoding="utf-8"?>
<!-- Generator: Adobe Illustrator 26.2.1, SVG Export Plug-In . SVG Version: 6.00 Build 0)  -->
<svg version="1.1" id="Слой_1" xmlns="http://www.w3.org/2000/svg" xmlns:xlink="http://www.w3.org/1999/xlink" x="0px" y="0px"
	 viewBox="0 0 500 500" style="enable-background:new 0 0 500 500;" xml:space="preserve">
<style type="text/css">
	.st0{fill:#F2F2F2;}
	.st1{opacity:0.23;enable-background:new    ;}
	.st2{enable-background:new    ;}
</style>
<path class="st0" d="M471.7,499H28.3C12.7,499,0,486.3,0,470.7V28.3C0,12.7,12.7,0,28.3,0h443.3C487.3,0,500,12.7,500,28.3v442.3
	C500,486.3,487.3,499,471.7,499z"/>
<path class="st1" d="M0,443h500v26.8c0,16.1-13.1,29.2-29.2,29.2H27.9C12.5,499,0,486.5,0,471.1V443z"/>
<path d="M184.3,220.3"/>
<g class="st2">
	<path d="M205,456.8h7.7v18.5l11-18.5h7.8v29.4h-7.7v-18.5l-11,18.5H205V456.8z"/>
	<path d="M235.2,486.2v-19.7h13.8v5.8h-6.8v13.9H235.2z"/>
	<path d="M257.3,484.3v12h-7.1v-29.8h7.1v2.2c1.5-1.9,3.5-2.8,6-2.8c2.8,0,5.1,1,7,2.9c2,2,3,4.5,3,7.6c0,3.1-1.1,5.7-3.2,7.8
		c-1.9,1.8-4.1,2.7-6.7,2.7C261,486.9,259,486,257.3,484.3z M261.7,471.8c-1.2,0-2.3,0.4-3.2,1.3c-0.9,0.9-1.4,2-1.4,3.3
		c0,1.2,0.5,2.2,1.4,3.1c0.9,0.9,1.9,1.3,3.2,1.3c1.3,0,2.3-0.4,3.1-1.3c0.9-0.9,1.4-2,1.4-3.1c0-1.3-0.5-2.4-1.4-3.3
		C264,472.3,262.9,471.8,261.7,471.8z"/>
	<path d="M282.7,473.1h4.8c2.3,0,4.1,0.6,5.3,1.8c1.2,1.1,1.8,2.7,1.8,4.7c0,2-0.6,3.6-1.7,4.7c-1.3,1.3-3.1,1.9-5.4,1.9h-11.9
		v-19.7h7.1V473.1z M282.7,481.6h2.6c0.9,0,1.5-0.2,1.9-0.6c0.3-0.3,0.5-0.8,0.5-1.4c0-0.6-0.2-1.1-0.5-1.4
		c-0.4-0.4-1.1-0.5-1.9-0.5h-2.6V481.6z M296.4,486.2v-19.7h7.1v19.7H296.4z"/>
</g>
<path d="M144.4-370.5"/>
<path d="M422.4,213.4l-115.2-81.9l-112.2,19.5l-58.3-12.2L77.7,251.5l7.5,64.9l115.2,33.2L432.9,335L422.4,213.4z M222.6,286.7
	l6-92.4l22.4,20.3l-1.1,5.4l4.8-2.4l43.4,36.7L222.6,286.7z"/>
</svg>
