<?xml version="1.0" encoding="utf-8"?>
<!-- Generator: Adobe Illustrator 26.2.1, SVG Export Plug-In . SVG Version: 6.00 Build 0)  -->
<svg version="1.1" id="Слой_1" xmlns="http://www.w3.org/2000/svg" xmlns:xlink="http://www.w3.org/1999/xlink" x="0px" y="0px"
	 viewBox="0 0 500 500" style="enable-background:new 0 0 500 500;" xml:space="preserve">
<style type="text/css">
	.st0{fill:#F2F2F2;}
	.st1{opacity:0.23;enable-background:new    ;}
	.st2{enable-background:new    ;}
</style>
<path class="st0" d="M471.7,499H28.3C12.7,499,0,486.3,0,470.7V28.3C0,12.7,12.7,0,28.3,0h443.3C487.3,0,500,12.7,500,28.3v442.3
	C500,486.3,487.3,499,471.7,499z"/>
<path class="st1" d="M0,443h500v26.8c0,16.1-13.1,29.2-29.2,29.2H27.9C12.5,499,0,486.5,0,471.1V443z"/>
<path d="M184.3,220.3"/>
<g class="st2">
	<path d="M162.6,486.2l-1.8-4.9h-10.7l-2,4.9h-8.1l11.3-29.4h8.3l11.1,29.4H162.6z M152.2,475.4h6.5l-3.3-9.5L152.2,475.4z"/>
	<path d="M192.2,466.5v19.7h-7.1v-13.9h-5v5.6c0,3-0.7,5.2-2.1,6.7c-1.2,1.3-3.1,1.9-5.6,1.9c-0.9,0-1.9-0.1-2.8-0.3v-5.1
		c1.2,0.1,2.2-0.1,2.8-0.8c0.6-0.6,0.9-1.7,0.9-3.2v-10.7H192.2z"/>
	<path d="M195.3,486.2v-19.7h13.8v5.8h-6.8v13.9H195.3z"/>
	<path d="M232.6,476.3c0,2.9-1,5.3-3,7.3c-2.2,2.2-5.1,3.3-8.8,3.3c-3.6,0-6.6-1.1-8.8-3.3c-2-2-3-4.4-3-7.3c0-2.9,1-5.3,3-7.2
		c2.2-2.2,5.2-3.3,8.8-3.3c3.6,0,6.5,1.1,8.8,3.3C231.5,471.1,232.6,473.5,232.6,476.3z M220.7,471.8c-1.2,0-2.3,0.4-3.2,1.3
		c-0.9,0.9-1.4,1.9-1.4,3.2c0,1.2,0.5,2.2,1.4,3.1c0.9,0.9,1.9,1.3,3.2,1.3c1.2,0,2.2-0.4,3.1-1.3c0.9-0.9,1.4-1.9,1.4-3.1
		s-0.5-2.3-1.4-3.2C223,472.3,221.9,471.8,220.7,471.8z"/>
	<path d="M241.9,484.3v12h-7.1v-29.8h7.1v2.2c1.5-1.9,3.5-2.8,6-2.8c2.8,0,5.1,1,7,2.9c2,2,3,4.5,3,7.6c0,3.1-1.1,5.7-3.2,7.8
		c-1.9,1.8-4.1,2.7-6.7,2.7C245.6,486.9,243.5,486,241.9,484.3z M246.2,471.8c-1.2,0-2.3,0.4-3.2,1.3c-0.9,0.9-1.4,2-1.4,3.3
		c0,1.2,0.5,2.2,1.4,3.1c0.9,0.9,1.9,1.3,3.2,1.3c1.3,0,2.3-0.4,3.1-1.3c0.9-0.9,1.4-2,1.4-3.1c0-1.3-0.5-2.4-1.4-3.3
		C248.5,472.3,247.4,471.8,246.2,471.8z"/>
	<path d="M260.2,466.5h7.1v10.1l7.8-10.1h6.1v19.7h-7.1v-10.4l-7.7,10.4h-6.2V466.5z"/>
	<path d="M301.7,496.3h-7.1v-9.8h-0.1c-3.6,0-6.4-1-8.4-3c-1.8-1.8-2.7-4.2-2.7-7.1c0-3.1,1-5.6,2.9-7.4c2.1-1.9,4.8-2.8,8.2-2.8
		h0.1v-9.4h7.1v9.4h0.1c3.4,0,6.1,0.9,8.2,2.8c1.9,1.8,2.9,4.2,2.9,7.4c0,3-0.9,5.3-2.7,7.1c-2,2-4.8,3-8.4,3h-0.1V496.3z
		 M295.1,471.3H295c-1.4,0-2.5,0.4-3.3,1.2c-1,1-1.5,2.3-1.5,3.9c0,1.7,0.5,3.1,1.5,4c0.8,0.8,1.9,1.1,3.3,1.1h0.1V471.3z
		 M301.2,471.3v10.2h0.1c1.4,0,2.5-0.4,3.3-1.1c1-0.9,1.5-2.2,1.5-4c0-1.6-0.5-2.9-1.5-3.9c-0.8-0.8-1.9-1.2-3.3-1.2H301.2z"/>
	<path d="M313.6,486.2l3.1-19.7h6.1l4.8,10.7l4.8-10.7h6.1l3.1,19.7h-6.6l-1.6-10.3l-4.6,10.3h-2.6l-4.6-10.3l-1.6,10.3H313.6z"/>
	<path d="M358.6,468.4v-1.9h7.1v19.7h-7.1V484c-1.4,1.9-3.4,2.8-6.1,2.8c-2.8,0-5.1-1-7.1-3.1c-1.9-2-2.8-4.4-2.8-7.2
		c0-3.2,1-5.9,3-7.9c1.9-1.9,4.2-2.8,7.1-2.8C355.1,465.8,357.1,466.7,358.6,468.4z M354.3,471.8c-1.2,0-2.2,0.4-3.1,1.3
		c-0.9,0.9-1.4,2-1.4,3.2c0,1.3,0.5,2.4,1.4,3.2c0.9,0.9,2,1.3,3.2,1.3c1.2,0,2.3-0.5,3.2-1.4c0.9-0.9,1.3-1.9,1.3-3.2
		c0-1.3-0.5-2.3-1.4-3.2C356.5,472.3,355.5,471.8,354.3,471.8z"/>
</g>
<path d="M144.4-370.5"/>
<path d="M252.9,79.5L120.7,361.1h258.5L252.9,79.5z M250,168.9l40.8,89.3h-80.4L250,168.9z M193.5,296.8h113.4l11.3,26.1H181.5
	L193.5,296.8z"/>
</svg>
