<?xml version="1.0" encoding="utf-8"?>
<!-- Generator: Adobe Illustrator 26.2.1, SVG Export Plug-In . SVG Version: 6.00 Build 0)  -->
<svg version="1.1" id="Слой_1" xmlns="http://www.w3.org/2000/svg" xmlns:xlink="http://www.w3.org/1999/xlink" x="0px" y="0px"
	 viewBox="0 0 159 142" style="enable-background:new 0 0 159 142;" xml:space="preserve">
<style type="text/css">
	.st0{fill:#FFFFFF;stroke:#000000;stroke-width:8;stroke-miterlimit:10;}
</style>
<path class="st0" d="M126.5,138.6H31.5C15.7,138.6,3,125.9,3,110.2V32.5C3,16.7,15.7,4,31.5,4h95.1C142.3,4,155,16.7,155,32.5v77.7
	C155,125.9,142.3,138.6,126.5,138.6z"/>
<path d="M18.9,103.9V34h60v69.9H59.7V50.7H38.1v53.2H18.9z"/>
<path d="M106.8,45.6c3.2-1.3,6.4-1.9,9.6-2c3.2,0,6.2,0.5,9.1,1.6l-9.9,16.3c-0.9-0.2-1.9-0.3-2.8-0.3c-1,0.1-1.9,0.3-2.7,0.6
	c-0.8,0.4-1.6,0.9-2.4,1.6c-1.3,1.1-2.1,2.5-2.6,4c-0.5,1.6-0.5,3.2,0,4.9c0.5,1.7,1.4,3.4,2.9,5.1c1.5,1.7,3.1,2.8,4.8,3.5
	c1.7,0.6,3.3,0.8,4.9,0.5c1.6-0.3,3-1,4.3-2.1c1.1-1,1.9-2.2,2.4-3.5c0.5-1.3,0.6-2.7,0.4-4.2l17.2-8.1c1.2,4.5,1.1,9.1-0.3,13.9
	c-1.4,4.8-4.4,9.3-9.1,13.5c-4.5,4.1-9.2,6.6-14,7.6c-4.8,1-9.4,0.8-13.7-0.8c-4.3-1.5-8.1-4-11.2-7.5c-2.3-2.6-4.1-5.5-5.3-8.7
	c-1.2-3.2-1.7-6.5-1.6-10c0.1-3.5,1-6.9,2.7-10.3c1.7-3.4,4.2-6.6,7.6-9.7C100.4,48.9,103.6,46.9,106.8,45.6z"/>
</svg>
