<?xml version="1.0" encoding="utf-8"?>
<!-- Generator: Adobe Illustrator 26.2.1, SVG Export Plug-In . SVG Version: 6.00 Build 0)  -->
<svg version="1.1" id="Слой_1" xmlns="http://www.w3.org/2000/svg" xmlns:xlink="http://www.w3.org/1999/xlink" x="0px" y="0px"
	 viewBox="0 0 500 500" style="enable-background:new 0 0 500 500;" xml:space="preserve">
<style type="text/css">
	.st0{fill:#F2F2F2;}
	.st1{opacity:0.23;enable-background:new    ;}
</style>
<path class="st0" d="M471.7,499H28.3C12.7,499,0,486.3,0,470.7V28.3C0,12.7,12.7,0,28.3,0h443.3C487.3,0,500,12.7,500,28.3v442.3
	C500,486.3,487.3,499,471.7,499z"/>
<path class="st1" d="M0,443h500v26.8c0,16.1-13.1,29.2-29.2,29.2H27.9C12.5,499,0,486.5,0,471.1V443z"/>
<path d="M184.3,220.3"/>
<g>
	<path d="M143.4,456.8h22.2v23.5h3.5v12.5h-6.9v-6.6h-17.9v6.6h-6.9v-12.5c1.3-0.2,2.4-0.8,3.4-1.8c1-1.1,1.7-2.3,2-3.9
		c0.3-1.5,0.5-3.4,0.5-5.8V456.8z M150.8,462.7v6.9c0,2.4-0.2,4.5-0.7,6.2c-0.5,1.8-1.4,3.3-2.6,4.5H158v-17.6H150.8z"/>
	<path d="M182.8,486.2v-8.6l-5.9,8.6h-8.6l8-10.3l-6.8-9.4h8l5.3,8.2v-8.2h7v8.2l5.3-8.2h8l-6.8,9.4l8,10.3h-8.6l-5.9-8.6v8.6H182.8
		z"/>
	<path d="M224.9,476.9v0.7h-14.7c0,1.4,0.4,2.5,1.2,3.3c0.6,0.6,1.6,1,2.9,1c0.9,0,1.6-0.2,2.3-0.5c0.6-0.3,1-0.8,1.2-1.3h6.7
		c-0.4,1.6-1.2,2.9-2.4,4.1c-1.9,1.8-4.6,2.7-8,2.7c-3.4,0-6.2-1-8.2-3c-1.9-1.9-2.9-4.4-2.9-7.5c0-3.2,1-5.7,3-7.6
		c2-1.9,4.7-2.9,8.1-2.9c3.1,0,5.7,0.9,7.6,2.7C223.9,470.6,224.9,473.4,224.9,476.9z M210.5,473.6h8c-0.2-0.9-0.6-1.6-1.1-2.1
		c-0.7-0.7-1.7-1.1-2.9-1.1c-1.2,0-2.2,0.4-2.9,1.1C210.9,472.1,210.6,472.8,210.5,473.6z"/>
	<path d="M227.2,486.2v-19.7h7.1v8.1l6-8.1h8.9l-8.2,9.3l8.9,10.4h-9.1l-6.4-8.7v8.7H227.2z"/>
	<path d="M255.8,468.6h0.3c1.5-1.8,3.7-2.7,6.7-2.7c3.2,0,5.8,0.9,7.8,2.8c1.9,1.7,2.8,4.1,2.8,7.1c0,3.2-1,5.8-3,7.8
		c-2.1,2.1-5.1,3.2-8.8,3.2c-3.6,0-6.5-1-8.5-3.1c-2.2-2.3-3.4-5.7-3.4-10.4c0-5.9,1.4-10.3,4.2-13.3c1-1,2.1-1.7,3.3-2.3
		c1.2-0.6,2.8-1,4.7-1.4l1.3-0.3c1.6-0.3,2.6-0.7,3-1.1c0.4-0.4,0.6-0.9,0.6-1.5h6.1c-0.2,1.5-0.8,3-1.8,4.3
		c-0.9,1.2-2.3,2.2-4.1,2.8c-0.6,0.2-2.4,0.7-5.1,1.5c-2,0.6-3.5,1.3-4.3,2.2C256.6,465.5,256,466.9,255.8,468.6z M261.5,471.7
		c-1.2,0-2.2,0.4-3,1.1c-1,0.9-1.5,2-1.5,3.4s0.5,2.5,1.5,3.4c0.9,0.8,1.9,1.1,3,1.1c1.2,0,2.2-0.4,3-1.1c1-0.9,1.5-2.1,1.5-3.6
		c0-1.2-0.5-2.3-1.5-3.2C263.7,472.1,262.7,471.7,261.5,471.7z"/>
	<path d="M298.5,476.3c0,2.9-1,5.3-3,7.3c-2.2,2.2-5.1,3.3-8.8,3.3c-3.6,0-6.6-1.1-8.8-3.3c-2-2-3-4.4-3-7.3c0-2.9,1-5.3,3-7.2
		c2.2-2.2,5.2-3.3,8.8-3.3c3.6,0,6.5,1.1,8.8,3.3C297.5,471.1,298.5,473.5,298.5,476.3z M286.7,471.8c-1.2,0-2.3,0.4-3.2,1.3
		s-1.4,1.9-1.4,3.2c0,1.2,0.5,2.2,1.4,3.1c0.9,0.9,1.9,1.3,3.2,1.3c1.2,0,2.2-0.4,3.1-1.3c0.9-0.9,1.4-1.9,1.4-3.1s-0.5-2.3-1.4-3.2
		C288.9,472.3,287.9,471.8,286.7,471.8z"/>
	<path d="M300.8,486.2v-19.7h7.1v8.1l6-8.1h8.9l-8.2,9.3l8.9,10.4h-9.1l-6.4-8.7v8.7H300.8z"/>
	<path d="M338,479.9v5.9c-1.5,0.7-3.1,1.1-4.9,1.1c-3.1,0-5.7-1-7.8-3c-2-2-3-4.4-3-7.4c0-3,1.1-5.6,3.2-7.6c2.1-2,4.7-3,7.9-3
		c1.6,0,3.1,0.4,4.6,1.1v5.9c-1.2-0.9-2.4-1.3-3.7-1.3c-1.4,0-2.5,0.5-3.4,1.4c-0.9,0.9-1.4,2-1.4,3.4c0,1.3,0.4,2.4,1.2,3.3
		c0.9,1,2.1,1.5,3.6,1.5C335.8,481.2,337,480.7,338,479.9z"/>
	<path d="M347.3,473.1h4.8c2.3,0,4.1,0.6,5.3,1.8c1.2,1.1,1.8,2.7,1.8,4.7c0,2-0.6,3.6-1.7,4.7c-1.3,1.3-3.1,1.9-5.4,1.9h-11.9
		v-19.7h7.1V473.1z M347.3,481.6h2.6c0.9,0,1.5-0.2,1.9-0.6c0.3-0.3,0.5-0.8,0.5-1.4c0-0.6-0.2-1.1-0.5-1.4
		c-0.4-0.4-1.1-0.5-1.9-0.5h-2.6V481.6z M361,486.2v-19.7h7.1v19.7H361z"/>
</g>
<path d="M144.4-370.5"/>
<g>
	<polygon points="371.1,269.2 377.3,266.6 359.5,222 340.7,269.2 	"/>
	<path d="M417.7,249.1l19.5-8.4l-12.7-21.3l-25.8-14C408.1,226.9,414.4,241.5,417.7,249.1z"/>
	<path d="M333.1,288.1c-1.4,3.3-2.5,5.7-3,7.2c-1.4,3.9-1.7,6.6-0.9,8c0.7,1.2,2.2,1.8,4.6,2h11.9v18l23.5-11.5l0.9-23.6H333.1z"/>
	<path d="M285.6,327.3v-22.1h8.5c2.7-0.1,5.1-1,6.9-2.6c1.6-1.3,2.8-3,3.7-5L353,181.7l-22.2-2.6l3-23.6l-17-47l-26.4-24.9l-34-8.6
		l-40.9,11.3l-30.7,28l-8.8,35.7l5.1,13.2l-10.2-5.6l-7.1,5.5l-2.5,14.8l-20.5,4.8l-32.7,31.3l-37.2,3.4l63,45.9v55l124.5,47.5
		l78.6-38.4H285.6z"/>
</g>
</svg>
