<?xml version="1.0" encoding="utf-8"?>
<!-- Generator: Adobe Illustrator 26.2.1, SVG Export Plug-In . SVG Version: 6.00 Build 0)  -->
<svg version="1.1" id="Слой_1" xmlns="http://www.w3.org/2000/svg" xmlns:xlink="http://www.w3.org/1999/xlink" x="0px" y="0px"
	 viewBox="0 0 256 233.8" style="enable-background:new 0 0 256 233.8;" xml:space="preserve">
<style type="text/css">
	.st0{fill:#FFFFFF;}
</style>
<g>
	<polygon class="st0" points="139.7,177.1 170.1,177.1 170.1,130.3 139.7,169.9 	"/>
	<polygon class="st0" points="134.1,89.6 134.1,129.4 170.4,82 139.9,82 	"/>
	<rect x="174.3" y="82" class="st0" width="30.3" height="95.1"/>
	<rect x="51.2" y="52.4" class="st0" width="30.3" height="125.1"/>
	<rect x="92.8" y="105.3" class="st0" width="30.3" height="71.9"/>
	<path class="st0" d="M131.7,52.7l-23.9,33.4c8.8,3.4,18.9,0.3,24.5-7.5C138.2,70.4,137.4,59.9,131.7,52.7z"/>
	<polygon class="st0" points="22.1,22.1 0,22.1 0,233.8 22.1,233.8 233.8,233.8 233.8,211.7 22.1,211.7 	"/>
	<polygon class="st0" points="233.8,0 22.1,0 22.1,22.1 233.8,22.1 233.8,211.7 256,211.7 256,0 	"/>
</g>
</svg>
