<?xml version="1.0" encoding="utf-8"?>
<!-- Generator: Adobe Illustrator 26.2.1, SVG Export Plug-In . SVG Version: 6.00 Build 0)  -->
<svg version="1.1" id="Слой_1" xmlns="http://www.w3.org/2000/svg" xmlns:xlink="http://www.w3.org/1999/xlink" x="0px" y="0px"
	 viewBox="0 0 385 150" style="enable-background:new 0 0 385 150;" xml:space="preserve">
<style type="text/css">
	.st0{fill:#9E005D;}
	.st1{fill:#F2F2F2;}
</style>
<g>
	<path class="st0" d="M357.8,150H28.2C13,150,0.7,137.7,0.7,122.5V27.8C0.7,12.6,13,0.3,28.2,0.3h329.6c15.2,0,27.5,12.3,27.5,27.5
		v94.7C385.3,137.7,373,150,357.8,150z"/>
</g>
<g>
	<path class="st1" d="M41.2,63.3l-5.1,0.4l0.2,15.8l4.8,0.5l0.1-3.3l5.6,0l-1,7.9l-15-1.3L30.4,60l15.2-1.5l0.9,10.2l-5.4,0.2
		L41.2,63.3z"/>
	<path class="st1" d="M48.5,65h15.6l-0.2,4.6l-4.7,0.1L58.5,85l-4.7,0l-0.2-15l-4.8,0.3L48.5,65z"/>
	<path class="st1" d="M71.3,93.7l-4.5,0l-0.2-28.8l4.8-0.2l0,1.5l11.5-1.2L82.3,85l-10.9-0.4L71.3,93.7z M77.7,69.7l-6.3,0.2
		l-0.1,10.6l5.9,0.4L77.7,69.7z"/>
	<path class="st1" d="M96,72.9l-0.4-4l-5.9,0.6l-0.4,1.2l-3.9-0.3l0.4-5.6l13.9,0l2.4,19.5L97,85.1l-0.2-1.5l-11.1,0.9V74.2L96,72.9
		z M90.6,80.3l6-0.2l-0.3-3.6l-5.6,0.7L90.6,80.3z"/>
	<path class="st1" d="M109.2,84.5l-4.8,0.1l-0.7-19.3l6.1-0.4l-0.2,7.9l5-0.4l0.3-7.2l5,0.1l-0.6,19.6l-5.2-0.4l0.2-7.4h-4.9
		L109.2,84.5z"/>
	<path class="st1" d="M128.3,75.7l6-10.6l4.4,0.4l-0.6,19.4l-5.2-0.1l0.4-10.5l-5.8,10.4l-4.2-0.1l-0.7-19.3l5.9-0.1L128.3,75.7z"/>
	<path class="st1" d="M159.6,88.9l-4.9,0.3l0.3-4.3l-12.8-0.3l-0.8-19.1l6-0.6l-0.8,15l6.1,0.1l-0.7-14.3l5.7-0.7l-0.6,15l2.6,0
		L159.6,88.9z"/>
	<path class="st1" d="M172,72.9l-0.4-4l-5.9,0.6l-0.4,1.2l-3.9-0.3l0.4-5.6l13.9,0l2.4,19.5l-5.2,0.8l-0.2-1.5l-11.1,0.9V74.2
		L172,72.9z M166.6,80.3l6-0.2l-0.3-3.6l-5.6,0.7L166.6,80.3z"/>
	<path class="st1" d="M194,84.5l-4.8,0.1l-0.7-19.3l6.1-0.4l-0.2,7.9l5-0.4l0.3-7.2l5,0.1l-0.6,19.6l-5.2-0.4l0.2-7.4h-4.9L194,84.5
		z"/>
	<path class="st1" d="M212.8,80.9l6.3,0.3l-0.2-2l4.8-0.3l-0.6,6.6l-15.4-0.9l0.1-19.2l14.9-0.3l0.6,11L212.5,77L212.8,80.9z
		 M212.3,73.4l6.1-0.3l0.1-3.7l-6.5-0.3L212.3,73.4z"/>
	<path class="st1" d="M234.8,65l13.7-0.4l-0.6,5.5l-7.3-0.4l-1.1,15.3h-4.2L234.8,65z"/>
	<path class="st1" d="M265.3,84.6l-15.8,0.1l1-19.1l15.1-0.6L265.3,84.6z M260.3,69.2h-5l-0.9,11.2l6.2,0L260.3,69.2z"/>
	<path class="st1" d="M267.8,65h15.6l-0.2,4.6l-4.7,0.1L277.8,85l-4.7,0l-0.2-15l-4.8,0.3L267.8,65z"/>
	<path class="st1" d="M301.1,84.6l-15.8,0.1l1-19.1l15.1-0.6L301.1,84.6z M296.1,69.2h-5l-0.9,11.2l6.2,0L296.1,69.2z"/>
	<path class="st1" d="M318.5,72.6l-5.8,2.3l6.1,1.2l1,8.1l-15.4,1.4l-0.4-21.1l13.9,0.5L318.5,72.6z M314.6,81l-0.3-2.5l-5.9-1
		l-0.2,3.7L314.6,81z M313.7,71l-0.6-2.7l-4.2,0.1l-0.3,4.7L313.7,71z"/>
	<path class="st1" d="M332.3,72.9l-0.4-4l-5.9,0.6l-0.4,1.2l-3.9-0.3l0.4-5.6l13.9,0l2.4,19.5l-5.2,0.8l-0.2-1.5L322,84.5V74.2
		L332.3,72.9z M326.9,80.3l6-0.2l-0.3-3.6l-5.6,0.7L326.9,80.3z"/>
	<path class="st1" d="M340.5,85.1l-0.6-4.8l4.9-0.6l0.4,5.1L340.5,85.1z"/>
	<path class="st1" d="M347.9,85.1l-0.6-4.8l4.9-0.6l0.4,5.1L347.9,85.1z"/>
	<path class="st1" d="M355.4,85.1l-0.6-4.8l4.9-0.6l0.4,5.1L355.4,85.1z"/>
</g>
</svg>
