<?xml version="1.0" encoding="utf-8"?>
<!-- Generator: Adobe Illustrator 26.2.1, SVG Export Plug-In . SVG Version: 6.00 Build 0)  -->
<svg version="1.1" id="Слой_1" xmlns="http://www.w3.org/2000/svg" xmlns:xlink="http://www.w3.org/1999/xlink" x="0px" y="0px"
	 viewBox="0 0 385 150" style="enable-background:new 0 0 385 150;" xml:space="preserve">
<style type="text/css">
	.st0{fill:#FF00FF;}
	.st1{fill:#F2F2F2;}
</style>
<g>
	<path class="st0" d="M357.8,150H28.2C13,150,0.7,137.7,0.7,122.5V27.8C0.7,12.6,13,0.3,28.2,0.3h329.6c15.2,0,27.5,12.3,27.5,27.5
		v94.7C385.3,137.7,373,150,357.8,150z"/>
</g>
<path class="st1" d="M22.6,64.5c-1.5,0.7-2.7,1.7-3.6,3c-0.9,1.3-1.3,2.8-1.3,4.5s0.4,3.2,1.3,4.5c0.9,1.3,2.1,2.4,3.6,3
	c0.5,0.3,1.1,0.5,1.7,0.6c0.6,0.1,1.2,0.2,1.8,0.2c2.1,0,3.9-0.7,5.6-2.2c0.6-0.4,1.1-0.6,1.7-0.6c0.8,0,1.4,0.3,2,0.9
	c0.6,0.6,0.8,1.3,0.7,2.1c-0.1,0.8-0.4,1.4-1,1.9c-0.6,0.6-1.3,1.1-2,1.5c-0.7,0.4-1.5,0.8-2.2,1.1c-0.8,0.3-1.6,0.5-2.4,0.6
	C27.7,85.9,26.8,86,26,86c-1,0-1.9-0.1-2.9-0.3c-0.9-0.2-1.9-0.5-2.9-0.9c-2.6-1.2-4.6-2.9-6-5.1c-1.4-2.3-2.1-4.8-2.1-7.5
	c0-2.8,0.7-5.3,2.1-7.6s3.4-3.9,6-5c1.9-0.8,3.8-1.3,5.7-1.3c1.7,0,3.3,0.3,4.9,0.8c1.4,0.5,2.9,1.4,4.3,2.6
	c0.2,0.2,0.5,0.5,0.6,0.8c0.2,0.3,0.3,0.7,0.4,1.1c0,0.9-0.3,1.6-0.8,2.1c-0.6,0.6-1.3,0.9-2,0.9c-0.7,0-1.4-0.3-1.9-0.8
	c-0.8-0.6-1.6-1.1-2.6-1.5c-0.9-0.3-1.9-0.5-2.9-0.5C24.7,63.8,23.6,64,22.6,64.5z"/>
<path class="st1" d="M39.7,86c-0.5,0-0.9-0.2-1.2-0.5c-0.3-0.3-0.5-0.7-0.5-1.2v-8.6c0-0.9,0.2-1.8,0.5-2.7c0.4-0.8,0.9-1.6,1.5-2.2
	c0.6-0.6,1.4-1.1,2.2-1.5c0.8-0.4,1.7-0.5,2.7-0.5c1,0,2,0.2,2.9,0.6s1.7,1,2.3,1.7c0.6-0.8,1.4-1.3,2.3-1.7
	c0.9-0.4,1.8-0.6,2.9-0.6c0.9,0,1.8,0.2,2.7,0.5c0.8,0.4,1.6,0.9,2.2,1.5c0.6,0.6,1.1,1.4,1.5,2.2c0.4,0.8,0.6,1.7,0.6,2.7v8.6
	c0,0.5-0.2,0.9-0.5,1.2c-0.3,0.3-0.8,0.5-1.3,0.5c-0.5,0-0.9-0.2-1.2-0.5c-0.3-0.3-0.5-0.7-0.5-1.2v-8.6c0-0.5-0.1-0.9-0.3-1.3
	c-0.2-0.4-0.4-0.8-0.7-1.1c-0.3-0.3-0.7-0.6-1.1-0.7c-0.4-0.2-0.9-0.3-1.3-0.3c-0.5,0-0.9,0.1-1.3,0.3c-0.4,0.2-0.8,0.4-1.1,0.7
	c-0.3,0.3-0.6,0.7-0.7,1.1c-0.2,0.4-0.3,0.9-0.3,1.3v8.6c0,0.5-0.2,0.9-0.5,1.2C51,85.8,50.5,86,50,86c-0.5,0-0.9-0.2-1.2-0.5
	c-0.3-0.3-0.5-0.7-0.5-1.2v-8.6c0-0.5-0.1-0.9-0.3-1.3c-0.2-0.4-0.4-0.8-0.7-1.1c-0.3-0.3-0.7-0.6-1.1-0.7c-0.4-0.2-0.9-0.3-1.3-0.3
	c-0.5,0-0.9,0.1-1.3,0.3c-0.4,0.2-0.8,0.4-1.1,0.7c-0.3,0.3-0.6,0.7-0.7,1.1c-0.2,0.4-0.3,0.9-0.3,1.3v8.6c0,0.5-0.2,0.9-0.5,1.2
	C40.6,85.8,40.2,86,39.7,86z"/>
<path class="st1" d="M81.4,77.3c0,1.2-0.2,2.3-0.7,3.4c-0.5,1.1-1.1,2-1.9,2.8c-0.8,0.8-1.7,1.4-2.7,1.8c-1,0.4-2.2,0.7-3.4,0.7
	c-1.4,0-2.7-0.3-3.9-0.9l-1.2-0.8V91c0,0.5-0.2,0.9-0.5,1.2c-0.3,0.3-0.7,0.5-1.2,0.5c-0.5,0-0.9-0.2-1.3-0.5
	c-0.3-0.3-0.5-0.8-0.5-1.3V77.3c0-1.2,0.2-2.3,0.7-3.4c0.4-1,1.1-2,1.8-2.7c0.8-0.8,1.7-1.4,2.8-1.8c1.1-0.4,2.2-0.7,3.4-0.7
	c1.2,0,2.3,0.2,3.4,0.7c1,0.4,2,1.1,2.7,1.8c0.8,0.8,1.4,1.7,1.9,2.7C81.2,75,81.4,76.1,81.4,77.3z M67.6,77.3c0,0.7,0.1,1.4,0.4,2
	c0.3,0.6,0.6,1.2,1.1,1.6c0.5,0.5,1,0.8,1.6,1.1c0.6,0.3,1.3,0.4,2,0.4c0.7,0,1.4-0.1,2-0.4c0.6-0.3,1.2-0.6,1.6-1.1
	c0.5-0.5,0.8-1,1.1-1.6c0.3-0.6,0.4-1.3,0.4-2c0-0.7-0.1-1.4-0.4-2c-0.3-0.6-0.6-1.2-1.1-1.7c-0.5-0.5-1-0.8-1.6-1.1
	c-0.6-0.3-1.3-0.4-2-0.4c-0.7,0-1.4,0.1-2,0.4c-0.6,0.3-1.2,0.6-1.6,1.1c-0.5,0.5-0.8,1-1.1,1.7C67.7,75.9,67.6,76.6,67.6,77.3z"/>
<path class="st1" d="M95.9,85c-0.6,0.3-1.3,0.6-1.9,0.7c-0.7,0.2-1.4,0.3-2.1,0.3c-1.2,0-2.3-0.2-3.4-0.7c-1-0.4-2-1.1-2.7-1.8
	c-0.8-0.8-1.4-1.7-1.8-2.8c-0.4-1.1-0.7-2.2-0.7-3.4s0.2-2.3,0.7-3.4c0.4-1,1.1-2,1.8-2.7c0.8-0.8,1.7-1.4,2.7-1.8
	c1-0.4,2.2-0.7,3.4-0.7s2.3,0.2,3.4,0.7c1,0.4,2,1.1,2.7,1.8c0.8,0.8,1.4,1.7,1.9,2.7c0.5,1,0.7,2.2,0.7,3.4v6.9
	c0,0.5-0.2,0.9-0.5,1.2c-0.3,0.3-0.8,0.5-1.3,0.5c-0.5,0-0.9-0.2-1.2-0.5c-0.3-0.3-0.5-0.7-0.5-1.2C96.7,84.5,96.4,84.8,95.9,85
	L95.9,85z M86.8,77.3c0,0.7,0.1,1.4,0.4,2c0.3,0.6,0.6,1.2,1.1,1.6c0.5,0.5,1,0.8,1.6,1.1c0.6,0.3,1.3,0.4,2,0.4
	c0.7,0,1.4-0.1,2-0.4c0.6-0.3,1.2-0.6,1.6-1.1c0.5-0.5,0.8-1,1.1-1.6c0.3-0.6,0.4-1.3,0.4-2c0-0.7-0.1-1.4-0.4-2
	c-0.3-0.6-0.6-1.2-1.1-1.7c-0.5-0.5-1-0.8-1.6-1.1c-0.6-0.3-1.3-0.4-2-0.4c-0.7,0-1.4,0.1-2,0.4c-0.6,0.3-1.2,0.6-1.6,1.1
	c-0.5,0.5-0.8,1-1.1,1.7C86.9,75.9,86.8,76.6,86.8,77.3z"/>
<path class="st1" d="M105.8,79.1v5.2c0,0.5-0.2,0.9-0.5,1.2c-0.3,0.3-0.7,0.5-1.2,0.5c-0.5,0-0.9-0.2-1.3-0.5
	c-0.3-0.3-0.5-0.7-0.5-1.2V70.4c0-0.5,0.2-0.9,0.5-1.2c0.3-0.3,0.8-0.5,1.3-0.5c0.5,0,0.9,0.2,1.2,0.5c0.3,0.3,0.5,0.7,0.5,1.2v5.2
	h10.3v-5.2c0-0.5,0.2-0.9,0.5-1.2c0.3-0.3,0.8-0.5,1.2-0.5c0.5,0,0.9,0.2,1.3,0.5c0.3,0.3,0.5,0.7,0.5,1.2v13.9
	c0,0.5-0.2,0.9-0.5,1.2c-0.3,0.3-0.8,0.5-1.3,0.5c-0.5,0-0.9-0.2-1.2-0.5c-0.3-0.3-0.5-0.7-0.5-1.2v-5.2H105.8z"/>
<path class="st1" d="M137,68.7c0.5,0,0.9,0.2,1.2,0.5c0.3,0.3,0.5,0.7,0.5,1.2v13.8c0,0.5-0.2,0.9-0.5,1.2c-0.3,0.3-0.7,0.5-1.2,0.5
	c-0.5,0-0.9-0.2-1.3-0.5c-0.3-0.3-0.5-0.7-0.5-1.2c-0.2,0.1-0.4,0.3-0.5,0.4c-0.1,0.1-0.3,0.2-0.5,0.3c-1.3,0.7-2.7,1-4.1,1
	c-1.2,0-2.3-0.2-3.4-0.7c-1-0.4-2-1.1-2.7-1.8c-0.8-0.8-1.4-1.7-1.8-2.7c-0.4-1-0.7-2.2-0.7-3.4v-6.9c0-0.5,0.2-0.9,0.5-1.2
	c0.3-0.3,0.8-0.5,1.3-0.5c0.5,0,0.9,0.2,1.2,0.5c0.3,0.3,0.5,0.7,0.5,1.2v6.9c0,0.7,0.1,1.4,0.4,2c0.3,0.6,0.6,1.2,1.1,1.6
	c0.5,0.5,1,0.8,1.6,1.1c0.6,0.3,1.3,0.4,2,0.4c0.7,0,1.4-0.1,2-0.4c0.6-0.3,1.2-0.6,1.6-1.1c0.5-0.5,0.8-1,1.1-1.6
	c0.3-0.6,0.4-1.3,0.4-2v-6.9c0-0.5,0.2-0.9,0.5-1.2S136.5,68.7,137,68.7z"/>
<path class="st1" d="M142.6,86c-0.5,0-0.9-0.2-1.2-0.5c-0.3-0.3-0.5-0.7-0.5-1.2V70.4c0-0.5,0.2-0.9,0.5-1.2
	c0.3-0.3,0.8-0.5,1.3-0.5c0.5,0,0.9,0.2,1.2,0.5c0.3,0.3,0.5,0.7,0.5,1.2v12.1h10.3V70.4c0-0.5,0.2-0.9,0.5-1.2
	c0.3-0.3,0.8-0.5,1.2-0.5c0.5,0,0.9,0.2,1.3,0.5c0.3,0.3,0.5,0.7,0.5,1.2v12.1h0.1c0.5,0,0.9,0.2,1.2,0.5c0.3,0.3,0.5,0.7,0.5,1.2
	v3.1c0,0.5-0.2,0.9-0.5,1.2c-0.3,0.3-0.8,0.5-1.2,0.5c-0.5,0-0.9-0.2-1.2-0.5c-0.3-0.3-0.5-0.7-0.5-1.2V86H142.6z"/>
<path class="st1" d="M173.5,85c-0.6,0.3-1.3,0.6-1.9,0.7c-0.7,0.2-1.4,0.3-2.1,0.3c-1.2,0-2.3-0.2-3.4-0.7c-1-0.4-2-1.1-2.7-1.8
	c-0.8-0.8-1.4-1.7-1.8-2.8c-0.4-1.1-0.7-2.2-0.7-3.4s0.2-2.3,0.7-3.4c0.4-1,1.1-2,1.8-2.7c0.8-0.8,1.7-1.4,2.7-1.8
	c1-0.4,2.2-0.7,3.4-0.7s2.3,0.2,3.4,0.7c1,0.4,2,1.1,2.7,1.8c0.8,0.8,1.4,1.7,1.9,2.7c0.5,1,0.7,2.2,0.7,3.4v6.9
	c0,0.5-0.2,0.9-0.5,1.2c-0.3,0.3-0.8,0.5-1.3,0.5c-0.5,0-0.9-0.2-1.2-0.5c-0.3-0.3-0.5-0.7-0.5-1.2C174.2,84.5,173.9,84.8,173.5,85
	L173.5,85z M164.3,77.3c0,0.7,0.1,1.4,0.4,2c0.3,0.6,0.6,1.2,1.1,1.6c0.5,0.5,1,0.8,1.6,1.1c0.6,0.3,1.3,0.4,2,0.4
	c0.7,0,1.4-0.1,2-0.4c0.6-0.3,1.2-0.6,1.6-1.1c0.5-0.5,0.8-1,1.1-1.6c0.3-0.6,0.4-1.3,0.4-2c0-0.7-0.1-1.4-0.4-2
	c-0.3-0.6-0.6-1.2-1.1-1.7s-1-0.8-1.6-1.1c-0.6-0.3-1.3-0.4-2-0.4c-0.7,0-1.4,0.1-2,0.4c-0.6,0.3-1.2,0.6-1.6,1.1
	c-0.5,0.5-0.8,1-1.1,1.7C164.4,75.9,164.3,76.6,164.3,77.3z"/>
<path class="st1" d="M197.2,79.1v5.2c0,0.5-0.2,0.9-0.5,1.2c-0.3,0.3-0.7,0.5-1.2,0.5c-0.5,0-0.9-0.2-1.3-0.5
	c-0.3-0.3-0.5-0.7-0.5-1.2V70.4c0-0.5,0.2-0.9,0.5-1.2c0.3-0.3,0.8-0.5,1.3-0.5c0.5,0,0.9,0.2,1.2,0.5c0.3,0.3,0.5,0.7,0.5,1.2v5.2
	h10.3v-5.2c0-0.5,0.2-0.9,0.5-1.2c0.3-0.3,0.8-0.5,1.2-0.5c0.5,0,0.9,0.2,1.3,0.5c0.3,0.3,0.5,0.7,0.5,1.2v13.9
	c0,0.5-0.2,0.9-0.5,1.2c-0.3,0.3-0.8,0.5-1.3,0.5c-0.5,0-0.9-0.2-1.2-0.5c-0.3-0.3-0.5-0.7-0.5-1.2v-5.2H197.2z"/>
<path class="st1" d="M229.2,74C229.2,74,229.2,74,229.2,74c0,0.1,0,0.1,0,0.1c0,0.1,0,0.2,0,0.3c0,0.1,0,0.1-0.1,0.2
	c0,0.1,0,0.1,0,0.1c0,0-0.1,0.1-0.1,0.2l0,0.1c-0.1,0.2-0.2,0.3-0.4,0.4c0,0.1-0.1,0.2-0.1,0.2c-0.1,0-0.2,0.1-0.4,0.2L216.9,80
	c0.2,0.4,0.5,0.7,0.8,1c0.3,0.3,0.6,0.5,0.9,0.7c0.3,0.2,0.6,0.3,0.8,0.4c0.2,0.1,0.4,0.2,0.6,0.2c0.2,0.1,0.4,0.1,0.7,0.1
	c0.2,0,0.5,0,0.8,0c0.3,0,0.6,0,1-0.1c0.4-0.1,0.7-0.2,1.1-0.4c0.4-0.2,0.8-0.4,1.2-0.8c0.4-0.3,0.8-0.8,1.1-1.4l0,0
	c0.3-0.6,0.8-0.9,1.6-0.9c0.4,0,0.7,0.1,0.9,0.2c0.4,0.3,0.7,0.6,0.8,1.1c0.1,0.4,0,0.9-0.2,1.3c-0.8,1.3-1.8,2.4-3.1,3.2
	c-1.3,0.7-2.7,1.1-4.2,1.1c-0.8,0-1.6-0.1-2.5-0.3c-0.9-0.3-1.8-0.7-2.6-1.2c-0.8-0.5-1.5-1.2-2-1.9c-1.1-1.6-1.7-3.4-1.7-5.3
	c0-1,0.2-2,0.5-2.9c0.3-0.9,0.8-1.7,1.3-2.4c1.2-1.4,2.8-2.4,4.8-3c0.4-0.1,0.8-0.1,1.1-0.2c0.3,0,0.7-0.1,1-0.1
	c1.6,0,3.1,0.4,4.4,1.3c1.3,0.8,2.4,2,3.2,3.5v0.1C229.2,73.6,229.2,73.7,229.2,74L229.2,74z M217.8,73.6c-0.8,0.7-1.3,1.6-1.5,2.9
	l8.4-3.2c-0.6-0.6-1.2-0.9-1.7-1c-0.6-0.1-1.1-0.1-1.5-0.1c-0.4,0-0.9,0.1-1.2,0.1C219.3,72.5,218.5,72.9,217.8,73.6z"/>
<path class="st1" d="M245,70.4c0-0.5,0.2-0.9,0.5-1.2c0.3-0.3,0.7-0.5,1.2-0.5h12.1c0.5,0,0.9,0.2,1.2,0.5c0.3,0.3,0.5,0.7,0.5,1.2
	c0,0.5-0.2,0.9-0.5,1.2c-0.3,0.3-0.7,0.5-1.2,0.5h-10.3v12.1c0,0.5-0.2,0.9-0.5,1.2c-0.3,0.3-0.7,0.5-1.2,0.5
	c-0.5,0-0.9-0.2-1.2-0.5c-0.3-0.3-0.5-0.7-0.5-1.2V70.4z"/>
<path class="st1" d="M270.8,86c-1.2,0-2.3-0.2-3.4-0.7c-1-0.4-2-1.1-2.7-1.8s-1.4-1.7-1.8-2.7c-0.4-1-0.7-2.2-0.7-3.4
	c0-1.2,0.2-2.3,0.7-3.4c0.4-1,1.1-2,1.8-2.7s1.7-1.4,2.7-1.8c1-0.4,2.2-0.7,3.4-0.7c1.2,0,2.3,0.2,3.4,0.7c1,0.4,2,1.1,2.7,1.8
	s1.4,1.7,1.9,2.7c0.5,1,0.7,2.2,0.7,3.4c0,1.2-0.2,2.3-0.7,3.4c-0.5,1-1.1,2-1.9,2.7s-1.7,1.4-2.7,1.8C273.1,85.7,272,86,270.8,86z
	 M270.8,72.2c-0.7,0-1.4,0.1-2,0.4c-0.6,0.3-1.2,0.6-1.6,1.1c-0.5,0.5-0.8,1-1.1,1.6c-0.3,0.6-0.4,1.3-0.4,2c0,0.7,0.1,1.4,0.4,2
	c0.3,0.6,0.6,1.2,1.1,1.6c0.5,0.5,1,0.8,1.6,1.1c0.6,0.3,1.3,0.4,2,0.4c0.7,0,1.4-0.1,2-0.4c0.6-0.3,1.2-0.6,1.6-1.1
	c0.5-0.5,0.8-1,1.1-1.6c0.3-0.6,0.4-1.3,0.4-2c0-0.7-0.1-1.4-0.4-2c-0.3-0.6-0.6-1.2-1.1-1.6c-0.5-0.5-1-0.8-1.6-1.1
	C272.2,72.3,271.5,72.2,270.8,72.2z"/>
<path class="st1" d="M282.7,86c-0.5,0-0.9-0.2-1.2-0.5c-0.3-0.3-0.5-0.7-0.5-1.2v-8.6c0-0.9,0.2-1.8,0.5-2.7
	c0.4-0.8,0.9-1.6,1.5-2.2c0.6-0.6,1.4-1.1,2.2-1.5c0.8-0.4,1.7-0.5,2.7-0.5c1,0,2,0.2,2.9,0.6c0.9,0.4,1.7,1,2.3,1.7
	c0.6-0.8,1.4-1.3,2.3-1.7c0.9-0.4,1.8-0.6,2.9-0.6c0.9,0,1.8,0.2,2.7,0.5c0.8,0.4,1.6,0.9,2.2,1.5c0.6,0.6,1.1,1.4,1.5,2.2
	c0.4,0.8,0.6,1.7,0.6,2.7v8.6c0,0.5-0.2,0.9-0.5,1.2c-0.3,0.3-0.8,0.5-1.3,0.5c-0.5,0-0.9-0.2-1.2-0.5c-0.3-0.3-0.5-0.7-0.5-1.2
	v-8.6c0-0.5-0.1-0.9-0.3-1.3c-0.2-0.4-0.4-0.8-0.7-1.1c-0.3-0.3-0.7-0.6-1.1-0.7c-0.4-0.2-0.9-0.3-1.3-0.3c-0.5,0-0.9,0.1-1.3,0.3
	c-0.4,0.2-0.8,0.4-1.1,0.7c-0.3,0.3-0.6,0.7-0.7,1.1c-0.2,0.4-0.3,0.9-0.3,1.3v8.6c0,0.5-0.2,0.9-0.5,1.2c-0.3,0.3-0.8,0.5-1.3,0.5
	c-0.5,0-0.9-0.2-1.2-0.5c-0.3-0.3-0.5-0.7-0.5-1.2v-8.6c0-0.5-0.1-0.9-0.3-1.3c-0.2-0.4-0.4-0.8-0.7-1.1c-0.3-0.3-0.7-0.6-1.1-0.7
	c-0.4-0.2-0.9-0.3-1.3-0.3c-0.5,0-0.9,0.1-1.3,0.3c-0.4,0.2-0.8,0.4-1.1,0.7c-0.3,0.3-0.6,0.7-0.7,1.1c-0.2,0.4-0.3,0.9-0.3,1.3v8.6
	c0,0.5-0.2,0.9-0.5,1.2C283.6,85.8,283.2,86,282.7,86z"/>
<path class="st1" d="M315.5,86c-1.2,0-2.3-0.2-3.4-0.7c-1-0.4-2-1.1-2.7-1.8s-1.4-1.7-1.8-2.7c-0.4-1-0.7-2.2-0.7-3.4
	c0-1.2,0.2-2.3,0.7-3.4c0.4-1,1.1-2,1.8-2.7s1.7-1.4,2.7-1.8c1-0.4,2.2-0.7,3.4-0.7c1.2,0,2.3,0.2,3.4,0.7c1,0.4,2,1.1,2.7,1.8
	s1.4,1.7,1.9,2.7c0.5,1,0.7,2.2,0.7,3.4c0,1.2-0.2,2.3-0.7,3.4c-0.5,1-1.1,2-1.9,2.7s-1.7,1.4-2.7,1.8C317.8,85.7,316.7,86,315.5,86
	z M315.5,72.2c-0.7,0-1.4,0.1-2,0.4c-0.6,0.3-1.2,0.6-1.6,1.1c-0.5,0.5-0.8,1-1.1,1.6c-0.3,0.6-0.4,1.3-0.4,2c0,0.7,0.1,1.4,0.4,2
	c0.3,0.6,0.6,1.2,1.1,1.6c0.5,0.5,1,0.8,1.6,1.1c0.6,0.3,1.3,0.4,2,0.4c0.7,0,1.4-0.1,2-0.4c0.6-0.3,1.2-0.6,1.6-1.1
	c0.5-0.5,0.8-1,1.1-1.6c0.3-0.6,0.4-1.3,0.4-2c0-0.7-0.1-1.4-0.4-2c-0.3-0.6-0.6-1.2-1.1-1.6c-0.5-0.5-1-0.8-1.6-1.1
	C316.9,72.3,316.3,72.2,315.5,72.2z"/>
<path class="st1" d="M336.2,68.7c0.7,0,1.4,0.1,2,0.4c0.6,0.3,1.2,0.6,1.7,1.1c0.5,0.5,0.8,1,1.1,1.7c0.3,0.6,0.4,1.3,0.4,2
	c0,0.7-0.1,1.3-0.3,1.9c-0.2,0.6-0.5,1.1-1,1.6c0.9,1,1.3,2.2,1.3,3.5c0,0.7-0.1,1.4-0.4,2c-0.3,0.6-0.6,1.2-1.1,1.7
	c-0.5,0.4-1,0.8-1.7,1.1c-0.6,0.3-1.3,0.4-2,0.4h-8.6c-0.5,0-0.9-0.2-1.2-0.5c-0.3-0.3-0.5-0.8-0.5-1.3V70.4c0-0.5,0.2-0.9,0.5-1.2
	c0.3-0.3,0.7-0.5,1.2-0.5H336.2z M329.3,72.1v3.4h6.9c0.4,0,0.8-0.2,1.2-0.5c0.3-0.3,0.5-0.7,0.5-1.2c0-0.5-0.2-0.9-0.5-1.2
	c-0.3-0.3-0.7-0.5-1.2-0.5H329.3z M329.3,79.1v3.4h6.9c0.4,0,0.8-0.2,1.2-0.5c0.3-0.3,0.5-0.7,0.5-1.2c0-0.5-0.2-0.9-0.5-1.2
	c-0.3-0.3-0.7-0.5-1.2-0.5H329.3z"/>
<path class="st1" d="M355.9,85c-0.6,0.3-1.3,0.6-1.9,0.7c-0.7,0.2-1.4,0.3-2.1,0.3c-1.2,0-2.3-0.2-3.4-0.7c-1-0.4-2-1.1-2.7-1.8
	c-0.8-0.8-1.4-1.7-1.8-2.8c-0.4-1.1-0.7-2.2-0.7-3.4s0.2-2.3,0.7-3.4c0.4-1,1.1-2,1.8-2.7c0.8-0.8,1.7-1.4,2.7-1.8
	c1-0.4,2.2-0.7,3.4-0.7s2.3,0.2,3.4,0.7c1,0.4,2,1.1,2.7,1.8c0.8,0.8,1.4,1.7,1.9,2.7c0.5,1,0.7,2.2,0.7,3.4v6.9
	c0,0.5-0.2,0.9-0.5,1.2c-0.3,0.3-0.8,0.5-1.3,0.5c-0.5,0-0.9-0.2-1.2-0.5c-0.3-0.3-0.5-0.7-0.5-1.2C356.7,84.5,356.3,84.8,355.9,85
	L355.9,85z M346.7,77.3c0,0.7,0.1,1.4,0.4,2c0.3,0.6,0.6,1.2,1.1,1.6c0.5,0.5,1,0.8,1.6,1.1c0.6,0.3,1.3,0.4,2,0.4
	c0.7,0,1.4-0.1,2-0.4c0.6-0.3,1.2-0.6,1.6-1.1c0.5-0.5,0.8-1,1.1-1.6c0.3-0.6,0.4-1.3,0.4-2c0-0.7-0.1-1.4-0.4-2
	c-0.3-0.6-0.6-1.2-1.1-1.7s-1-0.8-1.6-1.1c-0.6-0.3-1.3-0.4-2-0.4c-0.7,0-1.4,0.1-2,0.4c-0.6,0.3-1.2,0.6-1.6,1.1
	c-0.5,0.5-0.8,1-1.1,1.7C346.9,75.9,346.7,76.6,346.7,77.3z"/>
<path class="st1" d="M363.5,82.1c0.5,0,0.9,0.2,1.3,0.5c0.3,0.3,0.5,0.7,0.5,1.2v0.4c0,0.5-0.2,0.9-0.5,1.3
	c-0.3,0.3-0.8,0.5-1.3,0.5c-0.5,0-0.9-0.2-1.2-0.5c-0.3-0.3-0.5-0.8-0.5-1.3v-0.4c0-0.5,0.2-0.9,0.5-1.2
	C362.6,82.2,363,82.1,363.5,82.1z"/>
<path class="st1" d="M367.8,82.1c0.5,0,0.9,0.2,1.3,0.5c0.3,0.3,0.5,0.7,0.5,1.2v0.4c0,0.5-0.2,0.9-0.5,1.3
	c-0.3,0.3-0.8,0.5-1.3,0.5c-0.5,0-0.9-0.2-1.2-0.5c-0.3-0.3-0.5-0.8-0.5-1.3v-0.4c0-0.5,0.2-0.9,0.5-1.2
	C367,82.2,367.4,82.1,367.8,82.1z"/>
<path class="st1" d="M372.2,82.1c0.5,0,0.9,0.2,1.3,0.5c0.3,0.3,0.5,0.7,0.5,1.2v0.4c0,0.5-0.2,0.9-0.5,1.3
	c-0.3,0.3-0.8,0.5-1.3,0.5c-0.5,0-0.9-0.2-1.2-0.5c-0.3-0.3-0.5-0.8-0.5-1.3v-0.4c0-0.5,0.2-0.9,0.5-1.2
	C371.3,82.2,371.7,82.1,372.2,82.1z"/>
</svg>
