<?xml version="1.0" encoding="utf-8"?>
<!-- Generator: Adobe Illustrator 26.2.1, SVG Export Plug-In . SVG Version: 6.00 Build 0)  -->
<svg version="1.1" id="Слой_1" xmlns="http://www.w3.org/2000/svg" xmlns:xlink="http://www.w3.org/1999/xlink" x="0px" y="0px"
	 viewBox="0 0 385 150" style="enable-background:new 0 0 385 150;" xml:space="preserve">
<style type="text/css">
	.st0{fill:#940029;}
	.st1{fill:#FFFFFF;}
	.st2{opacity:0.46;}
</style>
<g>
	<path class="st0" d="M357.8,150H28.2C13,150,0.7,137.7,0.7,122.5V27.8C0.7,12.6,13,0.3,28.2,0.3h329.6c15.2,0,27.5,12.3,27.5,27.5
		v94.7C385.3,137.7,373,150,357.8,150z"/>
</g>
<g>
	<path class="st1" d="M60.9,74.8v-0.9h-2.8v-0.9h-0.9v-2.8h0.9v-2.8h10.3v-1.9h-6.6v-0.9H60v-0.9H59v-0.9h-0.9v-0.9h-0.9v-1.9h-0.9
		v-4.7h0.9v-1.9h0.9v-0.9H59v-0.9H60v-0.9h0.9v-0.9h2.8v-0.9h10.3v0.9h2.8v0.9h0.9v2.8h-0.9v1.9h-1V56h-8.5v2.8h5.6v0.9h2.8v0.9h1v1
		h0.9v0.9h0.9v1.9h0.9v4.7h-0.9V71h-0.9V72h-0.9v0.9h-1v0.9h-2.8v0.9H60.9z"/>
	<path class="st1" d="M80.6,73.9V48.5H90v8.5h3.8v-8.5h9.4v25.4h-9.4v-9.4H90v9.4H80.6z"/>
	<path class="st1" d="M115.4,74.8v-0.9h-3.8v-0.9h-1.9V72h-0.9V71h-0.9v-0.9h-0.9v-0.9H106v-1.9h-0.9v-2.8h-0.9v-5.6h0.9V56h0.9
		v-1.9h0.9v-0.9h0.9v-1.9h0.9v-0.9h0.9v-0.9h1.9v-0.9h3.8v-1h6.6v1h3.8v0.9h1.9v0.9h0.9v0.9h0.9v0.9h1v1.9h0.9V56h0.9v2.8h0.9v5.6
		h-0.9v2.8h-0.9v1.9h-0.9v0.9h-1V71h-0.9V72h-0.9v0.9h-1.9v0.9H122v0.9H115.4z M119.2,66.3v-0.9h1.9v-0.9h0.9v-0.9h0.9v-1.9h1v-4.7
		h-1V56h-4.7v0.9h-1.9v0.9h-0.9v0.9h-0.9v1.9h-0.9v4.7h0.9v0.9H119.2z"/>
	<path class="st1" d="M134.2,73.9V48.5h16.9v0.9h2.8v0.9h0.9v0.9h0.9v0.9h0.9v1.9h0.9v4.7h-0.9v1.9h-0.9v1h-0.9v0.9h-0.9v0.9h-2.8
		v0.9h-6.6v9.4H134.2z M146.4,58.8v-0.9h1.9v-0.9h0.9v-1.9h-4.7v3.8H146.4z"/>
	<path class="st1" d="M162.4,73.9v-0.9h-1.9V72h-0.9v-1.9h-0.9v-3.8h0.9v-1.9h0.9v-0.9h1.9v-0.9h3.8v0.9h1.9v0.9h0.9v1.9h0.9v3.8
		H169V72H168v0.9h-1.9v0.9H162.4z"/>
	<path class="st1" d="M170.8,73.9V48.5h16.9v0.9h2.8v0.9h0.9v0.9h0.9v0.9h0.9v1.9h0.9v4.7h-0.9v1.9h-0.9v1h0.9v1.9h0.9v4.7h-0.9v1.9
		h-0.9V71h-0.9V72h-0.9v0.9h-2.8v0.9H170.8z M183.1,58.8v-0.9h1.9v-0.9h0.9v-1.9h-4.7v3.8H183.1z M183.1,68.2v-1h1.9v-0.9h0.9v-1.9
		h-4.7v3.8H183.1z"/>
	<path class="st1" d="M200.9,73.9v-0.9H200V72H199V71h-0.9v-0.9h-0.9v-0.9h-0.9v-1.9h-0.9V48.5h10.3v19.7h1.9v-1h1v-0.9h0.9v-0.9
		h0.9v-1.9h0.9v-15h9.4v18.8h-0.9v1.9h-0.9v0.9h-0.9V71h-0.9V72H216v0.9H215v0.9H200.9z"/>
	<path class="st1" d="M229.1,73.9V56h-7.5v-7.5H247V56h-7.5v17.9H229.1z"/>
	<path class="st1" d="M258.3,74.8v-0.9h-2.8v-0.9h-1.9V72h-0.9V71h-0.9v-0.9h-0.9v-0.9h-0.9v-1.9h-0.9v-2.8h-0.9v-5.6h0.9V56h0.9
		v-1.9h0.9v-1.9h0.9v-0.9h0.9v-0.9h0.9v-0.9h1.9v-0.9h3.8v-1h6.6v1h5.6v4.7h-0.9v3.8h-2.8V56H262v0.9h-1.9v0.9h-0.9v0.9h-0.9v1.9
		h-0.9v4.7h0.9v0.9h3.8v-0.9h0.9v-4.7h7.5v12.2h-0.9v0.9h-3.8v0.9H258.3z"/>
	<path class="st1" d="M276.1,73.9v-0.9h-1.9V72h-0.9v-1.9h-0.9v-3.8h0.9v-1.9h0.9v-0.9h1.9v-0.9h3.8v0.9h1.9v0.9h0.9v1.9h0.9v3.8
		h-0.9V72h-0.9v0.9h-1.9v0.9H276.1z"/>
	<path class="st1" d="M284.6,73.9V48.5h16.9v0.9h2.8v0.9h0.9v0.9h0.9v0.9h0.9v1.9h0.9v4.7h-0.9v1.9h-0.9v1h-0.9v0.9h-0.9v0.9h-1v1.9
		h1v1.9h0.9v1.9h0.9V71h0.9v1.9h0.9v0.9h-10.3V72h-1v-2.8h-0.9v-2.8h-0.9v7.5H284.6z M296.8,58.8v-0.9h1.9v-0.9h0.9v-1.9h-4.7v3.8
		H296.8z"/>
	<path class="st1" d="M314.6,73.9v-0.9h-0.9V72h-0.9V71h-0.9v-0.9h-0.9v-0.9h-0.9v-1.9H309V48.5h10.3v19.7h1.9v-1h1v-0.9h0.9v-0.9
		h0.9v-1.9h0.9v-15h9.4v18.8h-0.9v1.9h-0.9v0.9h-0.9V71h-0.9V72h-0.9v0.9h-0.9v0.9H314.6z"/>
</g>
<path class="st2" d="M0,103.4v19.1C0,137.7,12.3,150,27.5,150h329.6c15.2,0,27.5-12.3,27.5-27.5v-19.1H0z"/>
<path class="st1" d="M74.1,131.9v-2.3h-2.2v-6.9h2.2v-2.3h4.7v2.3h2.3v2.4h-2.4v-2.3h-4.5v6.7h4.5v-2.3h2.4v2.4h-2.3v2.3H74.1z"/>
<path class="st1" d="M86.2,131.9l0-2.3H84v-6.9h2.2l0-2.3h4.7v2.3h2.3v7l-2.3,0v2.3L86.2,131.9z M86.3,129.5h4.5v-6.7h-4.5V129.5z"
	/>
<path class="st1" d="M103.1,129.6v2.3h-7v-11.5h7v2.3h2.3v2.4l-2.3,0v2.1h2.3v2.4H103.1z M103,122.8h-4.5v2.2h4.5V122.8z M103,129.5
	v-2.2h-4.5v2.2H103z"/>
<path class="st1" d="M117.3,131.9v-6.8h-2.1v2.3l-2.4,0v-2.3h-2.2l0,6.8h-2.3v-11.5h2.4v2.3h2.3v2.3h2.2v-2.3h2.3v-2.3h2.4v11.5
	H117.3z"/>
<path class="st1" d="M122.6,131.9v-11.5h7v2.4H125v2.2h2.3v2.4H125v2.2h4.6v2.4H122.6z"/>
<path class="st1" d="M134.8,131.9v-2.3h-2.2v-6.9h2.2v-2.3h4.7v2.3h2.3v2.4h-2.4v-2.3h-4.5v6.7h4.5v-2.3h2.4v2.4h-2.3v2.3H134.8z"/>
<path class="st1" d="M149.3,122.8v9.1h-2.4v-9.1h-2.2v-2.4h6.9v2.4H149.3z"/>
<path class="st1" d="M161.3,131.9v-4.6h-4.4v4.6h-2.4v-11.5h2.4v4.6h4.4v-4.6h2.4v11.5H161.3z"/>
<path class="st1" d="M168.8,131.9l0-2.3h-2.2v-6.9h2.2l0-2.3h4.7v2.3h2.3v7l-2.3,0v2.3L168.8,131.9z M168.9,129.5h4.5v-6.7h-4.5
	V129.5z"/>
<path class="st1" d="M187.8,131.9v-2.3h-2.2v-6.9h2.2v-2.3h4.7v2.3h2.3v2.4h-2.4v-2.3h-4.5v6.7h4.5v-2.3h2.4v2.4h-2.3v2.3H187.8z"/>
<path class="st1" d="M211.4,125.3v2.3h-2.3v-2.3h-2.3v6.9h-2.3v-11.4h2.3v2.3h2.3v2.3H211.4z M216,132.1h-2.3v-6.9h-2.3V123h2.3
	v-2.3h2.3V132.1z"/>
<path class="st1" d="M222.8,127.6h-2.3v2.3h4.6v2.3h-6.8v-11.4h6.8v2.3h-4.6v2.3h2.3V127.6z"/>
<path class="st1" d="M229.7,129.8h4.6v2.3h-6.8v-11.4h2.3V129.8z"/>
<path class="st1" d="M238.8,120.7h4.6v2.3h-4.6v6.8h4.6v2.3h-4.6v-2.3h-2.3V123h2.3V120.7z M243.4,129.8V123h2.3v6.8H243.4z"/>
<path class="st1" d="M250.2,123h2.3v2.3h-2.3v6.9h-2.3v-11.4h2.3V123z M257.1,132.1h-2.3v-4.6h-2.3v-2.3h2.3v-4.5h2.3V132.1z"/>
<path class="st1" d="M261.6,123h2.3v-2.3h2.3v6.8h2.3v2.3h-2.3v2.3h-2.3v-2.3h-4.6v-4.6h2.3v2.3h2.3v-2.3h-2.3V123z"/>
<path class="st1" d="M273,132.1h-2.3v-11.4h2.3V132.1z"/>
<path class="st1" d="M282.1,127.6v2.3h-2.3v-2.3h-2.3v4.6h-2.3v-11.4h2.3v4.5h2.3v2.3H282.1z M282.1,123v2.3h-2.3V123H282.1z
	 M284.4,123h-2.3v-2.3h2.3V123z M284.4,132.1h-2.3v-2.3h2.3V132.1z"/>
<path class="st1" d="M293.6,125.3v2.3H289v4.6h-2.3v-11.4h6.8v2.3H289v2.3H293.6z M293.6,125.3V123h2.3v2.3H293.6z"/>
<path class="st1" d="M305,125.3v2.3h-4.6v4.6h-2.3v-11.4h6.8v2.3h-4.6v2.3H305z M305,125.3V123h2.3v2.3H305z M307.2,132.1H305v-4.6
	h2.3V132.1z"/>
<path class="st1" d="M311.8,120.7h4.6v2.3h-4.6v6.8h4.6v2.3h-4.6v-2.3h-2.3V123h2.3V120.7z M316.4,129.8V123h2.3v6.8H316.4z"/>
</svg>
