<?xml version="1.0" encoding="utf-8"?>
<!-- Generator: Adobe Illustrator 26.2.1, SVG Export Plug-In . SVG Version: 6.00 Build 0)  -->
<svg version="1.1" id="Слой_1" xmlns="http://www.w3.org/2000/svg" xmlns:xlink="http://www.w3.org/1999/xlink" x="0px" y="0px"
	 viewBox="0 0 50 50" style="enable-background:new 0 0 50 50;" xml:space="preserve">
<style type="text/css">
	.st0{fill:#FFFFFF;}
</style>
<path class="st0" d="M24.8,0.7C11.5,0.7,0.6,11.6,0.6,24.9s10.8,24.2,24.2,24.2S49,38.3,49,24.9S38.2,0.7,24.8,0.7z M24.8,45.1
	c-9.6,0-17.6-6.7-19.6-15.6l7.6,3.2c0.5,2.5,2.7,4.4,5.4,4.4c3,0,5.4-2.4,5.4-5.4l0,0l6.2-4.6c4,0,7.2-3.2,7.2-7.1
	c0-3.9-3.2-7.1-7.1-7.1c-3.9,0-7,3.1-7.1,6.9l-4.6,6.4c-1.2,0-2.2,0.3-3.1,0.9L4.8,22.7c1.1-10.1,9.7-17.9,20-17.9
	c11.1,0,20.2,9,20.2,20.2S35.9,45.1,24.8,45.1z M19.3,28.8l-2.7-1.1c0.5-0.2,1-0.3,1.5-0.3c2.3,0,4.2,1.9,4.2,4.2
	c0,2.3-1.8,4.2-4.2,4.2c-1.7,0-3.2-1-3.9-2.5l2.7,1.1c1.6,0.7,3.3-0.1,4-1.6C21.5,31.2,20.8,29.4,19.3,28.8z M25,19.9
	c0-2.7,2.2-4.8,4.8-4.8c2.7,0,4.8,2.2,4.8,4.8c0,2.6-2.2,4.8-4.8,4.8C27.2,24.7,25,22.6,25,19.9z M29.8,23.5c-2,0-3.6-1.6-3.6-3.6
	s1.6-3.6,3.6-3.6c2,0,3.6,1.6,3.6,3.6S31.8,23.5,29.8,23.5z"/>
</svg>
