<?xml version="1.0" encoding="utf-8"?>
<!-- Generator: Adobe Illustrator 26.2.1, SVG Export Plug-In . SVG Version: 6.00 Build 0)  -->
<svg version="1.1" id="Слой_1" xmlns="http://www.w3.org/2000/svg" xmlns:xlink="http://www.w3.org/1999/xlink" x="0px" y="0px"
	 viewBox="0 0 581.6 92" style="enable-background:new 0 0 581.6 92;" xml:space="preserve">
<style type="text/css">
	.st0{fill:#FFFFFF;}
</style>
<polygon class="st0" points="54.4,66.5 54.4,69.3 66.2,69.3 66.2,51.2 "/>
<polygon class="st0" points="66.4,32.4 54.4,32.4 52.2,35.3 52.2,50.8 "/>
<rect x="67.8" y="32.4" class="st0" width="11.8" height="37.1"/>
<rect x="19.9" y="20.8" class="st0" width="11.8" height="48.7"/>
<rect x="36.1" y="41.5" class="st0" width="11.8" height="28"/>
<path class="st0" d="M51.5,31.1c2.2-3.1,1.9-7.2-0.3-10L41.9,34C45.5,35.2,49.3,34.1,51.5,31.1z"/>
<polygon class="st0" points="8.5,82.9 8.5,9 0,9 0,91.5 8.5,91.5 90.9,91.5 90.9,82.9 "/>
<polygon class="st0" points="90.9,9 90.9,82.9 99.6,82.9 99.6,0.4 90.9,0.4 8.5,0.4 8.5,9 "/>
<polygon class="st0" points="571.8,0.4 157.3,0.4 157.3,10.2 571.8,10.2 571.8,70.5 581.6,70.5 581.6,10.2 581.6,0.4 "/>
<g>
	<polygon class="st0" points="163.2,30.9 178.9,30.9 178.9,69.8 192.9,69.8 192.9,18.8 149.2,18.8 149.2,69.8 163.2,69.8 	"/>
	<path class="st0" d="M224.3,73.1l12.8-40.8h-12.7l-5.9,22.8l-7.1-22.8h-14l13.8,36.3l-0.1,1.2c-0.1,1-0.7,1.9-1.5,2.4
		c-0.7,0.4-1.8,0.7-3.1,0.7c-0.7,0-1.6,0-2.5-0.3c-0.9-0.1-1.9-0.4-3.1-0.9l-0.1,9.1h-62.4V21h-10v60.2v9.9h9.9h414.5v-9.9H221.3
		C222.6,78.3,223.8,74.6,224.3,73.1z"/>
	<path class="st0" d="M243,64.6c1.8,1.8,4,3.2,6.5,4.3c2.5,1,5.6,1.5,8.8,1.5c3.1,0,5.7-0.4,8.1-1.3c2.4-0.9,4.4-2.1,6.2-3.7
		c1.8-1.5,3.1-3.2,4.1-5.3l-13.2-4c-0.3,0.6-0.7,1-1.3,1.5c-0.4,0.4-1,0.7-1.8,0.9c-0.6,0.1-1.3,0.3-2.1,0.3c-1.2,0-2.4-0.3-3.4-0.9
		s-1.8-1.5-2.4-2.6c-0.6-1.2-0.9-2.5-0.9-4.1c0-1.6,0.3-3.1,0.9-4.3c0.6-1,1.3-1.9,2.4-2.6c0.9-0.6,2.1-0.9,3.4-0.9
		c1,0,2.1,0.1,2.9,0.7c0.9,0.4,1.6,1.2,2.2,2.1l13.2-4c-1.5-2.9-3.8-5.4-6.9-7.4s-6.9-2.8-11.5-2.8c-4.4,0-8.2,0.9-11.3,2.6
		c-3.1,1.8-5.4,4.1-7.1,7.1c-1.6,2.9-2.4,6.2-2.4,9.4c0,2.5,0.4,5,1.3,7.2C239.7,60.8,241.2,62.8,243,64.6z"/>
	<path class="st0" d="M323.7,50.6h10.4c0.1-0.7,0.3-1.5,0.7-2.1c0.6-1.2,1.3-2.1,2.4-2.6c1-0.6,2.1-0.9,3.4-0.9
		c1.2,0,2.4,0.3,3.4,0.9c1,0.6,1.8,1.5,2.4,2.6c0.6,1.2,0.9,2.5,0.9,4.1h3.4c0.1-0.6,0.1-1.3,0.1-2.1H361c-0.1-1.8-0.6-3.5-1.2-5.3
		c-0.9-2.4-2.2-4.4-4-6.2c-1.8-1.8-4-3.2-6.5-4.3c-2.6-1-5.6-1.5-9-1.5c-3.4,0-6.3,0.4-8.8,1.5c-2.5,1-4.7,2.4-6.5,4.3
		c-1.8,1.8-3.1,3.8-4,6.2c-0.9,2.4-1.3,4.7-1.3,7.2h3.8C323.9,52.1,323.7,51.4,323.7,50.6z"/>
	<path class="st0" d="M351,52.7c-0.1,0.7-0.3,1.5-0.7,2.1c-0.6,1.2-1.3,2.1-2.4,2.6c-1,0.6-2.1,0.9-3.4,0.9c-1.2,0-2.4-0.3-3.4-0.9
		c-1-0.6-1.8-1.5-2.4-2.6c-0.6-1.2-0.9-2.5-0.9-4.1h-3.4c-0.1,0.6-0.1,1.3-0.1,2.1h-10.2c0.1,1.8,0.6,3.5,1.2,5.3
		c0.9,2.4,2.2,4.4,4,6.2c1.8,1.8,4,3.2,6.5,4.3c2.5,1,5.6,1.5,8.8,1.5c3.4,0,6.5-0.4,9-1.5s4.7-2.4,6.5-4.3c1.8-1.8,3.1-3.8,4-6.2
		c0.9-2.4,1.3-4.7,1.3-7.2h-3.8c0,0.7,0.1,1.3,0.1,2.1H351V52.7z"/>
	<polygon class="st0" points="391.1,43.7 368.6,43.7 368.6,56.1 391.1,55.9 	"/>
	<path class="st0" d="M401,64c2.2,2.5,5,4.4,8.1,5.4c3.1,1.2,6.5,1.3,10,0.6c3.5-0.7,6.9-2.5,10.2-5.6c3.4-3.1,5.6-6.3,6.6-9.9
		c1-3.5,1-6.9,0.1-10.2l-12.5,5.9c0.1,1,0,2.1-0.3,3.1c-0.3,0.9-0.9,1.8-1.8,2.5c-0.9,0.7-1.9,1.3-3.1,1.5c-1.2,0.1-2.4,0-3.5-0.3
		c-1.2-0.4-2.4-1.3-3.5-2.5c-1-1.2-1.8-2.5-2.1-3.7c-0.3-1.2-0.3-2.4,0-3.5c0.3-1,0.9-2.1,1.9-2.9c0.6-0.4,1.2-0.9,1.8-1.2
		c0.6-0.1,1.2-0.3,1.9-0.4c0.6,0,1.3,0,2.1,0.1l7.2-11.9c-2.1-0.7-4.3-1.2-6.6-1.2c-2.4,0-4.7,0.4-6.9,1.5c-2.2,1-4.7,2.4-7.1,4.3
		c-2.5,2.2-4.3,4.6-5.6,7.1c-1.2,2.5-1.9,5-1.9,7.5s0.3,5,1.2,7.2C398.1,60,399.2,62.2,401,64z"/>
	<path class="st0" d="M458,46.2c-1.3-0.1-2.8-0.3-4.3-0.3c-3.2,0-6,0.4-8.4,1.6c-2.5,1-4.4,2.5-5.7,4.4c-1.3,1.9-2.1,4.1-2.1,6.6
		c0,2.2,0.4,4.3,1.9,6c1.2,1.8,2.6,3.2,4.7,4.3c2.1,1,4.3,1.5,6.8,1.5s4.9-0.6,7.1-1.6c2.2-1,4.1-2.6,5.9-4.9L464,65
		c0.3,1.8,1.2,3.1,2.5,4c1.2,0.9,3.1,1.3,5.6,1.3c0.7,0,1.6,0,2.6-0.1c1,0,2.1-0.3,3.1-0.4V58.3c-1,0-1.6-0.3-2.1-0.9
		c-0.3-0.4-0.6-1.3-0.6-2.6v-7.1c0-5.2-1.6-9.1-4.9-11.8c-3.2-2.6-7.9-4-14-4c-3.2,0-6.3,0.3-9,1.2c-2.8,0.7-5.4,2.1-7.9,3.7l4,8.4
		c1.9-1.3,4-2.4,5.7-3.1c1.8-0.6,3.8-1,5.9-1c2.2,0,4,0.4,5,1.2c1,0.7,1.5,2.1,1.5,3.8v1.2C460.5,46.8,459.3,46.4,458,46.2z
		 M461.3,56.8c0,0.4-0.1,0.9-0.4,1.3c-0.3,0.4-0.7,0.7-1.3,1.2c-0.6,0.4-1.3,0.7-2.2,1c-0.9,0.1-1.8,0.3-2.5,0.3
		c-0.9,0-1.6-0.1-2.4-0.4c-0.7-0.3-1.2-0.7-1.6-1.2c-0.3-0.4-0.6-1-0.6-1.8c0-1.2,0.6-2.1,1.6-2.9c1.2-0.7,2.5-1.2,4.1-1.2
		c0.7,0,1.6,0.1,2.6,0.3c1,0.1,1.8,0.3,2.6,0.6L461.3,56.8L461.3,56.8z"/>
	<polygon class="st0" points="507,50.9 507,69.8 520.5,69.8 520.5,32.5 508.1,32.5 496.2,51.8 496.2,32.5 482.5,32.5 482.5,69.8 
		495,69.8 	"/>
	<path class="st0" d="M497.2,26.2c1-1,2.5-1.5,4.4-1.5c1.8,0,3.2,0.4,4.1,1.5c0.9,1,1.5,2.4,1.6,4h7.7c0-3.7-1.3-6.6-3.8-8.7
		c-2.5-2.2-5.7-3.2-9.7-3.2c-4,0-7.2,1-9.7,3.2s-3.8,5.2-3.8,8.7h7.7C495.8,28.5,496.4,27.2,497.2,26.2z"/>
	<polygon class="st0" points="525.1,32.5 525.1,44.3 535.8,44.3 535.8,69.8 549.5,69.8 549.5,44.3 560.2,44.3 560.2,32.5 	"/>
	<polygon class="st0" points="278.3,70 292.5,70 300.6,57.8 302.7,57.8 302.7,70 315.9,70 315.9,33.4 302.6,33.4 302.6,46.4 
		300.9,46.4 292.3,33.4 276.9,33.4 290.5,52.5 	"/>
</g>
</svg>
