<?xml version="1.0" encoding="utf-8"?>
<!-- Generator: Adobe Illustrator 26.2.1, SVG Export Plug-In . SVG Version: 6.00 Build 0)  -->
<svg version="1.1" id="Слой_1" xmlns="http://www.w3.org/2000/svg" xmlns:xlink="http://www.w3.org/1999/xlink" x="0px" y="0px"
	 viewBox="0 0 456.3 72.3" style="enable-background:new 0 0 456.3 72.3;" xml:space="preserve">
<style type="text/css">
	.st0{fill:#FFFFFF;}
</style>
<polygon class="st0" points="69.4,51.7 69.4,53.8 78.4,53.8 78.4,40 "/>
<polygon class="st0" points="78.6,25.7 69.4,25.7 67.8,27.9 67.8,39.7 "/>
<rect x="79.7" y="25.7" class="st0" width="9" height="28.3"/>
<rect x="43.2" y="16.9" class="st0" width="9" height="37.1"/>
<rect x="55.5" y="32.7" class="st0" width="9" height="21.3"/>
<path class="st0" d="M67.2,24.7c1.7-2.4,1.4-5.5-0.2-7.6l-7.1,9.8C62.7,27.9,65.6,27,67.2,24.7z"/>
<polygon class="st0" points="34.5,64.2 34.5,7.9 28,7.9 28,70.8 34.5,70.8 97.2,70.8 97.2,64.2 "/>
<polygon class="st0" points="97.2,7.9 97.2,64.2 103.9,64.2 103.9,1.3 97.2,1.3 34.5,1.3 34.5,7.9 "/>
<rect x="372.8" y="13.4" class="st0" width="18.8" height="8.2"/>
<path class="st0" d="M154.6,13.4v40.5H143V23.4h-11.8v30.5h-11.6V13.4H154.6z"/>
<path class="st0" d="M177.8,24.7h10.7L178.6,53c-3,8.7-8.9,12.9-17.7,12.5v-9c2,0,3.6-0.2,4.6-0.6c1.1-0.4,1.9-1.2,2.5-2.4
	l-11.5-28.8h10.7l6,16.9L177.8,24.7z"/>
<path class="st0" d="M202,54.7c-4.4,0-8.1-1.5-11.1-4.4c-2.9-3-4.4-6.6-4.4-11c0-4.4,1.5-8,4.4-11c2.9-3,6.6-4.4,11.1-4.4
	c2.9,0,5.5,0.7,7.9,2s4.1,3.2,5.4,5.5l-8.3,4.8c-1-1.9-2.7-2.9-5.1-2.9c-1.6,0-3,0.6-4.1,1.7c-1.1,1.1-1.6,2.5-1.6,4.3
	s0.5,3.2,1.6,4.3c1.1,1.1,2.4,1.7,4.1,1.7c2.4,0,4.1-1,5.1-2.9l8.3,4.8c-1.3,2.3-3.1,4.2-5.4,5.5S204.9,54.7,202,54.7z"/>
<path class="st0" d="M214.5,24.7h10.8l8.3,12.4V24.7h9.7v29.2h-9.7V41.7l-7.5,12.2h-11.2l9.8-14.6L214.5,24.7z"/>
<path class="st0" d="M282.6,43.9v-9.2h19.2v9.2H282.6z"/>
<path class="st0" d="M320.4,54.7c-4.4,0-8.1-1.5-11.1-4.4c-2.9-3-4.4-6.6-4.4-11c0-4.4,1.5-8,4.4-11s6.6-4.4,11.1-4.4
	c2.9,0,5.5,0.7,7.9,2c2.3,1.3,4.1,3.2,5.4,5.5l-8.3,4.8c-1-1.9-2.7-2.9-5.1-2.9c-1.6,0-3,0.6-4.1,1.7c-1.1,1.1-1.6,2.5-1.6,4.3
	s0.5,3.2,1.6,4.3c1.1,1.1,2.4,1.7,4.1,1.7c2.4,0,4.1-1,5.1-2.9l8.3,4.8c-1.3,2.3-3.1,4.2-5.4,5.5C326,54,323.3,54.7,320.4,54.7z"/>
<path class="st0" d="M355.9,24.7h9.7v29.2h-9.7v-2.7c-2,2.3-4.7,3.5-8.3,3.5c-3.9,0-7.2-1.5-9.8-4.4c-2.6-3-3.9-6.6-3.9-11
	c0-4.4,1.3-8.1,3.9-11c2.6-3,5.9-4.4,9.8-4.4c3.5,0,6.3,1.2,8.3,3.5V24.7z M345.3,43.9c1.1,1.2,2.6,1.7,4.5,1.7
	c1.8,0,3.3-0.6,4.5-1.7c1.1-1.2,1.7-2.7,1.7-4.6s-0.6-3.4-1.7-4.6c-1.1-1.2-2.6-1.7-4.5-1.7c-1.9,0-3.4,0.6-4.5,1.7
	c-1.1,1.2-1.7,2.7-1.7,4.6S344.1,42.7,345.3,43.9z"/>
<polygon class="st0" points="388.9,24.7 396.4,24.7 396.4,53.8 386.9,53.8 386.9,40.2 375.6,53.8 368.2,53.8 368.2,24.7 377.6,24.7 
	377.6,38.3 "/>
<path class="st0" d="M425.1,24.7V34h-8.3v19.9h-9.7V34h-8.5v-9.3H425.1z"/>
<path class="st0" d="M280.3,39.3c0-4.3-1.5-8-4.5-10.9c-3-3-6.7-4.4-11-4.4c-4.4,0-8.1,1.5-11,4.4c-3,2.9-4.5,6.5-4.5,10.8h-3.5
	c0,4.3,1.5,7.9,4.5,10.8c3,3,6.7,4.5,11,4.5c4.3,0,8-1.5,11-4.5c3-3,4.5-6.5,4.5-10.8H280.3z M265.4,43.5c-1.1,1.1-2.5,1.7-4.2,1.7
	c-1.8,0-3.2-0.6-4.3-1.7c-1.1-1.1-1.6-2.5-1.6-4.2h3.5c0-1.8,0.6-3.2,1.6-4.3c1.1-1.1,2.5-1.7,4.3-1.7c1.7,0,3.1,0.6,4.2,1.7
	c1.1,1.1,1.6,2.5,1.7,4.2h-3.5C267.1,41,266.5,42.4,265.4,43.5z"/>
</svg>
