<?xml version="1.0" encoding="utf-8"?>
<!-- Generator: Adobe Illustrator 26.2.1, SVG Export Plug-In . SVG Version: 6.00 Build 0)  -->
<svg version="1.1" id="Слой_1" xmlns="http://www.w3.org/2000/svg" xmlns:xlink="http://www.w3.org/1999/xlink" x="0px" y="0px"
	 viewBox="0 0 897.7 92" style="enable-background:new 0 0 897.7 92;" xml:space="preserve">
<path d="M326.9,70.9V1h60v69.9h-19.2V17.7h-21.6v53.2H326.9z"/>
<path d="M407.3,91.9c-1.6,0-3.3-0.1-5.1-0.4c-1.8-0.3-3.9-0.8-6.5-1.4l2-16c1.5,0.5,2.9,0.9,4.2,1.2c1.3,0.3,2.4,0.4,3.5,0.4
	c1.7,0,3.1-0.4,4.2-1.1c1.1-0.7,1.8-1.8,2.1-3.3l0.3-1.6l-18.9-49.9h19.2l9.8,31.4l8-31.4h17.4L430,75.7c-1,3.2-2.6,6.1-4.8,8.5
	c-2.2,2.4-4.9,4.3-8,5.7C414.1,91.2,410.8,91.9,407.3,91.9z"/>
<path d="M476.7,71.9c-4.6,0-8.7-0.7-12.2-2.1s-6.5-3.4-8.9-5.9s-4.3-5.3-5.5-8.5s-1.9-6.5-1.9-10c0-4.6,1.1-9,3.3-13
	c2.2-4,5.4-7.3,9.7-9.7c4.2-2.5,9.4-3.7,15.5-3.7c6.2,0,11.5,1.3,15.8,3.9s7.5,6,9.6,10.1l-18.2,5.5c-0.9-1.2-1.9-2.2-3.1-2.9
	s-2.6-1-4.1-1c-1.7,0-3.3,0.4-4.6,1.3c-1.4,0.9-2.5,2.1-3.3,3.6c-0.8,1.6-1.2,3.5-1.2,5.8c0,2.2,0.4,4.1,1.2,5.7
	c0.8,1.6,1.9,2.8,3.3,3.7s2.9,1.3,4.6,1.3c1,0,2-0.1,2.9-0.4c0.9-0.3,1.7-0.7,2.4-1.3c0.8-0.6,1.4-1.3,1.9-2.1l18.2,5.5
	c-1.4,2.8-3.3,5.2-5.7,7.3c-2.4,2.1-5.2,3.8-8.5,5C484.6,71.3,480.9,71.9,476.7,71.9z"/>
<path d="M561.6,46.6c0-3.5,0.6-6.8,1.8-10c1.2-3.2,3-6,5.4-8.5s5.4-4.4,8.9-5.8s7.6-2.1,12.2-2.1c4.7,0,8.7,0.7,12.3,2.1
	c3.5,1.4,6.5,3.4,8.9,5.8c2.4,2.5,4.2,5.3,5.4,8.5c1.2,3.2,1.8,6.5,1.8,10 M599.2,46.6c0-2.2-0.4-4.1-1.2-5.7
	c-0.8-1.6-1.9-2.8-3.3-3.7s-3-1.3-4.7-1.3c-1.8,0-3.3,0.4-4.7,1.3c-1.4,0.9-2.5,2.1-3.3,3.7c-0.8,1.6-1.2,3.5-1.2,5.7"/>
<path d="M624.4,45.8c0,3.5-0.6,6.8-1.8,10c-1.2,3.2-3,6-5.4,8.5c-2.4,2.5-5.4,4.4-8.9,5.8s-7.6,2.1-12.3,2.1
	c-4.6,0-8.7-0.7-12.2-2.1s-6.5-3.4-8.9-5.8c-2.4-2.5-4.2-5.3-5.4-8.5c-1.2-3.2-1.8-6.5-1.8-10 M586.8,45.8c0,2.2,0.4,4.1,1.2,5.7
	c0.8,1.6,1.9,2.8,3.3,3.7s3,1.3,4.7,1.3c1.8,0,3.3-0.4,4.7-1.3c1.4-0.9,2.5-2.1,3.3-3.7c0.8-1.6,1.2-3.5,1.2-5.7"/>
<path d="M628.3,52.1V35.3h30.8V52L628.3,52.1L628.3,52.1z"/>
<path d="M685.8,18.6c3.2-1.3,6.4-1.9,9.6-2c3.2,0,6.2,0.5,9.1,1.6l-9.9,16.3c-0.9-0.2-1.9-0.3-2.8-0.3c-1,0.1-1.9,0.3-2.7,0.6
	c-0.8,0.4-1.6,0.9-2.4,1.6c-1.3,1.1-2.1,2.5-2.6,4c-0.5,1.6-0.5,3.2,0,4.9s1.4,3.4,2.9,5.1c1.5,1.7,3.1,2.8,4.8,3.5
	c1.7,0.6,3.3,0.8,4.9,0.5c1.6-0.3,3-1,4.3-2.1c1.1-1,1.9-2.2,2.4-3.5s0.6-2.7,0.4-4.2l17.2-8.1c1.2,4.5,1.1,9.1-0.3,13.9
	c-1.4,4.8-4.4,9.3-9.1,13.5c-4.5,4.1-9.2,6.6-14,7.6c-4.8,1-9.4,0.8-13.7-0.8c-4.3-1.5-8.1-4-11.2-7.5c-2.3-2.6-4.1-5.5-5.3-8.7
	c-1.2-3.2-1.7-6.5-1.6-10s1-6.9,2.7-10.3s4.2-6.6,7.6-9.7C679.4,21.9,682.6,19.9,685.8,18.6z"/>
<path d="M722.8,55.5c0-3.4,1-6.4,2.9-9.1c1.9-2.6,4.5-4.7,7.9-6.1c3.4-1.5,7.2-2.2,11.6-2.2c2,0,4,0.2,5.8,0.5s3.4,0.8,4.7,1.5v-1.6
	c0-2.3-0.7-4.1-2.1-5.2c-1.4-1.1-3.7-1.7-6.8-1.7c-2.9,0-5.6,0.5-8.1,1.4c-2.5,1-5.2,2.3-7.9,4.2l-5.4-11.6c3.5-2.2,7.1-3.9,11-5
	c3.8-1.1,8-1.6,12.4-1.6c8.2,0,14.6,1.8,19.1,5.4s6.7,9,6.7,16.1v9.8c0,1.7,0.3,2.9,0.8,3.6c0.5,0.7,1.4,1.1,2.8,1.2v15.8
	c-1.5,0.3-2.9,0.6-4.3,0.7c-1.3,0.2-2.5,0.2-3.6,0.2c-3.3,0-5.9-0.6-7.6-1.8c-1.7-1.2-2.9-3-3.4-5.4l-0.4-1.9c-2.3,3-5,5.2-8,6.7
	s-6.2,2.3-9.7,2.3c-3.4,0-6.5-0.7-9.3-2.1s-4.9-3.4-6.5-5.9C723.5,61.4,722.8,58.6,722.8,55.5z M753.1,56.6c0.7-0.5,1.3-1,1.8-1.6
	s0.7-1.2,0.7-1.8v-3.6c-1.1-0.4-2.2-0.7-3.6-0.9c-1.3-0.2-2.5-0.4-3.6-0.4c-2.2,0-4.1,0.5-5.7,1.6c-1.5,1.1-2.3,2.4-2.3,4
	c0,0.9,0.3,1.7,0.8,2.4s1.2,1.3,2.2,1.7c0.9,0.4,2,0.6,3.2,0.6c1.1,0,2.3-0.2,3.5-0.5C751.2,57.6,752.2,57.2,753.1,56.6z"/>
<polygon points="784.8,70.9 784.8,19.8 803.5,19.8 803.5,46.3 819.9,19.8 836.9,19.8 836.9,70.9 818.2,70.9 818.2,45.2 801.9,70.9 
	"/>
<path d="M824.3,4.5c3.4,3,5.2,7,5.2,12h-10.6c-0.3-2.3-1-4.1-2.3-5.5c-1.3-1.3-3.2-2-5.7-2c-2.6,0-4.6,0.7-6,2.1
	c-1.3,1.4-2,3.2-2,5.4h-10.6c0-5,1.7-9,5.2-12c3.4-3,7.9-4.5,13.4-4.5S820.9,1.5,824.3,4.5z"/>
<path d="M857.9,70.9V36h-14.8V19.8h48.3V36h-14.8v34.9H857.9z"/>
<g>
	<path d="M556,21v50.3h-18.3V54.6h-2.9l-11.1,16.7h-19.6L521,47.4L502.4,21h20.9l11.9,17.8h2.4V21H556z"/>
</g>
<polygon points="55.7,67.1 55.7,71.2 73,71.2 73,44.5 "/>
<polygon points="73.1,17 55.8,17 52.5,21.3 52.5,44 "/>
<rect x="75.4" y="17" width="17.3" height="54.2"/>
<rect x="5.2" y="0.1" width="17.3" height="71.3"/>
<rect x="28.9" y="30.3" width="17.3" height="41"/>
<path d="M51.5,15c3.3-4.6,2.9-10.6-0.4-14.7l-13.6,19C42.5,21.2,48.3,19.5,51.5,15z"/>
<g>
	<path d="M125.4,3h16.6v26h0.6c1.1-1.5,2.7-2.7,4.9-3.8c2.1-1,4.8-1.6,7.9-1.6c3.3-0.1,6.5,0.6,9.5,2.1c3,1.5,5.6,4,7.5,7.5
		c2,3.5,3,8.2,3.1,14.2c-0.1,6-1.1,10.7-3,14.3c-2,3.5-4.4,6-7.4,7.5c-3.1,1.5-6.3,2.3-9.7,2.3c-2.7-0.1-5.1-0.4-7-1.1
		c-1.9-0.7-3.5-1.6-4.8-2.6c-1.2-1-2.2-1.9-2.9-2.7H140l-2.2,5.4h-12.4V3z M141.9,56.5c0.7,1,1.7,1.8,3,2.4c1.2,0.7,2.6,1,4.2,1.1
		c1.7,0,3.3-0.4,4.7-1.1c1.5-0.8,2.6-2.1,3.4-3.9c0.9-1.8,1.3-4.4,1.3-7.6c0-3.2-0.4-5.7-1.3-7.5c-0.9-1.8-2-3.1-3.5-3.8
		c-1.4-0.7-2.9-1.1-4.6-1c-1.4,0-2.7,0.3-4,1c-1.3,0.6-2.4,1.5-3.2,2.6V56.5z"/>
	<path d="M183.9,34.9c1.8-3.5,4.6-6.3,8.4-8.3c3.8-2,8.6-3,14.5-3c5.7,0,10.5,1,14.3,3c3.8,2,6.6,4.8,8.5,8.3
		c1.8,3.6,2.7,7.8,2.7,12.6s-0.9,9-2.7,12.5c-1.9,3.5-4.7,6.3-8.5,8.3c-3.8,2-8.5,3-14.3,3c-5.9-0.1-10.7-1.1-14.5-3
		c-3.8-2-6.6-4.8-8.4-8.3c-1.8-3.5-2.7-7.7-2.7-12.5S182,38.5,183.9,34.9z M213,57.2c1.6-1.9,2.4-5.1,2.5-9.7
		c-0.1-4.6-0.9-7.9-2.5-9.8c-1.6-1.8-3.7-2.7-6.2-2.7c-2.7-0.1-4.9,0.8-6.5,2.7c-1.6,1.9-2.4,5.2-2.5,9.8c0.1,4.6,0.9,7.8,2.5,9.7
		c1.6,1.9,3.8,2.8,6.5,2.7C209.3,60,211.4,59.1,213,57.2z"/>
	<path d="M236.5,68.9l16.2-21.7l-15.8-21.1v-1.6h17.5l4.9,7.4c0.8,1.1,1.5,2.2,2.1,3.4c0.6,1.2,1.2,2.4,1.8,3.8h0.8
		c0.7-1.4,1.3-2.6,1.9-3.7c0.6-1,1.3-2.1,2.2-3.5l4.9-7.5h17.4v1.6l-15.9,20.8l16.3,22.1v1.5h-17.4l-5.5-8.5
		c-0.9-1.3-1.6-2.4-2.1-3.4c-0.5-1-1.1-2.1-1.7-3.5h-0.8c-0.7,1.4-1.3,2.6-1.8,3.7c-0.5,1-1.2,2.1-2,3.3l-5.4,8.4h-17.4V68.9z"/>
	<path d="M297.8,53.9H316v16.5h-18.2V53.9z"/>
</g>
</svg>
