<?xml version="1.0" encoding="utf-8"?>
<!-- Generator: Adobe Illustrator 26.2.1, SVG Export Plug-In . SVG Version: 6.00 Build 0)  -->
<svg version="1.1" id="Слой_1" xmlns="http://www.w3.org/2000/svg" xmlns:xlink="http://www.w3.org/1999/xlink" x="0px" y="0px"
	 viewBox="0 0 693.3 92" style="enable-background:new 0 0 693.3 92;" xml:space="preserve">
<style type="text/css">
	.st0{fill:#FFFFFF;}
</style>
<path class="st0" d="M119.9,70.9V1h60v69.9h-19.2V17.7h-21.6v53.2H119.9z"/>
<path class="st0" d="M200.3,91.9c-1.6,0-3.3-0.1-5.1-0.4c-1.8-0.3-3.9-0.8-6.5-1.4l2-16c1.5,0.5,2.9,0.9,4.2,1.2
	c1.3,0.3,2.4,0.4,3.5,0.4c1.7,0,3.1-0.4,4.2-1.1c1.1-0.7,1.8-1.8,2.1-3.3l0.3-1.6l-18.9-49.9h19.2l9.8,31.4l8-31.4h17.4L223,75.7
	c-1,3.2-2.6,6.1-4.8,8.5s-4.9,4.3-8,5.7C207.1,91.2,203.8,91.9,200.3,91.9z"/>
<path class="st0" d="M269.7,71.9c-4.6,0-8.7-0.7-12.2-2.1s-6.5-3.4-8.9-5.9s-4.3-5.3-5.5-8.5s-1.9-6.5-1.9-10c0-4.6,1.1-9,3.3-13
	c2.2-4,5.4-7.3,9.7-9.7c4.2-2.5,9.4-3.7,15.5-3.7c6.2,0,11.5,1.3,15.8,3.9c4.3,2.6,7.5,6,9.6,10.1l-18.2,5.5
	c-0.9-1.2-1.9-2.2-3.1-2.9c-1.2-0.7-2.6-1-4.1-1c-1.7,0-3.3,0.4-4.6,1.3c-1.4,0.9-2.5,2.1-3.3,3.6c-0.8,1.6-1.2,3.5-1.2,5.8
	c0,2.2,0.4,4.1,1.2,5.7c0.8,1.6,1.9,2.8,3.3,3.7s2.9,1.3,4.6,1.3c1,0,2-0.1,2.9-0.4c0.9-0.3,1.7-0.7,2.4-1.3
	c0.8-0.6,1.4-1.3,1.9-2.1l18.2,5.5c-1.4,2.8-3.3,5.2-5.7,7.3c-2.4,2.1-5.2,3.8-8.5,5C277.6,71.3,273.9,71.9,269.7,71.9z"/>
<path class="st0" d="M354.6,46.6c0-3.5,0.6-6.8,1.8-10c1.2-3.2,3-6,5.4-8.5c2.4-2.5,5.4-4.4,8.9-5.8s7.6-2.1,12.2-2.1
	c4.7,0,8.7,0.7,12.3,2.1c3.5,1.4,6.5,3.4,8.9,5.8c2.4,2.5,4.2,5.3,5.4,8.5c1.2,3.2,1.8,6.5,1.8,10 M392.2,46.6
	c0-2.2-0.4-4.1-1.2-5.7c-0.8-1.6-1.9-2.8-3.3-3.7s-3-1.3-4.7-1.3c-1.8,0-3.3,0.4-4.7,1.3c-1.4,0.9-2.5,2.1-3.3,3.7
	c-0.8,1.6-1.2,3.5-1.2,5.7"/>
<path class="st0" d="M417.4,45.8c0,3.5-0.6,6.8-1.8,10c-1.2,3.2-3,6-5.4,8.5c-2.4,2.5-5.4,4.4-8.9,5.8s-7.6,2.1-12.3,2.1
	c-4.6,0-8.7-0.7-12.2-2.1s-6.5-3.4-8.9-5.8c-2.4-2.5-4.2-5.3-5.4-8.5s-1.8-6.5-1.8-10 M379.8,45.8c0,2.2,0.4,4.1,1.2,5.7
	c0.8,1.6,1.9,2.8,3.3,3.7s3,1.3,4.7,1.3c1.8,0,3.3-0.4,4.7-1.3c1.4-0.9,2.5-2.1,3.3-3.7c0.8-1.6,1.2-3.5,1.2-5.7"/>
<path class="st0" d="M421.3,52.1V35.3h30.8V52L421.3,52.1L421.3,52.1z"/>
<path class="st0" d="M478.8,18.6c3.2-1.3,6.4-1.9,9.6-2c3.2,0,6.2,0.5,9.1,1.6l-9.9,16.3c-0.9-0.2-1.9-0.3-2.8-0.3
	c-1,0.1-1.9,0.3-2.7,0.6c-0.8,0.4-1.6,0.9-2.4,1.6c-1.3,1.1-2.1,2.5-2.6,4c-0.5,1.6-0.5,3.2,0,4.9s1.4,3.4,2.9,5.1
	c1.5,1.7,3.1,2.8,4.8,3.5c1.7,0.6,3.3,0.8,4.9,0.5s3-1,4.3-2.1c1.1-1,1.9-2.2,2.4-3.5s0.6-2.7,0.4-4.2l17.2-8.1
	c1.2,4.5,1.1,9.1-0.3,13.9c-1.4,4.8-4.4,9.3-9.1,13.5c-4.5,4.1-9.2,6.6-14,7.6s-9.4,0.8-13.7-0.8c-4.3-1.5-8.1-4-11.2-7.5
	c-2.3-2.6-4.1-5.5-5.3-8.7c-1.2-3.2-1.7-6.5-1.6-10s1-6.9,2.7-10.3s4.2-6.6,7.6-9.7C472.4,21.9,475.6,19.9,478.8,18.6z"/>
<path class="st0" d="M515.8,55.5c0-3.4,1-6.4,2.9-9.1c1.9-2.6,4.5-4.7,7.9-6.1c3.4-1.5,7.2-2.2,11.6-2.2c2,0,4,0.2,5.8,0.5
	c1.8,0.3,3.4,0.8,4.7,1.5v-1.6c0-2.3-0.7-4.1-2.1-5.2c-1.4-1.1-3.7-1.7-6.8-1.7c-2.9,0-5.6,0.5-8.1,1.4c-2.5,1-5.2,2.3-7.9,4.2
	l-5.4-11.6c3.5-2.2,7.1-3.9,11-5c3.8-1.1,8-1.6,12.4-1.6c8.2,0,14.6,1.8,19.1,5.4s6.7,9,6.7,16.1v9.8c0,1.7,0.3,2.9,0.8,3.6
	c0.5,0.7,1.4,1.1,2.8,1.2v15.8c-1.5,0.3-2.9,0.6-4.3,0.7c-1.3,0.2-2.5,0.2-3.6,0.2c-3.3,0-5.9-0.6-7.6-1.8c-1.7-1.2-2.9-3-3.4-5.4
	l-0.4-1.9c-2.3,3-5,5.2-8,6.7s-6.2,2.3-9.7,2.3c-3.4,0-6.5-0.7-9.3-2.1c-2.8-1.4-4.9-3.4-6.5-5.9C516.5,61.4,515.8,58.6,515.8,55.5z
	 M546.1,56.6c0.7-0.5,1.3-1,1.8-1.6s0.7-1.2,0.7-1.8v-3.6c-1.1-0.4-2.2-0.7-3.6-0.9c-1.3-0.2-2.5-0.4-3.6-0.4
	c-2.2,0-4.1,0.5-5.7,1.6c-1.5,1.1-2.3,2.4-2.3,4c0,0.9,0.3,1.7,0.8,2.4s1.2,1.3,2.2,1.7c0.9,0.4,2,0.6,3.2,0.6
	c1.1,0,2.3-0.2,3.5-0.5C544.2,57.6,545.2,57.2,546.1,56.6z"/>
<polygon class="st0" points="577.8,70.9 577.8,19.8 596.5,19.8 596.5,46.3 612.9,19.8 629.9,19.8 629.9,70.9 611.2,70.9 611.2,45.2 
	594.9,70.9 "/>
<path class="st0" d="M617.3,4.5c3.4,3,5.2,7,5.2,12h-10.6c-0.3-2.3-1-4.1-2.3-5.5c-1.3-1.3-3.2-2-5.7-2c-2.6,0-4.6,0.7-6,2.1
	c-1.3,1.4-2,3.2-2,5.4h-10.6c0-5,1.7-9,5.2-12c3.4-3,7.9-4.5,13.4-4.5S613.9,1.5,617.3,4.5z"/>
<path class="st0" d="M650.9,70.9V36h-14.8V19.8h48.3V36h-14.8v34.9H650.9z"/>
<g>
	<path class="st0" d="M349,21v50.3h-18.3V54.6h-2.9l-11.1,16.7h-19.6L314,47.4L295.4,21h20.9l11.9,17.8h2.4V21H349z"/>
</g>
<polygon class="st0" points="55.7,67.1 55.7,71.2 73,71.2 73,44.5 "/>
<polygon class="st0" points="73.1,17 55.8,17 52.5,21.3 52.5,44 "/>
<rect x="75.4" y="17" class="st0" width="17.3" height="54.2"/>
<rect x="5.2" y="0.1" class="st0" width="17.3" height="71.3"/>
<rect x="28.9" y="30.3" class="st0" width="17.3" height="41"/>
<path class="st0" d="M51.5,15c3.3-4.6,2.9-10.6-0.4-14.7L37.5,19.3C42.5,21.2,48.3,19.5,51.5,15z"/>
</svg>
