<?xml version="1.0" encoding="utf-8"?>
<!-- Generator: Adobe Illustrator 26.2.1, SVG Export Plug-In . SVG Version: 6.00 Build 0)  -->
<svg version="1.1" id="Слой_1" xmlns="http://www.w3.org/2000/svg" xmlns:xlink="http://www.w3.org/1999/xlink" x="0px" y="0px"
	 viewBox="0 0 212.7 95.1" style="enable-background:new 0 0 212.7 95.1;" xml:space="preserve">
<style type="text/css">
	.st0{fill:url(#SVGID_1_);}
	.st1{fill:#FFFFFF;}
</style>
<linearGradient id="SVGID_1_" gradientUnits="userSpaceOnUse" x1="5.3704" y1="54.6108" x2="207.5825" y2="54.6108">
	<stop  offset="0" style="stop-color:#FF900F"/>
	<stop  offset="1" style="stop-color:#FFAF0A"/>
</linearGradient>
<path class="st0" d="M191.8,95.1H21.1c-8.7,0-15.8-7.1-15.8-15.8V29.9c0-8.7,7.1-15.8,15.8-15.8h170.7c8.7,0,15.8,7.1,15.8,15.8
	v49.4C207.6,88,200.5,95.1,191.8,95.1z"/>
<g id="text">
	<path class="st1" d="M182.5,47.6L175.8,58l-0.7-10.4h-5.6h-1.7h-2.3c0.9-3,1.6-5.5,1.6-5.5l0.4-1.2h-7.4l-0.3,1.2l-1.6,5.5h-6.3
		c-1,0-1.6,0-1.6,0c-6.5,0-10.1,1.9-11.6,5.3c-0.9-3.2-3.7-5.3-8.2-5.3c-3.8,0-7.2,1.4-9.7,3.7c-1.3-2.3-3.9-3.7-7.5-3.7
		c-4.1,0-7.7,1.7-10.3,4.2c-1.2-2.5-3.9-4.2-7.7-4.2c-1.3,0-2.6,0.2-3.8,0.5l0.6-2c0,0,0-0.1,0-0.1l1.5-5.1h-7.4l-4.7,16.2
		c-0.1,0.3-0.2,0.6-0.3,1c-0.2,0.8-0.3,1.5-0.4,2.2c-0.6,4.5,1.4,7.9,6.8,8.1c0.5,0.1,1,0.1,1.6,0.1c3.9,0,7.5-1.7,10.2-4.2
		c1.1,2.5,3.8,4.2,7.8,4.2c3.6,0,7-1.4,9.6-3.7c1.2,2.3,3.8,3.7,7.6,3.7c8.2,0,14.4,0,18.4,0c5.7,0,8.9-1.1,10.6-3.6
		c0,2.3,1.3,3.6,4.7,3.6c2.7,0,6.4-0.6,11.4-1.8L162.4,77h7.4l20.1-29.4H182.5z M96,58c-0.7,2.4-2.9,4.3-4.9,4.3S88,60.4,88.7,58
		c0.7-2.4,2.9-4.3,4.9-4.3S96.7,55.6,96,58z M114,58c-0.7,2.4-2.9,4.3-4.9,4.3s-3.1-1.9-2.4-4.3c0.7-2.4,2.9-4.3,4.9-4.3
		S114.7,55.6,114,58z M123.9,58c0.7-2.4,2.9-4.3,4.9-4.3c2,0,3.1,1.9,2.4,4.3c-0.7,2.3-2.8,4.2-4.8,4.3c-0.1,0-0.1,0-0.2,0
		C124.3,62.2,123.2,60.4,123.9,58z M147.6,61.5c-0.4,0.9-3.3,0.7-4,0.8c0,0-1.9,0-7.1,0c1-1.3,1.7-2.8,2.1-4.3
		c0.1-0.1,0.1-0.3,0.1-0.5c0.8,1.1,2.4,2.1,5.6,2.7C147.3,60.9,147.8,60.7,147.6,61.5z M154.8,59.2c-0.6-2.4-3.3-3.4-7.1-3.9
		c-1.6-0.2-2.5-0.3-2.3-1c0.1-0.5,1-0.6,2.7-0.6c1.1,0,2.3,0,3.8,0h4.5L154.8,59.2z M162.2,59.2c0-0.1,0.7-2.5,1.6-5.5h4.7l0.8,7.8
		C161.5,63.2,161.3,62.7,162.2,59.2z"/>
</g>
<g id="sign">
	<g id="b_1_">
		<path class="st1" d="M24.5,56.9L34,24.2h14.5l-2.9,10.1c0,0.1-0.1,0.1-0.1,0.2l-7.7,26.8H45c-3,7.5-5.4,13.4-7,17.6
			c-13.3-0.1-17-9.6-13.7-20.9 M38,79l17.5-25.2h-7.4l6.5-16.1c11.1,1.2,16.3,9.9,13.2,20.4C64.4,69.4,51.2,79,38.2,79
			C38.1,79,38.1,79,38,79z"/>
	</g>
</g>
</svg>
