<?xml version="1.0" encoding="utf-8"?>
<!-- Generator: Adobe Illustrator 26.2.1, SVG Export Plug-In . SVG Version: 6.00 Build 0)  -->
<svg version="1.1" id="Слой_1" xmlns="http://www.w3.org/2000/svg" xmlns:xlink="http://www.w3.org/1999/xlink" x="0px" y="0px"
	 viewBox="0 0 456.3 72.3" style="enable-background:new 0 0 456.3 72.3;" xml:space="preserve">
<polygon points="47.4,51.7 47.4,53.8 56.4,53.8 56.4,40 "/>
<polygon points="56.6,25.7 47.4,25.7 45.8,27.9 45.8,39.7 "/>
<rect x="57.7" y="25.7" width="9" height="28.3"/>
<rect x="21.2" y="16.9" width="9" height="37.1"/>
<rect x="33.5" y="32.7" width="9" height="21.3"/>
<path d="M45.2,24.7c1.7-2.4,1.4-5.5-0.2-7.6l-7.1,9.8C40.7,27.9,43.6,27,45.2,24.7z"/>
<polygon points="12.5,64.2 12.5,7.9 6,7.9 6,70.8 12.5,70.8 75.2,70.8 75.2,64.2 "/>
<polygon points="75.2,7.9 75.2,64.2 81.9,64.2 81.9,1.3 75.2,1.3 12.5,1.3 12.5,7.9 "/>
<g>
	<polygon points="130.3,19.6 142.3,19.6 142.3,49.2 153,49.2 153,10.4 119.7,10.4 119.7,49.2 130.3,49.2 	"/>
	<path d="M176.9,51.7l9.8-31.1H177L172.5,38L167,20.7h-10.7l10.5,27.7l-0.1,0.9c-0.1,0.8-0.5,1.4-1.1,1.8c-0.5,0.3-1.4,0.5-2.4,0.5
		c-0.5,0-1.2,0-1.9-0.2c-0.7-0.1-1.4-0.3-2.4-0.7l-0.1,6.9h-47.5V12h-7.6v45.9v7.5h7.5H427v-7.5H174.6
		C175.6,55.7,176.5,52.9,176.9,51.7z"/>
	<path d="M191.1,45.3c1.4,1.4,3,2.4,5,3.3c1.9,0.8,4.3,1.1,6.7,1.1s4.3-0.3,6.2-1c1.8-0.7,3.4-1.6,4.7-2.8c1.4-1.1,2.4-2.4,3.1-4
		l-10.1-3c-0.2,0.5-0.5,0.8-1,1.1c-0.3,0.3-0.8,0.5-1.4,0.7c-0.5,0.1-1,0.2-1.6,0.2c-0.9,0-1.8-0.2-2.6-0.7s-1.4-1.1-1.8-2
		c-0.5-0.9-0.7-1.9-0.7-3.1s0.2-2.4,0.7-3.3c0.5-0.8,1-1.4,1.8-2c0.7-0.5,1.6-0.7,2.6-0.7c0.8,0,1.6,0.1,2.2,0.5
		c0.7,0.3,1.2,0.9,1.7,1.6l10.1-3c-1.1-2.2-2.9-4.1-5.3-5.6c-2.4-1.5-5.3-2.1-8.8-2.1c-3.4,0-6.2,0.7-8.6,2
		c-2.4,1.4-4.1,3.1-5.4,5.4c-1.2,2.2-1.8,4.7-1.8,7.2c0,1.9,0.3,3.8,1,5.5C188.6,42.4,189.7,43.9,191.1,45.3z"/>
	<path d="M252.6,34.6h7.9c0.1-0.5,0.2-1.1,0.5-1.6c0.5-0.9,1-1.6,1.8-2c0.8-0.5,1.6-0.7,2.6-0.7c0.9,0,1.8,0.2,2.6,0.7
		c0.8,0.5,1.4,1.1,1.8,2c0.5,0.9,0.7,1.9,0.7,3.1h2.6c0.1-0.5,0.1-1,0.1-1.6h7.8c-0.1-1.4-0.5-2.7-0.9-4c-0.7-1.8-1.7-3.4-3-4.7
		c-1.4-1.4-3-2.4-5-3.3c-2-0.8-4.3-1.1-6.9-1.1s-4.8,0.3-6.7,1.1c-1.9,0.8-3.6,1.8-5,3.3c-1.4,1.4-2.4,2.9-3,4.7
		c-0.7,1.8-1,3.6-1,5.5h2.9C252.7,35.7,252.6,35.2,252.6,34.6z"/>
	<path d="M273.4,36.2c-0.1,0.5-0.2,1.1-0.5,1.6c-0.5,0.9-1,1.6-1.8,2c-0.8,0.5-1.6,0.7-2.6,0.7c-0.9,0-1.8-0.2-2.6-0.7
		s-1.4-1.1-1.8-2c-0.5-0.9-0.7-1.9-0.7-3.1h-2.6c-0.1,0.5-0.1,1-0.1,1.6h-7.8c0.1,1.4,0.5,2.7,0.9,4c0.7,1.8,1.7,3.4,3,4.7
		c1.4,1.4,3,2.4,5,3.3c1.9,0.8,4.3,1.1,6.7,1.1c2.6,0,5-0.3,6.9-1.1s3.6-1.8,5-3.3c1.4-1.4,2.4-2.9,3-4.7c0.7-1.8,1-3.6,1-5.5h-2.9
		c0,0.5,0.1,1,0.1,1.6h-8.2V36.2z"/>
	<polygon points="303.9,29.3 286.8,29.3 286.8,38.8 303.9,38.6 	"/>
	<path d="M311.5,44.8c1.7,1.9,3.8,3.4,6.2,4.1c2.4,0.9,5,1,7.6,0.5c2.7-0.5,5.3-1.9,7.8-4.3c2.6-2.4,4.3-4.8,5-7.5
		c0.8-2.7,0.8-5.3,0.1-7.8l-9.5,4.5c0.1,0.8,0,1.6-0.2,2.4c-0.2,0.7-0.7,1.4-1.4,1.9s-1.4,1-2.4,1.1c-0.9,0.1-1.8,0-2.7-0.2
		c-0.9-0.3-1.8-1-2.7-1.9c-0.8-0.9-1.4-1.9-1.6-2.8s-0.2-1.8,0-2.7c0.2-0.8,0.7-1.6,1.4-2.2c0.5-0.3,0.9-0.7,1.4-0.9
		c0.5-0.1,0.9-0.2,1.4-0.3c0.5,0,1,0,1.6,0.1l5.5-9.1c-1.6-0.5-3.3-0.9-5-0.9c-1.8,0-3.6,0.3-5.3,1.1c-1.7,0.8-3.6,1.8-5.4,3.3
		c-1.9,1.7-3.3,3.5-4.3,5.4c-0.9,1.9-1.4,3.8-1.4,5.7s0.2,3.8,0.9,5.5C309.3,41.8,310.1,43.4,311.5,44.8z"/>
	<path d="M354.9,31.2c-1-0.1-2.1-0.2-3.3-0.2c-2.4,0-4.6,0.3-6.4,1.2c-1.9,0.8-3.4,1.9-4.3,3.4c-1,1.4-1.6,3.1-1.6,5
		c0,1.7,0.3,3.3,1.4,4.6c0.9,1.4,2,2.4,3.6,3.3c1.6,0.8,3.3,1.1,5.2,1.1s3.7-0.5,5.4-1.2c1.7-0.8,3.1-2,4.5-3.7l0.1,0.9
		c0.2,1.4,0.9,2.4,1.9,3c0.9,0.7,2.4,1,4.3,1c0.5,0,1.2,0,2-0.1c0.8,0,1.6-0.2,2.4-0.3v-8.8c-0.8,0-1.2-0.2-1.6-0.7
		c-0.2-0.3-0.5-1-0.5-2v-5.4c0-4-1.2-6.9-3.7-9c-2.4-2-6-3-10.7-3c-2.4,0-4.8,0.2-6.9,0.9c-2.1,0.5-4.1,1.6-6,2.8l3,6.4
		c1.4-1,3-1.8,4.3-2.4c1.4-0.5,2.9-0.8,4.5-0.8c1.7,0,3,0.3,3.8,0.9c0.8,0.5,1.1,1.6,1.1,2.9v0.9C356.8,31.7,355.9,31.4,354.9,31.2z
		 M357.4,39.3c0,0.3-0.1,0.7-0.3,1c-0.2,0.3-0.5,0.5-1,0.9c-0.5,0.3-1,0.5-1.7,0.8c-0.7,0.1-1.4,0.2-1.9,0.2c-0.7,0-1.2-0.1-1.8-0.3
		c-0.5-0.2-0.9-0.5-1.2-0.9c-0.2-0.3-0.5-0.8-0.5-1.4c0-0.9,0.5-1.6,1.2-2.2c0.9-0.5,1.9-0.9,3.1-0.9c0.5,0,1.2,0.1,2,0.2
		c0.8,0.1,1.4,0.2,2,0.5L357.4,39.3L357.4,39.3z"/>
	<polygon points="392.2,34.8 392.2,49.2 402.5,49.2 402.5,20.8 393.1,20.8 384,35.5 384,20.8 373.6,20.8 373.6,49.2 383.1,49.2 	"/>
	<path d="M384.8,16c0.8-0.8,1.9-1.1,3.4-1.1c1.4,0,2.4,0.3,3.1,1.1c0.7,0.8,1.1,1.8,1.2,3h5.9c0-2.8-1-5-2.9-6.6
		c-1.9-1.7-4.3-2.4-7.4-2.4c-3,0-5.5,0.8-7.4,2.4s-2.9,4-2.9,6.6h5.9C383.7,17.8,384.2,16.8,384.8,16z"/>
	<polygon points="406,20.8 406,29.8 414.2,29.8 414.2,49.2 424.6,49.2 424.6,29.8 432.8,29.8 432.8,20.8 	"/>
	<polygon points="218,49.4 228.8,49.4 235,40.1 236.6,40.1 236.6,49.4 246.7,49.4 246.7,21.5 236.5,21.5 236.5,31.4 235.2,31.4 
		228.7,21.5 216.9,21.5 227.3,36 	"/>
</g>
</svg>
