<?xml version="1.0" encoding="utf-8"?>
<!-- Generator: Adobe Illustrator 26.2.1, SVG Export Plug-In . SVG Version: 6.00 Build 0)  -->
<svg version="1.1" id="Слой_1" xmlns="http://www.w3.org/2000/svg" xmlns:xlink="http://www.w3.org/1999/xlink" x="0px" y="0px"
	 viewBox="0 0 1657 282" style="enable-background:new 0 0 1657 282;" xml:space="preserve">
<style type="text/css">
	.st0{fill:#F2F2F2;}
</style>
<rect x="165" class="st0" width="43" height="99"/>
<path class="st0" d="M228,0v112H66V0H51.7C23.2,0,0,23.2,0,51.7V282h285V49L228,0z M228,255H65v-62.8c0-28.3,22.9-51.2,51.2-51.2
	H228V255z"/>
<path class="st0" d="M119.7,152C95.6,152,76,171.6,76,195.7V244h142v-92H119.7z M208,190H89v-8h119V190z M208,172H103v-8h105V172z"
	/>
<g>
	<path class="st0" d="M450.8,257.9c-33.5,0-61.3-11-83.3-33.1c-22.1-22.5-33.1-49.9-33.1-82.4c0-32.6,11-60,33.1-82.1
		C389.3,38.2,417.1,27,450.8,27c10.2,0,20,1.2,29.4,3.7c9.4,2.4,18.3,6,26.6,10.7c8.3,4.7,15.7,10.2,22.4,16.7
		c6.7,6.5,12.5,13.8,17.3,22.1l-31.8,18.4c-5.9-11-14.6-19.8-25.9-26.2c-11.3-6.5-24-9.7-38-9.7c-23.5,0-42.8,7.5-57.9,22.6
		c-14.6,15.1-21.9,34.1-21.9,57.2c0,23.3,7.3,42.4,21.9,57.2c15.1,15.1,34.3,22.6,57.9,22.6c14,0,26.7-3.2,38.2-9.7
		c11.4-6.5,20-15.2,25.8-26.2l31.8,18.1c-9.1,16.1-22.4,29.2-39.8,39.1C489.8,253.2,471.2,257.9,450.8,257.9z"/>
	<path class="st0" d="M649.3,257.9c-23.5,0-43.4-8.1-59.5-24.2c-16.3-16.3-24.5-36.1-24.5-59.5c0-23.3,8.2-43.1,24.5-59.5
		c16.1-16.1,35.9-24.2,59.5-24.2c23.5,0,43.4,8.1,59.5,24.2c16.3,16.3,24.5,36.2,24.5,59.5c0,23.3-8.2,43.1-24.5,59.5
		C692.6,249.9,672.8,257.9,649.3,257.9z M614,210.4c9.5,9.6,21.3,14.4,35.3,14.4c14,0,25.8-4.8,35.3-14.4
		c9.5-9.6,14.3-21.7,14.3-36.2s-4.8-26.6-14.3-36.2s-21.3-14.4-35.3-14.4c-14,0-25.8,4.8-35.3,14.4c-9.5,9.6-14.3,21.7-14.3,36.2
		S604.4,200.8,614,210.4z"/>
	<path class="st0" d="M848,90.6c18.4,0,33.2,5.8,44.4,17.3c11.1,11.6,16.7,27.6,16.7,48.2v97.6h-34.3v-94.1
		c0-12.1-3.2-21.3-9.5-27.5c-6.4-6.3-15.1-9.4-26.1-9.4c-12.1,0-21.8,3.8-29.3,11.3c-7.4,7.5-11.1,19-11.1,34.5v85.2h-34.3v-159
		h34.3v20.4C809.3,98.8,825.8,90.6,848,90.6z"/>
	<path class="st0" d="M1034.7,127.8h-39.4v76.3c0,5.1,0.8,9,2.5,11.8c1.7,2.8,4.2,4.7,7.5,5.7c3.3,1.1,7.4,1.6,12.2,1.7
		c4.9,0.1,10.6,0,17.2-0.5v30.9c-26.3,3.2-45.2,0.9-56.6-6.8c-11.4-7.7-17.2-22-17.2-42.8v-76.3h-29.3V94.8H961V60.4l34.3-10.2v44.5
		h39.4V127.8z"/>
	<path class="st0" d="M1086.6,188.9c2.5,12.1,8.3,21.4,17.3,27.8c9,6.5,20.2,9.7,33.6,9.7c18,0,31.7-6.6,41-19.7l28.3,16.5
		c-15.5,23.1-38.7,34.7-69.7,34.7c-25.7,0-46.5-7.8-62.7-23.5c-15.9-15.9-23.9-35.9-23.9-60.1c0-23.5,7.8-43.4,23.5-59.5
		c15.5-16.1,35.6-24.2,60.4-24.2c23.1,0,42.2,8.2,57.2,24.5c15.1,16.3,22.6,36.2,22.6,59.5c0,1.7-0.1,3.8-0.3,6.2
		c-0.2,2.4-0.5,5.1-1,8.1H1086.6z M1179.8,160.9c-2.3-12.9-7.6-22.7-15.9-29.3c-8.3-6.6-18.1-9.9-29.6-9.9
		c-12.7,0-23.3,3.5-31.8,10.5c-8.5,7-13.9,16.5-16.2,28.6H1179.8z"/>
	<path class="st0" d="M1328.3,90.6c18.4,0,33.2,5.8,44.4,17.3c11.1,11.6,16.7,27.6,16.7,48.2v97.6H1355v-94.1
		c0-12.1-3.2-21.3-9.5-27.5c-6.4-6.3-15.1-9.4-26.1-9.4c-12.1,0-21.8,3.8-29.3,11.3c-7.4,7.5-11.1,19-11.1,34.5v85.2h-34.3v-159
		h34.3v20.4C1289.6,98.8,1306,90.6,1328.3,90.6z"/>
	<path class="st0" d="M1515,127.8h-39.4v76.3c0,5.1,0.8,9,2.5,11.8c1.7,2.8,4.2,4.7,7.5,5.7c3.3,1.1,7.4,1.6,12.2,1.7
		c4.9,0.1,10.6,0,17.2-0.5v30.9c-26.3,3.2-45.2,0.9-56.6-6.8c-11.4-7.7-17.2-22-17.2-42.8v-76.3h-29.3V94.8h29.3V60.4l34.3-10.2
		v44.5h39.4V127.8z"/>
	<path class="st0" d="M1571.3,138.7c0,5.3,2.9,9.5,8.7,12.6c5.8,3.1,12.9,5.8,21.1,8.1c6.1,1.3,12.5,3,19.1,5.2
		c6.6,2.2,12.6,5.2,18.1,8.9c5.5,3.7,10,8.4,13.5,14.2c3.5,5.7,5.1,12.8,4.9,21.3c0,15.3-5.9,27.2-17.8,35.9
		c-11.9,8.7-26.6,13-44.2,13c-15.9,0-29.4-3.3-40.6-9.9c-11.1-6.6-19.2-15.7-24.3-27.4l29.6-17.2c5.3,15.3,17.1,22.9,35.3,22.9
		c18,0,27-5.9,27-17.8c0-5.1-2.9-9.2-8.7-12.4c-5.8-3.2-13-5.8-21.5-8c-5.9-1.5-12.2-3.3-18.8-5.4c-6.6-2.1-12.6-5-18.1-8.7
		c-5.5-3.7-10-8.4-13.5-14c-3.5-5.6-5.1-12.6-4.9-20.8c0-14.6,5.5-26.4,16.5-35.3c11-8.9,24.9-13.4,41.7-13.4
		c13.4,0,25.1,2.9,35.3,8.7c10.2,5.8,18,13.9,23.5,24.3l-28.9,16.2c-5.5-12.1-15.5-18.1-29.9-18.1c-6.6,0-12.1,1.4-16.5,4.3
		C1573.5,129,1571.3,133.1,1571.3,138.7z"/>
</g>
</svg>
